<svg width="132" height="21" viewBox="0 0 132 21" fill="none" xmlns="http://www.w3.org/2000/svg"><path d="M16.2801 10.503c.1947-.0816.3866-.1728.5744-.2793 2.621-1.48473 3.5462-4.82618 2.0631-7.45011C17.4345.149647 14.0968-.776612 11.4758.708167 9.53151 1.81 8.52344 3.93348 8.7361 6.02793c-1.68335-1.2622-4.02125-1.49031-5.96697-.38847C.149525 7.12423-.775692 10.4657.707418 13.0896c1.483112 2.624 4.820802 3.5502 7.441792 2.0654.15328-.0871.29828-.1811.44051-.2792-.12152 1.1004.08286 2.2465.66837 3.282 1.48311 2.6239 4.82081 3.5502 7.44181 2.0654 2.621-1.4848 3.5462-4.8262 2.0631-7.4502-.5883-1.0396-1.4721-1.8082-2.4829-2.27zm-9.1003 2.9378c-1.67644.9497-3.81273.3566-4.76142-1.3217-.94869-1.6783-.35628-3.817 1.32016-4.76537 1.67644-.94976 3.81273-.35668 4.76142 1.32164.94869 1.67833.35628 3.81563-1.32016 4.76543zm5.2655-11.01836c1.6764-.94976 3.8127-.35668 4.7614 1.32164.9487 1.67833.3563 3.81702-1.3202 4.76678-1.6764.94976-3.8127.35668-4.7614-1.32165-.9487-1.67971-.3563-3.81701 1.3202-4.76677zm-1.8671 7.44324l-.0718-.70644.5676.4258c.2872.21567.6076.40368.9501.55986l.6462.2945-.6545.2751c-.2044.0857-.3811.1715-.5413.2627-.145.0816-.2817.1714-.4157.264l-.562.3941.0759-.683c.0387-.3677.0415-.7327.0055-1.08662zm5.1523 8.64322c-1.6765.9498-3.8128.3567-4.7614-1.3216-.9487-1.6784-.3563-3.817 1.3201-4.7668 1.6765-.9498 3.8127-.3567 4.7614 1.3216.9487 1.6798.3563 3.8171-1.3201 4.7668zM23.8489 5.37268h2.6431c1.1269 0 1.983.15899 2.5658.47695.5827.31797.8755.87788.8755 1.6811 0 .48524-.1132.89446-.3397 1.22764-.2265.33317-.5496.5364-.9708.60828v.05945c.2776.0636.5344.16452.7678.30415.2334.13963.4184.34425.5537.61385.1354.2695.203.6276.203 1.0728 0 .7714-.2803 1.3755-.8396 1.8124-.5592.4369-1.3201.6553-2.2799.6553h-3.1789V5.37268zm1.798 3.37324h1.0481c.5234 0 .888-.08156 1.0896-.2447.203-.16313.3038-.40783.3038-.73271 0-.32626-.1188-.5599-.3577-.70368-.2375-.14239-.6145-.21428-1.131-.21428h-.9528v1.89537zm0 1.43088v2.2175h1.1793c.54 0 .9169-.1051 1.131-.3166.214-.2101.3217-.4908.3217-.8406 0-.3179-.1091-.5737-.3272-.7686-.2182-.1949-.6132-.2917-1.1849-.2917h-1.1199zM33.7792 13.8832h-1.7745V4.82382h1.7745v9.05938zM41.9003 7.37586v6.50874h-1.3574l-.2389-.8351h-.0953c-.2071.3346-.4902.5765-.8506.7272-.3618.1507-.7443.2268-1.149.2268-.6987 0-1.258-.1894-1.6792-.5669-.4211-.3774-.631-.9829-.631-1.8179V7.37448h1.7744v3.80322c0 .4686.0829.8212.25 1.0548.1671.235.4322.3512.7982.3512.5399 0 .9086-.1853 1.1075-.5544.1988-.3691.2982-.9.2982-1.5913V7.37448h1.7731v.00138zM46.7336 7.25562c.8976 0 1.6074.25575 2.1308.76865.5233.5129.7857 1.24147.7857 2.18703v.8586H45.459c.0152.5004.1643.8944.446 1.1806.2818.2862.6726.4286 1.1724.4286.4129 0 .7913-.0415 1.1379-.1258.3452-.083.7001-.2129 1.0661-.3871v1.3714c-.3259.159-.6629.2765-1.0122.3511-.3494.0761-.7733.1134-1.2746.1134-.6504 0-1.2263-.1217-1.7262-.3636-.4999-.2419-.8934-.6083-1.1793-1.0963-.2858-.488-.4294-1.1101-.4294-1.865 0-.75479.1284-1.38658.3866-1.89533.2583-.50875.6173-.89032 1.0771-1.14469.464-.25438.9998-.38156 1.6102-.38156zm.0124 1.26358c-.3493 0-.6352.1106-.8575.33317-.2224.22258-.3535.5682-.3922 1.03686h2.4884c-.0083-.38986-.1132-.71474-.3162-.97741-.2016-.26129-.5096-.39262-.9225-.39262zM53.1645 4.82382v2.10966c0 .24608-.0082.4894-.0234.72718-.0166.23779-.0318.42581-.047.55991h.0718c.174-.26959.4088-.49908.7029-.68571.2941-.18664.6753-.28065 1.1434-.28065.7305 0 1.3216.2848 1.7745.85299.4529.5682.6794 1.4046.6794 2.5092 0 1.1129-.2306 1.9548-.6904 2.5272-.4599.5723-1.0634.8585-1.8104.8585-.4765 0-.8507-.0857-1.1255-.2558-.2734-.1714-.4985-.3636-.6725-.5779h-.1188l-.2982.7148h-1.3575V4.82382h1.7717zm1.2732 3.8502c-.4598 0-.7857.14516-.9763.43548-.1905.29032-.29.72442-.2982 1.3051v.1907c0 .6277.0939 1.1102.2803 1.4489.1864.3373.5261.506 1.0177.506.3646 0 .6546-.1687.8686-.506.2141-.3374.3218-.824.3218-1.4599 0-.63596-.1091-1.1143-.3273-1.43641-.2168-.32212-.5137-.48387-.8866-.48387zM61.9044 7.25562c.8976 0 1.6074.25575 2.1308.76865.5234.5129.7858 1.24147.7858 2.18703v.8586h-4.1912c.0152.5004.1644.8944.4461 1.1806.2817.2862.6725.4286 1.1724.4286.4129 0 .7913-.0415 1.1379-.1258.3452-.083.7001-.2129 1.066-.3871v1.3714c-.3259.159-.6628.2765-1.0122.3511-.3493.0761-.7733.1134-1.2746.1134-.6504 0-1.2262-.1217-1.7261-.3636-.4999-.2419-.8935-.6083-1.1793-1.0963-.2859-.488-.4295-1.1101-.4295-1.865 0-.75479.1284-1.38658.3867-1.89533.2582-.50875.6172-.89032 1.0771-1.14469.4626-.25438.9984-.38156 1.6101-.38156zm.0111 1.26358c-.3494 0-.6352.1106-.8576.33317-.2223.22258-.3535.5682-.3922 1.03686h2.4885c-.0083-.38986-.1133-.71474-.3163-.97741-.2016-.26129-.5095-.39262-.9224-.39262zM70.1914 7.25562c.0869 0 .1905.00414.3093.01244.1187.00829.214.01935.2858.03594l-.1312 1.66865c-.0635-.01521-.1463-.03041-.2499-.04147-.1036-.01245-.1947-.01798-.2734-.01798-.3024 0-.5911.05392-.8686.16037-.2776.10783-.5027.28064-.6725.51843-.1713.23917-.2555.5641-.2555.9774v3.3138h-1.7745V7.37451h1.345l.2624 1.0963h.0829c.1905-.33317.4529-.61935.7857-.85852.3328-.2364.7181-.35667 1.1545-.35667zM75.8945 7.25562c.087 0 .1906.00414.3093.01244.1188.00829.2141.01935.2859.03594l-.1312 1.66865c-.0635-.01521-.1464-.03041-.25-.04147-.1035-.01245-.1947-.01798-.2734-.01798-.3024 0-.591.05392-.8686.16037-.2776.10783-.5026.28064-.6725.51843-.1712.23917-.2555.5641-.2555.9774v3.3138H72.264V7.37451h1.3451l.2623 1.0963h.0829c.1906-.33317.4529-.61935.7857-.85852.3328-.2364.7181-.35667 1.1545-.35667zM77.0378 7.37589h1.9416l1.2263 3.65941c.0635.1825.1105.365.1422.5488.0318.1825.0552.3775.0718.5848h.0359c.0235-.2073.0553-.4009.0953-.5848.0401-.1824.0912-.3649.1547-.5488l1.2028-3.65941h1.9056l-2.7508 7.34231c-.2541.6747-.6145 1.182-1.084 1.5193-.4695.3374-1.0122.506-1.6309.506-.2071 0-.3811-.0096-.5233-.029-.1423-.0194-.2693-.0415-.3812-.0664v-1.4059c.0801.0152.1823.0318.3094.047.127.0152.2582.0235.3921.0235.3729 0 .667-.1134.8811-.3401.214-.2267.377-.4991.4874-.8171l.1078-.3221-2.5838-6.45751zM88.9442 13.8832l-2.5713-7.23588h-.0469c.0152.16728.029.38295.0414.64977.0124.26682.0221.55575.0304.86958.0083.31382.0124.61796.0124.91243v4.8041h-1.1669V5.37268h1.8339l2.4415 6.83082h.0469l2.5119-6.83082h1.8339v8.51192h-1.2497V9.00859c0-.27787.0055-.56405.0179-.85851.0124-.29447.0235-.57235.0359-.83364.0125-.26267.0221-.4811.029-.65529h-.0469l-2.6431 7.22345h-1.1103v-.0014zM98.8151 7.3399c.8024 0 1.4029.17696 1.8039.53088.4.35391.6.90828.6 1.66311v4.35061h-.893l-.25-.8944h-.047c-.2776.3498-.5703.6055-.8755.7686-.3052.1632-.7278.2447-1.2677.2447-.58 0-1.0592-.1562-1.4403-.4714-.3812-.3138-.5717-.8046-.5717-1.4723 0-.6595.2485-1.1585.7443-1.4959.4958-.3373 1.2525-.5225 2.2689-.5543l1.095-.03598v-.35806c0-.46866-.1077-.80045-.3217-.99538-.2141-.19493-.5165-.2917-.9045-.2917-.3259 0-.6394.047-.9404.14239-.3025.09539-.5911.21152-.8686.34562l-.4047-.91796c.3011-.15899.6491-.29171 1.0413-.39954.3921-.10645.8037-.15899 1.2317-.15899zm1.1559 3.4562l-.8576.0235c-.7305.0318-1.2359.1548-1.5176.3691-.2817.2143-.4226.5088-.4226.882 0 .3346.0995.5765.2983.7272.1989.1507.4557.2267.7733.2267.4916 0 .9031-.1382 1.2332-.4175.3286-.2778.4944-.6953.4944-1.2511v-.5599h-.0014zM106.626 7.3399c.254 0 .488.01936.703.05945l-.132 1.18064c-.207-.0553-.421-.08295-.643-.08295-.326 0-.627.0788-.905.23778-.277.15899-.502.3871-.672.68571-.171.29862-.256.65807-.256 1.07837v3.3856h-1.262V7.4588h1l.167 1.14469h.047c.199-.34147.464-.63732.798-.88893.334-.25023.718-.37466 1.155-.37466zM110.067 4.82382V9.3542c0 .15898-.008.34976-.024.57234-.016.22256-.027.42166-.036.59586h.036c.087-.1189.209-.2765.364-.4714.154-.19496.291-.35533.41-.48252l1.965-2.10966h1.465l-2.584 2.75388 2.751 3.6719h-1.489l-2.119-2.8728-.738.6193v2.2535h-1.25V4.82382h1.249zM118.294 7.3399c.841 0 1.504.25991 1.989.7811.483.5212.726 1.23041.726 2.1276v.6913h-4.31c.016.6594.188 1.164.518 1.5138.329.3497.792.5239 1.387.5239.413 0 .78-.0373 1.102-.1133.321-.0761.653-.1894.994-.3401v1.0493c-.326.1507-.652.2599-.976.3276-.326.0678-.714.101-1.167.101-.619 0-1.167-.1231-1.644-.3692-.476-.246-.847-.6124-1.113-1.0963-.266-.4852-.399-1.088-.399-1.8124 0-.723.12-1.33547.363-1.83592.242-.50046.579-.88479 1.013-1.15022.432-.26544.939-.39816 1.517-.39816zm0 .97742c-.453 0-.814.14654-1.089.44101-.274.29446-.435.71059-.482 1.25117h3.024c-.008-.50049-.13-.90832-.363-1.22214-.233-.31382-.597-.47004-1.09-.47004zM125.189 12.9777c.358 0 .68-.0512.964-.1549v.954c-.135.0636-.317.1175-.548.1603-.231.0429-.461.065-.691.065-.349 0-.669-.0594-.958-.1783-.29-.1189-.522-.3263-.697-.6194-.174-.2945-.263-.7037-.263-1.2276V8.42381h-.893v-.57235l.94-.47695.441-1.35898h.775v1.44193h1.833v.96497h-1.833v3.52807c0 .3498.085.6083.255.7756.173.1686.398.2516.675.2516zM132 12.0721c0 .636-.228 1.1171-.685 1.442-.457.3262-1.098.488-1.924.488-.452 0-.839-.0318-1.161-.0954-.322-.0636-.617-.1631-.888-.2986v-1.1088c.278.1355.605.2558.982.3636.377.1079.744.1604 1.102.1604.476 0 .82-.076 1.03-.2267.21-.1507.315-.354.315-.6083 0-.1438-.04-.2724-.119-.3871-.08-.1148-.228-.235-.446-.3581-.218-.123-.538-.264-.958-.423-.413-.159-.76-.3221-1.041-.4894-.282-.1673-.499-.365-.649-.59587-.151-.23087-.227-.52119-.227-.86958 0-.55575.224-.98294.673-1.28155.447-.29862 1.041-.44654 1.78-.44654.389 0 .756.04009 1.102.11889.345.08018.68.19078 1.005.33318l-.417.96497c-.278-.1189-.564-.2212-.858-.30415-.294-.08295-.591-.1258-.893-.1258-.778 0-1.167.22672-1.167.68018 0 .15069.046.28202.137.39262.091.11198.25.22258.476.33456.227.1106.541.24608.946.40509.389.1507.725.3083 1.007.4714.281.1631.498.3594.649.5903.153.2337.229.524.229.8737z" fill="#fff"/></svg>