<svg width="191" height="39" viewBox="0 0 191 39" fill="none" xmlns="http://www.w3.org/2000/svg"><rect width="191" height="39" rx="19.5" fill="#fff"/><path d="M26.9105 24.195c.96 0 1.845-.225 2.64-.675.81-.465 1.44-1.08 1.875-1.845l-1.5-.855c-.54 1.035-1.695 1.695-3.015 1.695-1.125 0-2.025-.36-2.73-1.065-.69-.705-1.035-1.605-1.035-2.7 0-1.095.345-1.995 1.035-2.7.705-.705 1.605-1.065 2.73-1.065 1.32 0 2.46.66 3.015 1.695l1.5-.87c-.9-1.545-2.61-2.505-4.515-2.505-1.575 0-2.895.525-3.93 1.575-1.035 1.035-1.56 2.325-1.56 3.87s.525 2.835 1.56 3.885c1.035 1.035 2.355 1.56 3.93 1.56zm7.5363-7.695h-1.62V24h1.62v-3.78c0-.765.225-1.32.69-1.65.465-.345 1.005-.495 1.62-.45v-1.755c-1.125 0-1.905.465-2.31 1.395V16.5zm10.4004 4.44c.045-.285.06-.51.06-.675 0-1.095-.36-2.04-1.065-2.805-.705-.765-1.605-1.155-2.7-1.155-1.155 0-2.115.375-2.85 1.14-.735.75-1.11 1.68-1.11 2.805 0 1.14.375 2.085 1.125 2.835.75.735 1.74 1.11 2.955 1.11 1.455 0 2.55-.54 3.285-1.635l-1.335-.78c-.435.615-1.08.93-1.935.93-1.245 0-2.16-.63-2.4-1.77h5.97zm-5.985-1.32c.225-1.14 1.065-1.845 2.265-1.845 1.065 0 1.92.63 2.145 1.845h-4.41zm13.3665-2.055c-.615-.84-1.485-1.26-2.625-1.26-1.035 0-1.905.375-2.64 1.14-.735.765-1.095 1.695-1.095 2.805 0 1.095.36 2.04 1.095 2.805.735.765 1.605 1.14 2.64 1.14 1.14 0 2.01-.42 2.625-1.275V24h1.62v-7.5h-1.62v1.065zm-4.065 4.41c-.45-.465-.675-1.035-.675-1.725 0-.69.225-1.26.675-1.71.45-.465 1.02-.69 1.695-.69s1.245.225 1.695.69c.45.45.675 1.02.675 1.71s-.225 1.26-.675 1.725c-.45.45-1.02.675-1.695.675s-1.245-.225-1.695-.675zM59.922 16.5h-1.86v-2.1l-1.62.48v1.62h-1.38v1.56h1.38v3.6c0 1.965 1.005 2.64 3.48 2.34v-1.455c-1.23.06-1.86.075-1.86-.885v-3.6h1.86V16.5zm8.4066 4.44c.045-.285.06-.51.06-.675 0-1.095-.36-2.04-1.065-2.805-.705-.765-1.605-1.155-2.7-1.155-1.155 0-2.115.375-2.85 1.14-.735.75-1.11 1.68-1.11 2.805 0 1.14.375 2.085 1.125 2.835.75.735 1.74 1.11 2.955 1.11 1.455 0 2.55-.54 3.285-1.635l-1.335-.78c-.435.615-1.08.93-1.935.93-1.245 0-2.16-.63-2.4-1.77h5.97zm-5.985-1.32c.225-1.14 1.065-1.845 2.265-1.845 1.065 0 1.92.63 2.145 1.845h-4.41zm17.1605-2.055c-.615-.84-1.485-1.26-2.625-1.26-1.035 0-1.905.375-2.64 1.14-.735.765-1.095 1.695-1.095 2.805 0 1.095.36 2.04 1.095 2.805.735.765 1.605 1.14 2.64 1.14 1.14 0 2.01-.42 2.625-1.275V24h1.62v-7.5h-1.62v1.065zm-4.065 4.41c-.45-.465-.675-1.035-.675-1.725 0-.69.225-1.26.675-1.71.45-.465 1.02-.69 1.695-.69s1.245.225 1.695.69c.45.45.675 1.02.675 1.71s-.225 1.26-.675 1.725c-.45.45-1.02.675-1.695.675s-1.245-.225-1.695-.675zM88.3824 24V13.05h-1.62V24h1.62zm3.4109-8.925c.42-.42.42-1.05.015-1.455-.405-.42-1.065-.42-1.47 0-.405.405-.405 1.035 0 1.455.42.405 1.05.405 1.455 0zm.09 8.925v-7.5h-1.62V24h1.62zm4.881-1.8l-2.1-5.7h-1.77l2.925 7.5h1.875l2.9247-7.5h-1.7697l-2.085 5.7zm11.8327-1.26c.045-.285.06-.51.06-.675 0-1.095-.36-2.04-1.065-2.805-.705-.765-1.605-1.155-2.7-1.155-1.155 0-2.115.375-2.85 1.14-.735.75-1.11 1.68-1.11 2.805 0 1.14.375 2.085 1.125 2.835.75.735 1.74 1.11 2.955 1.11 1.455 0 2.55-.54 3.285-1.635l-1.335-.78c-.435.615-1.08.93-1.935.93-1.245 0-2.16-.63-2.4-1.77h5.97zm-5.985-1.32c.225-1.14 1.065-1.845 2.265-1.845 1.065 0 1.92.63 2.145 1.845h-4.41zm17.161-2.055c-.615-.84-1.485-1.26-2.625-1.26-1.035 0-1.905.375-2.64 1.14-.735.765-1.095 1.695-1.095 2.805 0 1.095.36 2.04 1.095 2.805.735.765 1.605 1.14 2.64 1.14 1.14 0 2.01-.42 2.625-1.275V24h1.62v-7.5h-1.62v1.065zm-4.065 4.41c-.45-.465-.675-1.035-.675-1.725 0-.69.225-1.26.675-1.71.45-.465 1.02-.69 1.695-.69s1.245.225 1.695.69c.45.45.675 1.02.675 1.71s-.225 1.26-.675 1.725c-.45.45-1.02.675-1.695.675s-1.245-.225-1.695-.675zm11.113 2.22c1.455 0 2.73-.75 3.375-1.95l-1.395-.795c-.36.705-1.11 1.155-1.995 1.155-.66 0-1.215-.225-1.665-.675-.435-.45-.66-1.005-.66-1.68s.225-1.23.66-1.68c.45-.45 1.005-.675 1.665-.675.9 0 1.62.435 1.965 1.155l1.395-.81c-.6-1.185-1.89-1.935-3.345-1.935-1.125 0-2.07.375-2.835 1.14-.75.75-1.125 1.68-1.125 2.805 0 1.11.375 2.04 1.125 2.805.765.765 1.71 1.14 2.835 1.14zm7.969 0c1.455 0 2.73-.75 3.375-1.95l-1.395-.795c-.36.705-1.11 1.155-1.995 1.155-.66 0-1.215-.225-1.665-.675-.435-.45-.66-1.005-.66-1.68s.225-1.23.66-1.68c.45-.45 1.005-.675 1.665-.675.9 0 1.62.435 1.965 1.155l1.395-.81c-.6-1.185-1.89-1.935-3.345-1.935-1.125 0-2.07.375-2.835 1.14-.75.75-1.125 1.68-1.125 2.805 0 1.11.375 2.04 1.125 2.805.765.765 1.71 1.14 2.835 1.14zm7.968 0c1.11 0 2.04-.375 2.805-1.14.765-.765 1.155-1.695 1.155-2.805s-.39-2.04-1.155-2.805c-.765-.765-1.695-1.14-2.805-1.14-1.095 0-2.04.375-2.805 1.14-.765.765-1.155 1.695-1.155 2.805s.39 2.04 1.155 2.805c.765.765 1.71 1.14 2.805 1.14zm-1.665-2.25c-.45-.45-.675-1.02-.675-1.695s.225-1.245.675-1.695c.45-.45 1.005-.675 1.665-.675.66 0 1.215.225 1.665.675.45.45.675 1.02.675 1.695s-.225 1.245-.675 1.695c-.45.45-1.005.675-1.665.675-.66 0-1.215-.225-1.665-.675zm12.145-1.425c0 1.455-.765 2.16-1.905 2.16-1.035 0-1.68-.615-1.68-1.74V16.5h-1.62v4.605c0 1.92 1.155 3.09 2.88 3.09 1.065 0 1.83-.39 2.325-1.155V24h1.62v-7.5h-1.62v4.02zm7.46-4.215c-1.065 0-1.83.39-2.325 1.155v-.96h-1.62V24h1.62v-4.02c0-1.455.765-2.16 1.905-2.16 1.035 0 1.68.615 1.68 1.74V24h1.62v-4.605c0-1.92-1.155-3.09-2.88-3.09zm8.809.195h-1.86v-2.1l-1.62.48v1.62h-1.38v1.56h1.38v3.6c0 1.965 1.005 2.64 3.48 2.34v-1.455c-1.23.06-1.86.075-1.86-.885v-3.6h1.86V16.5z" fill="#3949A7"/></svg>