<svg width="64" height="64" viewBox="0 0 64 64" fill="none" xmlns="http://www.w3.org/2000/svg"><circle cx="32.2907" cy="32.0005" r="31.4302" fill="#fff"/><path d="M38.365 20.4761c-.531 0-.9611.4301-.9611.9611v4.9263c0 .531.4301.9611.9611.9611.531 0 .961-.4301.961-.9611v-3.9237c5.5383.4879 9.8971 5.1528 9.8971 10.8168 0 5.9884-4.8716 10.8584-10.8583 10.8584-5.9867.0017-10.8584-4.8683-10.8584-10.8567 0-3.4556 1.6691-6.7358 4.463-8.7774.4284-.3126.5227-.9148.2101-1.3432-.3127-.4284-.9148-.5228-1.3432-.2101-3.2886 2.4019-5.252 6.2628-5.252 10.3307 0 7.0488 5.7334 12.7823 12.7822 12.7823s12.7823-5.7335 12.7823-12.7823c-.0017-7.0487-5.7352-12.7822-12.784-12.7822h.0002z" fill="#00CF80"/><path d="M31.9246 29.6474c-.268.4599-.1125 1.0471.3474 1.3151l5.3696 3.1281c.1522.0893.3193.1307.4831.1307.3308 0 .6534-.1704.832-.4781.268-.4598.1125-1.0471-.3474-1.3151L33.2396 29.3c-.4598-.268-1.0487-.1125-1.3151.3474h.0001zM14.9264 26.9143h8.893c.4682 0 .847-.3788.847-.8469 0-.4682-.3788-.847-.847-.847h-8.893c-.4681 0-.8469.3788-.8469.847 0 .4681.3788.8469.8469.8469zM13.2317 31.4272h8.893c.4682 0 .847-.3788.847-.8469 0-.4682-.3788-.847-.847-.847h-8.893c-.4681 0-.8469.3788-.8469.847 0 .4665.3788.8469.8469.8469zM22.9717 35.0913c0-.4682-.3788-.847-.847-.847h-8.893c-.4681 0-.8469.3789-.8469.847 0 .4681.3788.8469.8469.8469h8.893c.4665 0 .847-.3788.847-.8469zM24.6664 39.6038c0-.4682-.3788-.847-.847-.847h-8.893c-.4681 0-.8469.3788-.8469.847 0 .4681.3788.8469.8469.8469h8.893c.4666 0 .847-.3788.847-.8469z" fill="#00CF80"/></svg>