<svg width="300" height="54" viewBox="0 0 300 54" fill="none" xmlns="http://www.w3.org/2000/svg"><path d="M42.2895 1.4h-3.864V21h11.34v-3.696h-7.476V1.4zm22.8377 14.084c.084-.532.14-1.008.14-1.484 0-2.1-.672-3.836-2.016-5.264-1.316-1.428-3.024-2.128-5.068-2.128-2.156 0-3.948.7-5.32 2.128-1.372 1.4-2.072 3.164-2.072 5.264 0 2.128.7 3.892 2.1 5.292 1.4 1.4 3.248 2.1 5.572 2.1 2.688 0 4.732-1.008 6.104-2.996l-2.912-1.68c-.7.924-1.764 1.4-3.136 1.4-2.156 0-3.472-.868-3.948-2.632h10.556zm-10.612-2.8c.42-1.792 1.736-2.828 3.668-2.828 1.652 0 3.052.924 3.472 2.828h-7.14zM75.3866 7h-3.164V3.08l-3.612 1.092V7h-2.436v3.472h2.436v5.824c0 3.836 1.82 5.264 6.776 4.704v-3.276c-2.072.112-3.164.084-3.164-1.428v-5.824h3.164V7zm3.9062-5.628l-1.12 7.784h2.94l2.1-7.784h-3.92zm8.0428 9.604c0-.7.7-1.148 1.624-1.148 1.036 0 1.792.476 2.24 1.428l3.08-1.68c-1.092-1.904-3.052-2.968-5.32-2.968-1.512 0-2.772.392-3.808 1.204-1.008.784-1.512 1.876-1.512 3.248 0 2.912 2.604 3.78 4.676 4.312 1.428.364 2.548.784 2.548 1.54 0 .812-.644 1.204-1.932 1.204-1.428 0-2.324-.616-2.744-1.82l-3.136 1.764c1.036 2.212 2.996 3.332 5.88 3.332 1.596 0 2.94-.392 4.004-1.148 1.092-.784 1.624-1.904 1.624-3.332.028-2.996-2.632-3.976-4.676-4.396-1.428-.364-2.548-.784-2.548-1.54zm27.4074-2.24c-1.064-1.428-2.548-2.128-4.48-2.128-1.96 0-3.612.7-4.956 2.1-1.344 1.4-2.016 3.08-2.016 5.068 0 1.988.672 3.696 1.988 5.096 1.344 1.372 2.996 2.072 4.984 2.072 1.932 0 3.416-.7 4.48-2.128v1.512c0 2.212-1.4 3.444-3.668 3.444-1.736 0-2.968-.644-3.668-1.96l-3.08 1.764c1.232 2.24 3.612 3.416 6.636 3.416 2.016 0 3.724-.56 5.152-1.708s2.156-2.8 2.156-4.956V7h-3.528v1.736zm0 5.04c0 2.24-1.652 3.836-3.92 3.836s-3.92-1.596-3.92-3.836c0-1.092.364-2.016 1.092-2.716.756-.728 1.68-1.092 2.828-1.092s2.072.364 2.8 1.092c.756.7 1.12 1.624 1.12 2.716zm17.444-5.124c-1.092-1.372-2.604-2.044-4.564-2.044-1.876 0-3.472.728-4.816 2.156-1.316 1.428-1.988 3.164-1.988 5.236 0 2.072.672 3.836 1.988 5.264 1.344 1.428 2.94 2.128 4.816 2.128 1.96 0 3.472-.672 4.564-2.044V21h3.612V7h-3.612v1.652zm-6.664 8.204c-.728-.756-1.092-1.708-1.092-2.856s.364-2.1 1.092-2.828c.728-.756 1.652-1.12 2.772-1.12 1.12 0 2.044.364 2.772 1.12.756.728 1.12 1.68 1.12 2.828s-.364 2.1-1.12 2.856c-.728.728-1.652 1.092-2.772 1.092-1.12 0-2.044-.364-2.772-1.092zM140.866 5.32c1.232 0 2.24-1.008 2.24-2.212 0-1.204-1.008-2.240001-2.24-2.240001-1.204 0-2.212 1.036001-2.212 2.240001s1.008 2.212 2.212 2.212zm1.82 15.68V7h-3.612v14h3.612zm11.09-14.392c-1.904 0-3.304.644-4.172 1.96V7h-3.612v14h3.612v-7.56c0-2.324 1.204-3.472 3.08-3.472 1.68 0 2.772 1.008 2.772 2.884V21h3.612v-8.596c0-1.82-.504-3.22-1.512-4.256-.98-1.036-2.24-1.54-3.78-1.54zM177.16 7h-3.164V3.08l-3.612 1.092V7h-2.436v3.472h2.436v5.824c0 3.836 1.82 5.264 6.776 4.704v-3.276c-2.072.112-3.164.084-3.164-1.428v-5.824h3.164V7zm6.377 0h-3.612v14h3.612v-6.692c0-1.344.42-2.296 1.288-2.884.868-.588 1.876-.812 2.968-.672V6.72c-1.904 0-3.584.896-4.256 2.688V7zm16.489 1.652c-1.092-1.372-2.604-2.044-4.564-2.044-1.876 0-3.472.728-4.816 2.156-1.316 1.428-1.988 3.164-1.988 5.236 0 2.072.672 3.836 1.988 5.264 1.344 1.428 2.94 2.128 4.816 2.128 1.96 0 3.472-.672 4.564-2.044V21h3.612V7h-3.612v1.652zm-6.664 8.204c-.728-.756-1.092-1.708-1.092-2.856s.364-2.1 1.092-2.828c.728-.756 1.652-1.12 2.772-1.12 1.12 0 2.044.364 2.772 1.12.756.728 1.12 1.68 1.12 2.828s-.364 2.1-1.12 2.856c-.728.728-1.652 1.092-2.772 1.092-1.12 0-2.044-.364-2.772-1.092zm24.164-8.204c-1.064-1.372-2.576-2.044-4.536-2.044-1.876 0-3.5.728-4.844 2.156-1.316 1.428-1.988 3.164-1.988 5.236 0 2.072.672 3.836 1.988 5.264 1.344 1.428 2.968 2.128 4.844 2.128 1.96 0 3.472-.672 4.536-2.044V21h3.612V1.4h-3.612v7.252zm-6.664 8.204c-.728-.756-1.092-1.708-1.092-2.856s.364-2.1 1.092-2.828c.756-.756 1.68-1.12 2.8-1.12 1.12 0 2.044.364 2.772 1.12.728.728 1.092 1.68 1.092 2.828s-.364 2.1-1.092 2.856c-.728.728-1.652 1.092-2.772 1.092-1.12 0-2.044-.364-2.8-1.092zM226.233 5.32c1.232 0 2.24-1.008 2.24-2.212 0-1.204-1.008-2.240001-2.24-2.240001-1.204 0-2.212 1.036001-2.212 2.240001s1.008 2.212 2.212 2.212zm1.82 15.68V7h-3.612v14h3.612zm11.09-14.392c-1.904 0-3.304.644-4.172 1.96V7h-3.612v14h3.612v-7.56c0-2.324 1.204-3.472 3.08-3.472 1.68 0 2.772 1.008 2.772 2.884V21h3.612v-8.596c0-1.82-.504-3.22-1.512-4.256-.98-1.036-2.24-1.54-3.78-1.54zm19.1 2.128c-1.064-1.428-2.548-2.128-4.48-2.128-1.96 0-3.612.7-4.956 2.1-1.344 1.4-2.016 3.08-2.016 5.068 0 1.988.672 3.696 1.988 5.096 1.344 1.372 2.996 2.072 4.984 2.072 1.932 0 3.416-.7 4.48-2.128v1.512c0 2.212-1.4 3.444-3.668 3.444-1.736 0-2.968-.644-3.668-1.96l-3.08 1.764c1.232 2.24 3.612 3.416 6.636 3.416 2.016 0 3.724-.56 5.152-1.708s2.156-2.8 2.156-4.956V7h-3.528v1.736zm0 5.04c0 2.24-1.652 3.836-3.92 3.836s-3.92-1.596-3.92-3.836c0-1.092.364-2.016 1.092-2.716.756-.728 1.68-1.092 2.828-1.092s2.072.364 2.8 1.092c.756.7 1.12 1.624 1.12 2.716zM33.3294 31.608c-1.848 0-3.248.672-4.172 2.016-.812-1.344-2.1-2.016-3.808-2.016-1.764 0-3.052.616-3.892 1.876V32h-3.612v14h3.612v-7.868c0-2.044 1.036-3.164 2.632-3.164 1.484 0 2.352.98 2.352 2.66V46h3.612v-7.868c0-2.044.952-3.164 2.604-3.164 1.484 0 2.352.98 2.352 2.66V46h3.612v-8.624c0-3.5-2.072-5.768-5.292-5.768zm20.2877 12.656c1.428-1.428 2.156-3.192 2.156-5.264s-.728-3.808-2.156-5.236c-1.428-1.428-3.192-2.156-5.264-2.156s-3.836.728-5.264 2.156c-1.428 1.428-2.128 3.164-2.128 5.236 0 2.072.7 3.836 2.128 5.264 1.428 1.428 3.192 2.128 5.264 2.128s3.836-.7 5.264-2.128zm-7.98-2.492c-.7-.728-1.064-1.652-1.064-2.772 0-1.12.364-2.044 1.064-2.772.728-.728 1.624-1.092 2.716-1.092s1.988.364 2.716 1.092c.728.728 1.092 1.652 1.092 2.772 0 1.12-.364 2.044-1.092 2.772-.728.728-1.624 1.092-2.716 1.092s-1.988-.364-2.716-1.092zm28.161-10.164c-1.848 0-3.248.672-4.172 2.016-.812-1.344-2.1-2.016-3.808-2.016-1.764 0-3.052.616-3.892 1.876V32h-3.612v14h3.612v-7.868c0-2.044 1.036-3.164 2.632-3.164 1.484 0 2.352.98 2.352 2.66V46h3.612v-7.868c0-2.044.952-3.164 2.604-3.164 1.484 0 2.352.98 2.352 2.66V46h3.612v-8.624c0-3.5-2.072-5.768-5.292-5.768zm21.9678 8.876c.084-.532.14-1.008.14-1.484 0-2.1-.672-3.836-2.016-5.264-1.316-1.428-3.024-2.128-5.068-2.128-2.156 0-3.948.7-5.32 2.128-1.372 1.4-2.072 3.164-2.072 5.264 0 2.128.7 3.892 2.1 5.292 1.4 1.4 3.248 2.1 5.572 2.1 2.688 0 4.732-1.008 6.104-2.996l-2.912-1.68c-.7.924-1.764 1.4-3.136 1.4-2.156 0-3.472-.868-3.948-2.632h10.556zm-10.612-2.8c.42-1.792 1.736-2.828 3.668-2.828 1.652 0 3.052.924 3.472 2.828h-7.14zm21.0571-6.076c-1.904 0-3.304.644-4.172 1.96V32h-3.6116v14h3.6116v-7.56c0-2.324 1.204-3.472 3.08-3.472 1.68 0 2.772 1.008 2.772 2.884V46h3.612v-8.596c0-1.82-.504-3.22-1.512-4.256-.98-1.036-2.24-1.54-3.78-1.54zm16.385.392h-3.164v-3.92l-3.612 1.092V32h-2.436v3.472h2.436v5.824c0 3.836 1.82 5.264 6.776 4.704v-3.276c-2.072.112-3.164.084-3.164-1.428v-5.824h3.164V32zm12.005 7.56c0 2.324-1.204 3.472-3.08 3.472-1.68 0-2.772-1.008-2.772-2.884V32h-3.612v8.596c0 1.82.504 3.22 1.484 4.256 1.008 1.036 2.268 1.54 3.808 1.54 1.904 0 3.304-.644 4.172-1.96V46h3.612V32h-3.612v7.56zm22.404-7.952c-1.848 0-3.248.672-4.172 2.016-.812-1.344-2.1-2.016-3.808-2.016-1.764 0-3.052.616-3.892 1.876V32h-3.612v14h3.612v-7.868c0-2.044 1.036-3.164 2.632-3.164 1.484 0 2.352.98 2.352 2.66V46h3.612v-7.868c0-2.044.952-3.164 2.604-3.164 1.484 0 2.352.98 2.352 2.66V46h3.612v-8.624c0-3.5-2.072-5.768-5.292-5.768zm23.368.392h-3.164v-3.92l-3.612 1.092V32h-2.436v3.472h2.436v5.824c0 3.836 1.82 5.264 6.776 4.704v-3.276c-2.072.112-3.164.084-3.164-1.428v-5.824h3.164V32zm14.037 12.264c1.428-1.428 2.156-3.192 2.156-5.264s-.728-3.808-2.156-5.236c-1.428-1.428-3.192-2.156-5.264-2.156s-3.836.728-5.264 2.156c-1.428 1.428-2.128 3.164-2.128 5.236 0 2.072.7 3.836 2.128 5.264 1.428 1.428 3.192 2.128 5.264 2.128s3.836-.7 5.264-2.128zm-7.98-2.492c-.7-.728-1.064-1.652-1.064-2.772 0-1.12.364-2.044 1.064-2.772.728-.728 1.624-1.092 2.716-1.092s1.988.364 2.716 1.092c.728.728 1.092 1.652 1.092 2.772 0 1.12-.364 2.044-1.092 2.772-.728.728-1.624 1.092-2.716 1.092s-1.988-.364-2.716-1.092zm23.401-8.036c-1.064-1.428-2.548-2.128-4.48-2.128-1.96 0-3.612.7-4.956 2.1-1.344 1.4-2.016 3.08-2.016 5.068 0 1.988.672 3.696 1.988 5.096 1.344 1.372 2.996 2.072 4.984 2.072 1.932 0 3.416-.7 4.48-2.128v1.512c0 2.212-1.4 3.444-3.668 3.444-1.736 0-2.968-.644-3.668-1.96l-3.08 1.764c1.232 2.24 3.612 3.416 6.636 3.416 2.016 0 3.724-.56 5.152-1.708s2.156-2.8 2.156-4.956V32h-3.528v1.736zm0 5.04c0 2.24-1.652 3.836-3.92 3.836s-3.92-1.596-3.92-3.836c0-1.092.364-2.016 1.092-2.716.756-.728 1.68-1.092 2.828-1.092s2.072.364 2.8 1.092c.756.7 1.12 1.624 1.12 2.716zm20.411 1.708c.084-.532.14-1.008.14-1.484 0-2.1-.672-3.836-2.016-5.264-1.316-1.428-3.024-2.128-5.068-2.128-2.156 0-3.948.7-5.32 2.128-1.372 1.4-2.072 3.164-2.072 5.264 0 2.128.7 3.892 2.1 5.292 1.4 1.4 3.248 2.1 5.572 2.1 2.688 0 4.732-1.008 6.104-2.996l-2.912-1.68c-.7.924-1.764 1.4-3.136 1.4-2.156 0-3.472-.868-3.948-2.632h10.556zm-10.612-2.8c.42-1.792 1.736-2.828 3.668-2.828 1.652 0 3.052.924 3.472 2.828h-7.14zM240.502 32h-3.164v-3.92l-3.612 1.092V32h-2.436v3.472h2.436v5.824c0 3.836 1.82 5.264 6.776 4.704v-3.276c-2.072.112-3.164.084-3.164-1.428v-5.824h3.164V32zm10.33-.392c-1.904 0-3.304.644-4.172 1.96V26.4h-3.612V46h3.612v-7.56c0-2.324 1.204-3.472 3.08-3.472 1.68 0 2.772 1.008 2.772 2.884V46h3.612v-8.596c0-1.82-.504-3.22-1.512-4.256-.98-1.036-2.24-1.54-3.78-1.54zm21.985 8.876c.084-.532.14-1.008.14-1.484 0-2.1-.672-3.836-2.016-5.264-1.316-1.428-3.024-2.128-5.068-2.128-2.156 0-3.948.7-5.32 2.128-1.372 1.4-2.072 3.164-2.072 5.264 0 2.128.7 3.892 2.1 5.292 1.4 1.4 3.248 2.1 5.572 2.1 2.688 0 4.732-1.008 6.104-2.996l-2.912-1.68c-.7.924-1.764 1.4-3.136 1.4-2.156 0-3.472-.868-3.948-2.632h10.556zm-10.612-2.8c.42-1.792 1.736-2.828 3.668-2.828 1.652 0 3.052.924 3.472 2.828h-7.14zM279.09 32h-3.612v14h3.612v-6.692c0-1.344.42-2.296 1.288-2.884.868-.588 1.876-.812 2.968-.672V31.72c-1.904 0-3.584.896-4.256 2.688V32z" fill="#fff"/></svg>