<svg width="209" height="40" viewBox="0 0 209 40" fill="none" xmlns="http://www.w3.org/2000/svg"><path d="M32.4581 15.098c-.644 0-1.2226-.112-1.736-.336-.504-.2333-.9006-.5507-1.19-.952-.2893-.4107-.4386-.882-.448-1.414h1.358c.0467.4573.2334.8447.56 1.162.336.308.8214.462 1.456.462.6067 0 1.0827-.1493 1.428-.448.3547-.308.532-.7.532-1.176 0-.3733-.1026-.6767-.308-.91-.2053-.2333-.462-.4107-.77-.532-.308-.1213-.7233-.252-1.246-.392-.644-.168-1.162-.336-1.554-.504-.3826-.168-.714-.42933-.994-.784-.2706-.364-.406-.84933-.406-1.456 0-.532.1354-1.00333.406-1.414.2707-.41067.6487-.728 1.134-.952.4947-.224 1.0594-.336 1.694-.336.9147 0 1.6614.22867 2.24.686.588.45733.9194 1.064.994 1.82h-1.4c-.0466-.37333-.2426-.7-.588-.98-.3453-.28933-.8026-.434-1.372-.434-.532 0-.966.14-1.302.42-.336.27067-.504.65333-.504 1.148 0 .35467.098.644.294.868.2054.224.4527.39667.742.518.2987.112.714.24267 1.246.392.644.17733 1.162.35467 1.554.532.392.168.728.434 1.008.798.28.3547.42.84.42 1.456 0 .476-.126.924-.378 1.344-.252.42-.6253.7607-1.12 1.022-.4946.2613-1.078.392-1.75.392zm6.3968-6.356c.252-.43867.6254-.80267 1.12-1.092.504-.29867 1.0874-.448 1.75-.448.6814 0 1.2974.16333 1.848.49.56.32667.9987.78867 1.316 1.386.3174.588.476 1.274.476 2.058 0 .7747-.1586 1.4653-.476 2.072-.3173.6067-.756 1.078-1.316 1.414-.5506.336-1.1666.504-1.848.504-.6533 0-1.232-.1447-1.736-.434-.4946-.2987-.8726-.6673-1.134-1.106v5.054h-1.274V7.328h1.274v1.414zm5.208 2.394c0-.5787-.1166-1.0827-.35-1.512-.2333-.42933-.5506-.756-.952-.98-.392-.224-.826-.336-1.302-.336-.4666 0-.9006.11667-1.302.35-.392.224-.7093.55533-.952.994-.2333.4293-.35.9287-.35 1.498 0 .5787.1167 1.0873.35 1.526.2427.4293.56.7607.952.994.4014.224.8354.336 1.302.336.476 0 .91-.112 1.302-.336.4014-.2333.7187-.5647.952-.994.2334-.4387.35-.952.35-1.54zm4.253-2.562c.224-.43867.5413-.77933.952-1.022.42-.24267.9286-.364 1.526-.364v1.316h-.336c-1.428 0-2.142.77467-2.142 2.324V15h-1.274V7.328h1.274v1.246zm10.9486 2.296c0 .2427-.014.4993-.042.77h-6.132c.0467.756.3034 1.3487.77 1.778.476.42 1.05.63 1.722.63.5507 0 1.008-.126 1.372-.378.3734-.2613.6347-.6067.784-1.036h1.372c-.2053.7373-.616 1.3393-1.232 1.806-.616.4573-1.3813.686-2.296.686-.728 0-1.3813-.1633-1.96-.49-.5693-.3267-1.0173-.7887-1.344-1.386-.3266-.6067-.49-1.3067-.49-2.1 0-.7933.1587-1.48867.476-2.086.3174-.59733.7607-1.05467 1.33-1.372.5787-.32667 1.2414-.49 1.988-.49.728 0 1.372.15867 1.932.476.56.31733.9894.756 1.288 1.316.308.55067.462 1.176.462 1.876zm-1.316-.266c0-.4853-.1073-.90067-.322-1.246-.2146-.35467-.5086-.62067-.882-.798-.364-.18667-.77-.28-1.218-.28-.644 0-1.1946.20533-1.652.616-.448.41067-.7046.98-.77 1.708h4.844zm2.5217.532c0-.784.1586-1.47.476-2.058.3173-.59733.7513-1.05933 1.302-1.386.56-.32667 1.1806-.49 1.862-.49.672 0 1.2553.14467 1.75.434.4946.28933.8633.65333 1.106 1.092v-1.4h1.288V15h-1.288v-1.428c-.252.448-.63.8213-1.134 1.12-.4947.2893-1.0734.434-1.736.434-.6814 0-1.2974-.168-1.848-.504-.5507-.336-.9847-.8073-1.302-1.414-.3174-.6067-.476-1.2973-.476-2.072zm6.496.014c0-.5787-.1167-1.0827-.35-1.512-.2334-.42933-.5507-.756-.952-.98-.392-.23333-.826-.35-1.302-.35-.476 0-.91.112-1.302.336-.392.224-.7047.55067-.938.98-.2334.4293-.35.9333-.35 1.512 0 .588.1166 1.1013.35 1.54.2333.4293.546.7607.938.994.392.224.826.336 1.302.336.476 0 .91-.112 1.302-.336.4013-.2333.7186-.5647.952-.994.2333-.4387.35-.9473.35-1.526zm2.9649-.014c0-.784.1587-1.47.476-2.058.3173-.59733.7513-1.05933 1.302-1.386.56-.32667 1.1853-.49 1.876-.49.5973 0 1.1527.14 1.666.42.5133.27067.9053.63 1.176 1.078V4.64h1.288V15h-1.288v-1.442c-.252.4573-.6253.8353-1.12 1.134-.4947.2893-1.0733.434-1.736.434-.6813 0-1.302-.168-1.862-.504-.5507-.336-.9847-.8073-1.302-1.414-.3173-.6067-.476-1.2973-.476-2.072zm6.496.014c0-.5787-.1167-1.0827-.35-1.512-.2333-.42933-.5507-.756-.952-.98-.392-.23333-.826-.35-1.302-.35-.476 0-.91.112-1.302.336-.392.224-.7047.55067-.938.98-.2333.4293-.35.9333-.35 1.512 0 .588.1167 1.1013.35 1.54.2333.4293.546.7607.938.994.392.224.826.336 1.302.336.476 0 .91-.112 1.302-.336.4013-.2333.7187-.5647.952-.994.2333-.4387.35-.9473.35-1.526zm6.1569 3.976c-.588 0-1.1153-.098-1.582-.294-.4666-.2053-.8353-.4853-1.106-.84-.2706-.364-.42-.7793-.448-1.246h1.316c.0374.3827.2147.6953.532.938.3267.2427.7514.364 1.274.364.4854 0 .868-.1073 1.148-.322.28-.2147.42-.4853.42-.812 0-.336-.1493-.5833-.448-.742-.2986-.168-.7606-.3313-1.386-.49-.5693-.1493-1.036-.2987-1.4-.448-.3546-.1587-.6626-.3873-.924-.686-.252-.308-.378-.70933-.378-1.204 0-.392.1167-.75133.35-1.078.2334-.32667.5647-.58333.994-.77.4294-.196.9194-.294 1.47-.294.8494 0 1.5354.21467 2.058.644.5227.42933.8027 1.01733.84 1.764H84.04c-.028-.40133-.1913-.72333-.49-.966-.2893-.24267-.6813-.364-1.176-.364-.4573 0-.8213.098-1.092.294-.2706.196-.406.45267-.406.77 0 .252.0794.462.238.63.168.1587.3734.2893.616.392.252.0933.5974.2007 1.036.322.5507.1493.9987.2987 1.344.448.3454.14.6394.3547.882.644.252.2893.3827.6673.392 1.134 0 .42-.1166.798-.35 1.134-.2333.336-.5646.602-.994.798-.42.1867-.9053.28-1.456.28zm11.4529-6.748h-1.61V15h-1.274V8.378h-.994v-1.05h.994v-.546c0-.85867.2193-1.484.658-1.876.448-.40133 1.162-.602 2.142-.602v1.064c-.56 0-.9567.112-1.19.336-.224.21467-.336.574-.336 1.078v.546h1.61v1.05zm2.7594.196c.224-.43867.5414-.77933.952-1.022.42-.24267.9287-.364 1.526-.364v1.316h-.336c-1.428 0-2.142.77467-2.142 2.324V15h-1.274V7.328h1.274v1.246zm7.2947 6.552c-.719 0-1.372-.1633-1.96-.49-.579-.3267-1.036-.7887-1.372-1.386-.327-.6067-.49-1.3067-.49-2.1 0-.784.168-1.47467.504-2.072.345-.60667.812-1.06867 1.4-1.386.588-.32667 1.246-.49 1.974-.49s1.386.16333 1.974.49c.588.31733 1.05.77467 1.386 1.372.345.59733.518 1.2927.518 2.086 0 .7933-.177 1.4933-.532 2.1-.345.5973-.817 1.0593-1.414 1.386s-1.26.49-1.988.49zm0-1.12c.457 0 .887-.1073 1.288-.322s.723-.5367.966-.966c.252-.4293.378-.952.378-1.568 0-.616-.121-1.1387-.364-1.568-.243-.42933-.56-.74667-.952-.952-.392-.21467-.817-.322-1.274-.322-.467 0-.896.10733-1.288.322-.383.20533-.691.52267-.924.952-.233.4293-.35.952-.35 1.568 0 .6253.112 1.1527.336 1.582.233.4293.541.7513.924.966.383.2053.803.308 1.26.308zm14.835-6.818c.597 0 1.129.126 1.596.378.467.24267.835.61133 1.106 1.106.271.49467.406 1.09667.406 1.806V15h-1.26v-4.34c0-.76533-.191-1.34867-.574-1.75-.373-.41067-.882-.616-1.526-.616-.663 0-1.19.21467-1.582.644-.392.42-.588 1.03133-.588 1.834V15h-1.26v-4.34c0-.76533-.191-1.34867-.574-1.75-.373-.41067-.882-.616-1.526-.616-.663 0-1.19.21467-1.582.644-.392.42-.588 1.03133-.588 1.834V15H109.7V7.328h1.274v1.106c.252-.40133.588-.70933 1.008-.924.429-.21467.901-.322 1.414-.322.644 0 1.213.14467 1.708.434.495.28933.863.714 1.106 1.274.215-.54133.569-.96133 1.064-1.26.495-.29867 1.045-.448 1.652-.448zm8.72 2.646c0-1.60533.262-2.856.784-3.752.523-.90533 1.438-1.358 2.744-1.358 1.298 0 2.208.45267 2.73 1.358.523.896.784 2.14667.784 3.752 0 1.6333-.261 2.9027-.784 3.808-.522.9053-1.432 1.358-2.73 1.358-1.306 0-2.221-.4527-2.744-1.358-.522-.9053-.784-2.1747-.784-3.808zm5.782 0c0-.812-.056-1.498-.168-2.058-.102-.56933-.322-1.02667-.658-1.372-.326-.34533-.802-.518-1.428-.518-.634 0-1.12.17267-1.456.518-.326.34533-.546.80267-.658 1.372-.102.56-.154 1.246-.154 2.058 0 .84.052 1.5447.154 2.114.112.5693.332 1.0267.658 1.372.336.3453.822.518 1.456.518.626 0 1.102-.1727 1.428-.518.336-.3453.556-.8027.658-1.372.112-.5693.168-1.274.168-2.114zm3.625 5.25c-.242 0-.448-.084-.616-.252-.168-.168-.252-.3733-.252-.616 0-.2427.084-.448.252-.616.168-.168.374-.252.616-.252.234 0 .43.084.588.252.168.168.252.3733.252.616 0 .2427-.084.448-.252.616-.158.168-.354.252-.588.252zm2.324-5.25c0-1.60533.261-2.856.784-3.752.522-.90533 1.437-1.358 2.744-1.358 1.297 0 2.207.45267 2.73 1.358.522.896.784 2.14667.784 3.752 0 1.6333-.262 2.9027-.784 3.808-.523.9053-1.433 1.358-2.73 1.358-1.307 0-2.222-.4527-2.744-1.358-.523-.9053-.784-2.1747-.784-3.808zm5.782 0c0-.812-.056-1.498-.168-2.058-.103-.56933-.322-1.02667-.658-1.372-.327-.34533-.803-.518-1.428-.518-.635 0-1.12.17267-1.456.518-.327.34533-.546.80267-.658 1.372-.103.56-.154 1.246-.154 2.058 0 .84.051 1.5447.154 2.114.112.5693.331 1.0267.658 1.372.336.3453.821.518 1.456.518.625 0 1.101-.1727 1.428-.518.336-.3453.555-.8027.658-1.372.112-.5693.168-1.274.168-2.114zm8.225-1.092c.252-.43867.626-.80267 1.12-1.092.504-.29867 1.088-.448 1.75-.448.682 0 1.298.16333 1.848.49.56.32667.999.78867 1.316 1.386.318.588.476 1.274.476 2.058 0 .7747-.158 1.4653-.476 2.072-.317.6067-.756 1.078-1.316 1.414-.55.336-1.166.504-1.848.504-.653 0-1.232-.1447-1.736-.434-.494-.2987-.872-.6673-1.134-1.106v5.054h-1.274V7.328h1.274v1.414zm5.208 2.394c0-.5787-.116-1.0827-.35-1.512-.233-.42933-.55-.756-.952-.98-.392-.224-.826-.336-1.302-.336-.466 0-.9.11667-1.302.35-.392.224-.709.55533-.952.994-.233.4293-.35.9287-.35 1.498 0 .5787.117 1.0873.35 1.526.243.4293.56.7607.952.994.402.224.836.336 1.302.336.476 0 .91-.112 1.302-.336.402-.2333.719-.5647.952-.994.234-.4387.35-.952.35-1.54zm3.637-5.054c-.243 0-.448-.084-.616-.252-.168-.168-.252-.37333-.252-.616s.084-.448.252-.616c.168-.168.373-.252.616-.252.233 0 .429.084.588.252.168.168.252.37333.252.616s-.084.448-.252.616c-.159.168-.355.252-.588.252zm.616 1.246V15h-1.274V7.328h1.274zm3.445 1.414c.252-.43867.626-.80267 1.12-1.092.504-.29867 1.088-.448 1.75-.448.682 0 1.298.16333 1.848.49.56.32667.999.78867 1.316 1.386.318.588.476 1.274.476 2.058 0 .7747-.158 1.4653-.476 2.072-.317.6067-.756 1.078-1.316 1.414-.55.336-1.166.504-1.848.504-.653 0-1.232-.1447-1.736-.434-.494-.2987-.872-.6673-1.134-1.106v5.054h-1.274V7.328h1.274v1.414zm5.208 2.394c0-.5787-.116-1.0827-.35-1.512-.233-.42933-.55-.756-.952-.98-.392-.224-.826-.336-1.302-.336-.466 0-.9.11667-1.302.35-.392.224-.709.55533-.952.994-.233.4293-.35.9287-.35 1.498 0 .5787.117 1.0873.35 1.526.243.4293.56.7607.952.994.402.224.836.336 1.302.336.476 0 .91-.112 1.302-.336.402-.2333.719-.5647.952-.994.234-.4387.35-.952.35-1.54zm5.695 3.99c-.588 0-1.115-.098-1.582-.294-.466-.2053-.835-.4853-1.106-.84-.27-.364-.42-.7793-.448-1.246h1.316c.038.3827.215.6953.532.938.327.2427.752.364 1.274.364.486 0 .868-.1073 1.148-.322.28-.2147.42-.4853.42-.812 0-.336-.149-.5833-.448-.742-.298-.168-.76-.3313-1.386-.49-.569-.1493-1.036-.2987-1.4-.448-.354-.1587-.662-.3873-.924-.686-.252-.308-.378-.70933-.378-1.204 0-.392.117-.75133.35-1.078.234-.32667.565-.58333.994-.77.43-.196.92-.294 1.47-.294.85 0 1.536.21467 2.058.644.523.42933.803 1.01733.84 1.764h-1.274c-.028-.40133-.191-.72333-.49-.966-.289-.24267-.681-.364-1.176-.364-.457 0-.821.098-1.092.294-.27.196-.406.45267-.406.77 0 .252.08.462.238.63.168.1587.374.2893.616.392.252.0933.598.2007 1.036.322.551.1493.999.2987 1.344.448.346.14.64.3547.882.644.252.2893.383.6673.392 1.134 0 .42-.116.798-.35 1.134-.233.336-.564.602-.994.798-.42.1867-.905.28-1.456.28zM19.299 35l-2.324-3.99h-1.54V35h-1.274v-9.758h3.15c.7373 0 1.358.126 1.862.378.5133.252.896.5927 1.148 1.022.252.4293.378.9193.378 1.47 0 .672-.196 1.2647-.588 1.778-.3827.5133-.9613.854-1.736 1.022L20.825 35h-1.526zm-3.864-5.012h1.876c.6907 0 1.2087-.168 1.554-.504.3453-.3453.518-.8027.518-1.372 0-.5787-.1727-1.0267-.518-1.344-.336-.3173-.854-.476-1.554-.476h-1.876v3.696zm14.2436.882c0 .2427-.014.4993-.042.77h-6.132c.0467.756.3033 1.3487.77 1.778.476.42 1.05.63 1.722.63.5507 0 1.008-.126 1.372-.378.3733-.2613.6347-.6067.784-1.036h1.372c-.2053.7373-.616 1.3393-1.232 1.806-.616.4573-1.3813.686-2.296.686-.728 0-1.3813-.1633-1.96-.49-.5693-.3267-1.0173-.7887-1.344-1.386-.3267-.6067-.49-1.3067-.49-2.1 0-.7933.1587-1.4887.476-2.086.3173-.5973.7607-1.0547 1.33-1.372.5787-.3267 1.2413-.49 1.988-.49.728 0 1.372.1587 1.932.476.56.3173.9893.756 1.288 1.316.308.5507.462 1.176.462 1.876zm-1.316-.266c0-.4853-.1073-.9007-.322-1.246-.2147-.3547-.5087-.6207-.882-.798-.364-.1867-.77-.28-1.218-.28-.644 0-1.1947.2053-1.652.616-.448.4107-.7047.98-.77 1.708h4.844zm2.5216.532c0-.784.1587-1.47.476-2.058.3174-.5973.7514-1.0593 1.302-1.386.56-.3267 1.1807-.49 1.862-.49.672 0 1.2554.1447 1.75.434.4947.2893.8634.6533 1.106 1.092v-1.4h1.288V35h-1.288v-1.428c-.252.448-.63.8213-1.134 1.12-.4946.2893-1.0733.434-1.736.434-.6813 0-1.2973-.168-1.848-.504-.5506-.336-.9846-.8073-1.302-1.414-.3173-.6067-.476-1.2973-.476-2.072zm6.496.014c0-.5787-.1166-1.0827-.35-1.512-.2333-.4293-.5506-.756-.952-.98-.392-.2333-.826-.35-1.302-.35-.476 0-.91.112-1.302.336-.392.224-.7046.5507-.938.98-.2333.4293-.35.9333-.35 1.512 0 .588.1167 1.1013.35 1.54.2334.4293.546.7607.938.994.392.224.826.336 1.302.336.476 0 .91-.112 1.302-.336.4014-.2333.7187-.5647.952-.994.2334-.4387.35-.9473.35-1.526zm4.715-6.51V35h-1.274V24.64h1.274zm7.4913 4.69v1.078h-5.586V29.33h5.586zm3.9449-.952V32.9c0 .3733.0793.6393.238.798.1587.1493.434.224.826.224h.938V35h-1.148c-.7093 0-1.2413-.1633-1.596-.49s-.532-.8633-.532-1.61v-4.522h-.994v-1.05h.994v-1.932h1.274v1.932h2.002v1.05h-2.002zm4.2036-2.296c-.2426 0-.448-.084-.616-.252-.168-.168-.252-.3733-.252-.616 0-.2427.084-.448.252-.616.168-.168.3734-.252.616-.252.2334 0 .4294.084.588.252.168.168.252.3733.252.616 0 .2427-.084.448-.252.616-.1586.168-.3546.252-.588.252zm.616 1.246V35h-1.274v-7.672h1.274zm11.3973-.14c.5974 0 1.1294.126 1.596.378.4667.2427.8354.6113 1.106 1.106.2707.4947.406 1.0967.406 1.806V35h-1.26v-4.34c0-.7653-.1913-1.3487-.574-1.75-.3733-.4107-.882-.616-1.526-.616-.6626 0-1.19.2147-1.582.644-.392.42-.588 1.0313-.588 1.834V35h-1.26v-4.34c0-.7653-.1913-1.3487-.574-1.75-.3733-.4107-.882-.616-1.526-.616-.6626 0-1.19.2147-1.582.644-.392.42-.588 1.0313-.588 1.834V35h-1.274v-7.672h1.274v1.106c.252-.4013.588-.7093 1.008-.924.4294-.2147.9007-.322 1.414-.322.644 0 1.2134.1447 1.708.434.4947.2893.8634.714 1.106 1.274.2147-.5413.5694-.9613 1.064-1.26.4947-.2987 1.0454-.448 1.652-.448zm12.1979 3.682c0 .2427-.014.4993-.042.77h-6.132c.0466.756.3033 1.3487.77 1.778.476.42 1.05.63 1.722.63.5506 0 1.008-.126 1.372-.378.3733-.2613.6346-.6067.784-1.036h1.372c-.2054.7373-.616 1.3393-1.232 1.806-.616.4573-1.3814.686-2.296.686-.728 0-1.3814-.1633-1.96-.49-.5694-.3267-1.0174-.7887-1.344-1.386-.3267-.6067-.49-1.3067-.49-2.1 0-.7933.1586-1.4887.476-2.086.3173-.5973.7606-1.0547 1.33-1.372.5786-.3267 1.2413-.49 1.988-.49.728 0 1.372.1587 1.932.476.56.3173.9893.756 1.288 1.316.308.5507.462 1.176.462 1.876zm-1.316-.266c0-.4853-.1074-.9007-.322-1.246-.2147-.3547-.5087-.6207-.882-.798-.364-.1867-.77-.28-1.218-.28-.644 0-1.1947.2053-1.652.616-.448.4107-.7047.98-.77 1.708h4.844zm8.284-2.226V32.9c0 .3733.0794.6393.238.798.1587.1493.434.224.826.224h.938V35h-1.148c-.7093 0-1.2413-.1633-1.596-.49-.3546-.3267-.532-.8633-.532-1.61v-4.522h-.994v-1.05h.994v-1.932h1.274v1.932h2.002v1.05h-2.002zm4.8196.196c.224-.4387.5414-.7793.952-1.022.42-.2427.9287-.364 1.526-.364v1.316h-.336c-1.428 0-2.142.7747-2.142 2.324V35h-1.274v-7.672h1.274v1.246zm3.4727 2.562c0-.784.1587-1.47.476-2.058.3173-.5973.7513-1.0593 1.302-1.386.56-.3267 1.1805-.49 1.8615-.49.672 0 1.256.1447 1.75.434.495.2893.864.6533 1.106 1.092v-1.4h1.288V35h-1.288v-1.428c-.252.448-.63.8213-1.134 1.12-.494.2893-1.073.434-1.736.434-.681 0-1.2968-.168-1.8475-.504-.5507-.336-.9847-.8073-1.302-1.414-.3173-.6067-.476-1.2973-.476-2.072zm6.4955.014c0-.5787-.116-1.0827-.35-1.512-.233-.4293-.55-.756-.952-.98-.392-.2333-.826-.35-1.302-.35-.476 0-.91.112-1.3015.336-.392.224-.7047.5507-.938.98-.2333.4293-.35.9333-.35 1.512 0 .588.1167 1.1013.35 1.54.2333.4293.546.7607.938.994.3915.224.8255.336 1.3015.336.476 0 .91-.112 1.302-.336.402-.2333.719-.5647.952-.994.234-.4387.35-.9473.35-1.526zm2.965-.014c0-.784.159-1.47.476-2.058.318-.5973.752-1.0593 1.302-1.386.56-.3267 1.186-.49 1.876-.49.598 0 1.153.14 1.666.42.514.2707.906.63 1.176 1.078v-4.06h1.288V35h-1.288v-1.442c-.252.4573-.625.8353-1.12 1.134-.494.2893-1.073.434-1.736.434-.681 0-1.302-.168-1.862-.504-.55-.336-.984-.8073-1.302-1.414-.317-.6067-.476-1.2973-.476-2.072zm6.496.014c0-.5787-.116-1.0827-.35-1.512-.233-.4293-.55-.756-.952-.98-.392-.2333-.826-.35-1.302-.35-.476 0-.91.112-1.302.336-.392.224-.704.5507-.938.98-.233.4293-.35.9333-.35 1.512 0 .588.117 1.1013.35 1.54.234.4293.546.7607.938.994.392.224.826.336 1.302.336.476 0 .91-.112 1.302-.336.402-.2333.719-.5647.952-.994.234-.4387.35-.9473.35-1.526zm10.441-.28c0 .2427-.014.4993-.042.77h-6.132c.047.756.304 1.3487.77 1.778.476.42 1.05.63 1.722.63.551 0 1.008-.126 1.372-.378.374-.2613.635-.6067.784-1.036h1.372c-.205.7373-.616 1.3393-1.232 1.806-.616.4573-1.381.686-2.296.686-.728 0-1.381-.1633-1.96-.49-.569-.3267-1.017-.7887-1.344-1.386-.326-.6067-.49-1.3067-.49-2.1 0-.7933.159-1.4887.476-2.086.318-.5973.761-1.0547 1.33-1.372.579-.3267 1.242-.49 1.988-.49.728 0 1.372.1587 1.932.476.56.3173.99.756 1.288 1.316.308.5507.462 1.176.462 1.876zm-1.316-.266c0-.4853-.107-.9007-.322-1.246-.214-.3547-.508-.6207-.882-.798-.364-.1867-.77-.28-1.218-.28-.644 0-1.194.2053-1.652.616-.448.4107-.704.98-.77 1.708h4.844zm13.73.266c0 .2427-.014.4993-.042.77h-6.132c.047.756.304 1.3487.77 1.778.476.42 1.05.63 1.722.63.551 0 1.008-.126 1.372-.378.374-.2613.635-.6067.784-1.036h1.372c-.205.7373-.616 1.3393-1.232 1.806-.616.4573-1.381.686-2.296.686-.728 0-1.381-.1633-1.96-.49-.569-.3267-1.017-.7887-1.344-1.386-.326-.6067-.49-1.3067-.49-2.1 0-.7933.159-1.4887.476-2.086.318-.5973.761-1.0547 1.33-1.372.579-.3267 1.242-.49 1.988-.49.728 0 1.372.1587 1.932.476.56.3173.99.756 1.288 1.316.308.5507.462 1.176.462 1.876zm-1.316-.266c0-.4853-.107-.9007-.322-1.246-.214-.3547-.508-.6207-.882-.798-.364-.1867-.77-.28-1.218-.28-.644 0-1.194.2053-1.652.616-.448.4107-.704.98-.77 1.708h4.844zM141.704 35l-1.82-2.856-1.75 2.856h-1.33l2.478-3.808-2.478-3.864h1.442l1.82 2.842 1.736-2.842h1.33l-2.464 3.794L143.146 35h-1.442zm9.695-4.13c0 .2427-.014.4993-.042.77h-6.132c.047.756.304 1.3487.77 1.778.476.42 1.05.63 1.722.63.551 0 1.008-.126 1.372-.378.374-.2613.635-.6067.784-1.036h1.372c-.205.7373-.616 1.3393-1.232 1.806-.616.4573-1.381.686-2.296.686-.728 0-1.381-.1633-1.96-.49-.569-.3267-1.017-.7887-1.344-1.386-.326-.6067-.49-1.3067-.49-2.1 0-.7933.159-1.4887.476-2.086.318-.5973.761-1.0547 1.33-1.372.579-.3267 1.242-.49 1.988-.49.728 0 1.372.1587 1.932.476.56.3173.99.756 1.288 1.316.308.5507.462 1.176.462 1.876zm-1.316-.266c0-.4853-.107-.9007-.322-1.246-.214-.3547-.508-.6207-.882-.798-.364-.1867-.77-.28-1.218-.28-.644 0-1.194.2053-1.652.616-.448.4107-.704.98-.77 1.708h4.844zm2.522.546c0-.7933.159-1.484.476-2.072.317-.5973.756-1.0593 1.316-1.386.569-.3267 1.218-.49 1.946-.49.943 0 1.717.2287 2.324.686.616.4573 1.022 1.092 1.218 1.904h-1.372c-.131-.4667-.387-.8353-.77-1.106-.373-.2707-.84-.406-1.4-.406-.728 0-1.316.252-1.764.756-.448.4947-.672 1.1993-.672 2.114 0 .924.224 1.638.672 2.142.448.504 1.036.756 1.764.756.56 0 1.027-.1307 1.4-.392s.63-.6347.77-1.12h1.372c-.205.784-.616 1.414-1.232 1.89-.616.4667-1.386.7-2.31.7-.728 0-1.377-.1633-1.946-.49-.56-.3267-.999-.7887-1.316-1.386-.317-.5973-.476-1.2973-.476-2.1zm15.784-3.822V35h-1.274v-1.134c-.243.392-.583.7-1.022.924-.429.2147-.905.322-1.428.322-.597 0-1.134-.1213-1.61-.364-.476-.252-.854-.6253-1.134-1.12-.271-.4947-.406-1.0967-.406-1.806v-4.494h1.26v4.326c0 .756.191 1.3393.574 1.75.383.4013.905.602 1.568.602.681 0 1.218-.21 1.61-.63.392-.42.588-1.0313.588-1.834v-4.214h1.274zm3.705 1.05V32.9c0 .3733.079.6393.238.798.159.1493.434.224.826.224h.938V35h-1.148c-.709 0-1.241-.1633-1.596-.49s-.532-.8633-.532-1.61v-4.522h-.994v-1.05h.994v-1.932h1.274v1.932h2.002v1.05h-2.002zm4.204-2.296c-.243 0-.448-.084-.616-.252-.168-.168-.252-.3733-.252-.616 0-.2427.084-.448.252-.616.168-.168.373-.252.616-.252.233 0 .429.084.588.252.168.168.252.3733.252.616 0 .2427-.084.448-.252.616-.159.168-.355.252-.588.252zm.616 1.246V35h-1.274v-7.672h1.274zm5.517 7.798c-.719 0-1.372-.1633-1.96-.49-.579-.3267-1.036-.7887-1.372-1.386-.327-.6067-.49-1.3067-.49-2.1 0-.784.168-1.4747.504-2.072.345-.6067.812-1.0687 1.4-1.386.588-.3267 1.246-.49 1.974-.49s1.386.1633 1.974.49c.588.3173 1.05.7747 1.386 1.372.345.5973.518 1.2927.518 2.086 0 .7933-.177 1.4933-.532 2.1-.345.5973-.817 1.0593-1.414 1.386s-1.26.49-1.988.49zm0-1.12c.457 0 .887-.1073 1.288-.322s.723-.5367.966-.966c.252-.4293.378-.952.378-1.568 0-.616-.121-1.1387-.364-1.568s-.56-.7467-.952-.952c-.392-.2147-.817-.322-1.274-.322-.467 0-.896.1073-1.288.322-.383.2053-.691.5227-.924.952-.233.4293-.35.952-.35 1.568 0 .6253.112 1.1527.336 1.582.233.4293.541.7513.924.966.383.2053.803.308 1.26.308zm9.347-6.818c.933 0 1.689.2847 2.268.854.579.56.868 1.372.868 2.436V35h-1.26v-4.34c0-.7653-.191-1.3487-.574-1.75-.383-.4107-.905-.616-1.568-.616-.672 0-1.209.21-1.61.63-.392.42-.588 1.0313-.588 1.834V35h-1.274v-7.672h1.274v1.092c.252-.392.593-.6953 1.022-.91.439-.2147.919-.322 1.442-.322z" fill="#fff"/></svg>