<svg width="63" height="63" viewBox="0 0 63 63" fill="none" xmlns="http://www.w3.org/2000/svg"><circle cx="31.4302" cy="31.4302" r="31.4302" fill="#fff"/><path d="M16.6456 26.5936c.0602.5845.5533 1.0307 1.1423 1.0285h.1205l7.8982-.8054h.1494l.1205-.0335.0803-.029.1205-.0625.0625-.0335-.0022-.0022c.1205-.0803.2231-.1829.3034-.3034l.0402-.0625c.0245-.0379.0446-.0781.0624-.1205l.029-.0803v.0022c.0134-.0379.0246-.0758.0335-.116V25.8327l.8166-7.9495c.0647-.6315-.3927-1.196-1.0241-1.2606-.6314-.0647-1.1959.3949-1.2606 1.0263l-.5711 5.5065-10.2811-10.2811c-.4462-.4462-1.1691-.4462-1.6153 0-.4462.4462-.4463 1.1691 0 1.6153l10.281 10.2811-5.5064.5712c-.618.0758-1.062.6314-.9995 1.2516v.0001zM36.2596 46.2076h.1205c.589.0022 1.0843-.4418 1.1424-1.0286l.5711-5.5064 10.2811 10.281c.4462.4463 1.1691.4463 1.6153 0 .4462-.4462.4463-1.1691 0-1.6153L39.709 38.0572l5.5064-.5711c.6314-.0647 1.091-.6292 1.0263-1.2606-.0647-.6314-.6292-1.0888-1.2605-1.0241l-7.9096.8322h-.1495l-.1205.0335-.0803.029-.1205.0624-.0625.0335.0023.0022c-.1205.0804-.2231.183-.3035.3035l-.0401.0624c-.0223.038-.0447.0781-.0625.1205l-.029.0803c-.0134.0357-.0245.0737-.0335.1138V37.0175l-.8277 7.9382c-.0647.6269.3904 1.1847 1.0151 1.2516l.0002.0003zM24.2135 39.7818c.3035-.0022.5935-.1227.8055-.3369l14.4398-14.4398c.4462-.4462.4462-1.1691 0-1.6153-.4463-.4462-1.1714-.4462-1.6176 0L23.4077 37.8342c-.3235.3257-.4217.8166-.2454 1.2405.1762.4261.5913.705 1.0508.7073l.0004-.0002z" fill="#00CF80"/></svg>