<svg width="186" height="13" viewBox="0 0 186 13" fill="none" xmlns="http://www.w3.org/2000/svg"><path opacity=".5" d="M17.6209 3.4v.528h1.72V9h.56V3.928h1.72V3.4h-4zM22.3068 5h-.528v4h.528V6.776c0-.92.536-1.328 1.2639-1.328v-.512c-.5999 0-1.0159.24-1.2639.728V5zm5.1854.784c-.368-.584-.904-.88-1.616-.88-.568 0-1.056.2-1.464.608-.4.408-.6.904-.6 1.488s.2 1.08.6 1.488c.408.408.896.608 1.464.608.712 0 1.248-.296 1.616-.88V9h.528V5h-.528v.784zm-2.696 2.344c-.304-.312-.456-.688-.456-1.128 0-.44.152-.816.456-1.12.304-.312.68-.464 1.12-.464.44 0 .816.152 1.12.464.304.304.456.68.456 1.12 0 .44-.152.816-.456 1.128-.304.304-.68.456-1.12.456-.44 0-.816-.152-1.12-.456zm7.7819-2.344c-.368-.584-.904-.88-1.616-.88-.568 0-1.056.2-1.464.608-.4.408-.6.904-.6 1.488s.2 1.08.6 1.488c.408.408.896.608 1.464.608.712 0 1.248-.296 1.616-.88V9h.528V3.4h-.528v2.384zm-2.696 2.344c-.304-.312-.456-.688-.456-1.128 0-.44.152-.816.456-1.12.304-.312.68-.464 1.12-.464.44 0 .816.152 1.12.464.304.304.456.68.456 1.12 0 .44-.152.816-.456 1.128-.304.304-.68.456-1.12.456-.44 0-.816-.152-1.12-.456zm4.878-4.088c.152-.152.152-.392 0-.544-.152-.152-.392-.152-.544 0-.152.152-.152.392 0 .544.152.152.392.152.544 0zM34.7521 9V5h-.528v4h.528zm2.9924-4.096c-.6 0-1.048.24-1.344.72V5h-.528v4h.528V6.904c0-1.016.528-1.488 1.296-1.488.696 0 1.088.416 1.088 1.128V9h.528V6.544c0-1-.6-1.64-1.568-1.64zm6.0289.88c-.368-.584-.904-.88-1.616-.88-.568 0-1.056.2-1.464.608-.4.408-.6.904-.6 1.488s.2 1.08.6 1.488c.408.408.896.608 1.464.608.712 0 1.248-.296 1.616-.88v.624c0 .824-.56 1.344-1.48 1.344-.712 0-1.192-.24-1.432-.728l-.464.264c.328.648.96.976 1.896.976.552 0 1.024-.168 1.416-.496.392-.328.592-.784.592-1.36V5h-.528v.784zm-2.696 2.344c-.304-.312-.456-.688-.456-1.128 0-.44.152-.816.456-1.12.304-.312.68-.464 1.12-.464.44 0 .816.152 1.12.464.304.304.456.68.456 1.12 0 .44-.152.816-.456 1.128-.304.304-.68.456-1.12.456-.44 0-.816-.152-1.12-.456zm9.694.368c.408-.408.616-.904.616-1.496s-.208-1.088-.616-1.488c-.408-.408-.904-.608-1.488-.608s-1.088.2-1.496.608c-.408.4-.608.896-.608 1.488s.2 1.088.608 1.496c.408.4.912.6 1.496.6s1.08-.2 1.488-.6zm-2.608-.368c-.304-.312-.456-.688-.456-1.128 0-.44.152-.816.456-1.12.304-.312.68-.464 1.12-.464.44 0 .816.152 1.12.464.304.304.456.68.456 1.12 0 .44-.152.816-.456 1.128-.304.304-.68.456-1.12.456-.44 0-.816-.152-1.12-.456zm5.9795-3.224c-.6 0-1.048.24-1.344.72V5h-.528v4h.528V6.904c0-1.016.528-1.488 1.296-1.488.696 0 1.088.416 1.088 1.128V9h.528V6.544c0-1-.6-1.64-1.568-1.64zm8.853 0c-.576 0-1.008.24-1.296.728-.232-.488-.64-.728-1.216-.728-.528 0-.936.224-1.224.68V5h-.528v4h.528V6.784c0-.928.512-1.368 1.152-1.368.576 0 .936.384.936 1.088V9h.528V6.784c0-.936.448-1.368 1.112-1.368.584 0 .976.392.976 1.088V9h.528V6.504c0-.984-.6-1.6-1.496-1.6zm5.9572.88c-.368-.584-.904-.88-1.616-.88-.568 0-1.056.2-1.464.608-.4.408-.6.904-.6 1.488s.2 1.08.6 1.488c.408.408.896.608 1.464.608.712 0 1.248-.296 1.616-.88V9h.528V5h-.528v.784zm-2.696 2.344c-.304-.312-.456-.688-.456-1.128 0-.44.152-.816.456-1.12.304-.312.68-.464 1.12-.464.44 0 .816.152 1.12.464.304.304.456.68.456 1.12 0 .44-.152.816-.456 1.128-.304.304-.68.456-1.12.456-.44 0-.816-.152-1.12-.456zM71.1271 5h-.528v4h.528V6.776c0-.92.536-1.328 1.264-1.328v-.512c-.6 0-1.016.24-1.264.728V5zm5.1854.784c-.368-.584-.904-.88-1.616-.88-.568 0-1.056.2-1.464.608-.4.408-.6.904-.6 1.488s.2 1.08.6 1.488c.408.408.896.608 1.464.608.712 0 1.248-.296 1.616-.88v.624c0 .824-.56 1.344-1.48 1.344-.712 0-1.192-.24-1.432-.728l-.464.264c.328.648.96.976 1.896.976.552 0 1.024-.168 1.416-.496.392-.328.592-.784.592-1.36V5h-.528v.784zm-2.696 2.344c-.304-.312-.456-.688-.456-1.128 0-.44.152-.816.456-1.12.304-.312.68-.464 1.12-.464.44 0 .816.152 1.12.464.304.304.456.68.456 1.12 0 .44-.152.816-.456 1.128-.304.304-.68.456-1.12.456-.44 0-.816-.152-1.12-.456zm4.8779-4.088c.152-.152.152-.392 0-.544-.152-.152-.392-.152-.544 0-.152.152-.152.392 0 .544.152.152.392.152.544 0zM78.4864 9V5h-.528v4h.528zm2.9925-4.096c-.6 0-1.048.24-1.344.72V5h-.528v4h.528V6.904c0-1.016.528-1.488 1.296-1.488.696 0 1.088.416 1.088 1.128V9h.528V6.544c0-1-.6-1.64-1.568-1.64zm5.1249-.864c.152-.152.152-.392 0-.544-.152-.152-.392-.152-.544 0-.152.152-.152.392 0 .544.152.152.392.152.544 0zM86.5958 9V5h-.528v4h.528zm1.5365-2.952c0-.408.384-.632.84-.632.488 0 .808.184.96.56l.44-.256c-.232-.504-.752-.816-1.4-.816-.392 0-.72.112-.984.328-.256.216-.384.488-.384.816 0 .864.84 1.048 1.512 1.216.456.12.824.32.824.68 0 .44-.4.64-.92.64-.536 0-.944-.256-1.096-.672l-.448.264c.216.544.776.92 1.544.92.424 0 .776-.104 1.04-.32.272-.216.408-.488.408-.832 0-.864-.84-1.048-1.512-1.216-.456-.12-.824-.32-.824-.68zm7.0888-1.144c-.6 0-1.048.24-1.344.72V3.4h-.528V9h.528V6.904c0-1.016.528-1.488 1.296-1.488.696 0 1.088.416 1.088 1.128V9h.528V6.544c0-1-.6-1.64-1.568-1.64zm3.1249-.864c.152-.152.152-.392 0-.544-.152-.152-.392-.152-.544 0-.152.152-.152.392 0 .544.152.152.392.152.544 0zM98.338 9V5h-.528v4h.528zm4.56-3.216c-.368-.584-.904-.88-1.616-.88-.568 0-1.056.2-1.4636.608-.4.408-.6.904-.6 1.488s.2 1.08.6 1.488c.4076.408.8956.608 1.4636.608.712 0 1.248-.296 1.616-.88v.624c0 .824-.56 1.344-1.48 1.344-.712 0-1.192-.24-1.4316-.728l-.464.264c.328.648.9596.976 1.8956.976.552 0 1.024-.168 1.416-.496.392-.328.592-.784.592-1.36V5h-.528v.784zm-2.696 2.344c-.3036-.312-.4556-.688-.4556-1.128 0-.44.152-.816.4556-1.12.304-.312.68-.464 1.12-.464.44 0 .816.152 1.12.464.304.304.456.68.456 1.12 0 .44-.152.816-.456 1.128-.304.304-.68.456-1.12.456-.44 0-.816-.152-1.12-.456zm6.214-3.224c-.6 0-1.048.24-1.344.72V3.4h-.528V9h.528V6.904c0-1.016.528-1.488 1.296-1.488.696 0 1.088.416 1.088 1.128V9h.528V6.544c0-1-.6-1.64-1.568-1.64zm5.117.096h-.528v4h.528V6.776c0-.92.536-1.328 1.264-1.328v-.512c-.6 0-1.016.24-1.264.728V5zm2.524-.96c.152-.152.152-.392 0-.544-.152-.152-.392-.152-.544 0-.152.152-.152.392 0 .544.152.152.392.152.544 0zM114.049 9V5h-.528v4h.528zm1.536-2.952c0-.408.384-.632.84-.632.488 0 .808.184.96.56l.44-.256c-.232-.504-.752-.816-1.4-.816-.392 0-.72.112-.984.328-.256.216-.384.488-.384.816 0 .864.84 1.048 1.512 1.216.456.12.824.32.824.68 0 .44-.4.64-.92.64-.536 0-.944-.256-1.096-.672l-.448.264c.216.544.776.92 1.544.92.424 0 .776-.104 1.04-.32.272-.216.408-.488.408-.832 0-.864-.84-1.048-1.512-1.216-.456-.12-.824-.32-.824-.68zm4.266.872L121.915 5h-.72l-1.904 1.768V3.4h-.528V9h.528V7.072l2 1.928h.704l-2.144-2.08zm3.537 2.032c.168-.168.168-.456 0-.624-.168-.168-.456-.168-.624 0-.168.168-.168.456 0 .624.168.168.456.168.624 0zM130.96 9l-2.152-5.6h-.576L126.08 9h.592l.52-1.376h2.656l.52 1.376h.592zm-2.44-4.904l1.128 3h-2.256l1.128-3zm6.319-.696h-3.16V9h.56V6.52h2.48v-.528h-2.48V3.928h2.6V3.4zm2.639 5.696c.568 0 1.024-.144 1.368-.424.344-.288.52-.672.52-1.144 0-.288-.096-.552-.2-.72-.096-.184-.376-.376-.536-.472-.08-.056-.208-.112-.376-.176-.168-.072-.296-.12-.384-.144l-.432-.152c-.44-.144-.76-.288-.952-.424-.192-.136-.288-.344-.288-.624 0-.608.464-.968 1.16-.968.664 0 1.12.312 1.376.928l.472-.264c-.312-.704-.976-1.208-1.848-1.208-.488 0-.896.136-1.224.416-.328.272-.496.648-.496 1.12 0 .488.216.856.64 1.112.184.12.568.272 1.152.464.488.16.84.312 1.056.464.216.152.32.368.32.664 0 .608-.488 1.008-1.32 1.008-.856 0-1.408-.408-1.608-1.104l-.48.28c.288.856 1.056 1.368 2.08 1.368zm3.37-5.696h-.56V9h3.12v-.528h-2.56V3.4zm8.402.528V3.4h-3.28v.528h2.632l-1.392 1.904.24.368h.152l.008-.008V6.2c.768 0 1.32.432 1.32 1.176s-.552 1.176-1.32 1.176c-.664 0-1.152-.288-1.336-.84l-.464.272c.264.712.968 1.112 1.8 1.112.52 0 .968-.152 1.328-.456.368-.312.552-.728.552-1.264 0-.472-.144-.848-.44-1.128-.288-.288-.656-.464-1.104-.52l1.304-1.8zm4.406 1.224c0-.544-.176-.984-.528-1.328-.352-.344-.8-.52-1.352-.52s-1 .176-1.352.52c-.352.344-.528.784-.528 1.328s.176.992.528 1.336c.352.344.8.512 1.352.512.152 0 .304-.016.448-.048L150.848 9h.632l1.832-2.728c.232-.328.344-.696.344-1.12zm-2.84-.944c.248-.24.568-.36.96-.36s.712.12.952.36c.248.24.368.552.368.944 0 .392-.12.704-.368.944-.24.24-.56.36-.952.36-.392 0-.712-.12-.96-.36-.24-.24-.36-.552-.36-.944 0-.392.12-.704.36-.944zm3.202-.296l.144.48 1.256-.376V9h.56V3.4h-.48l-1.48.512zm6.319 3.44V5.64h-.56v1.712h-2.344l2.08-3.952h-.616l-2.08 3.952v.528h2.96V9h.56V7.88h.72v-.528h-.72zm4.719 0V5.64h-.56v1.712h-2.344l2.08-3.952h-.616l-2.08 3.952v.528h2.96V9h.56V7.88h.72v-.528h-.72zm.884-3.44l.144.48 1.256-.376V9h.56V3.4h-.48l-1.48.512z" fill="#fff"/></svg>