<svg width="149" height="29" viewBox="0 0 149 29" fill="none" xmlns="http://www.w3.org/2000/svg"><rect width="149" height="29" rx="14.5" fill="#fff"/><path d="M19.6284 18.156c.768 0 1.476-.18 2.112-.54.648-.372 1.152-.864 1.5-1.476l-1.2-.684c-.432.828-1.356 1.356-2.412 1.356-.9 0-1.62-.288-2.184-.852-.552-.564-.828-1.284-.828-2.16 0-.876.276-1.596.828-2.16.564-.564 1.284-.852 2.184-.852 1.056 0 1.968.528 2.412 1.356l1.2-.696c-.72-1.236-2.088-2.004-3.612-2.004-1.26 0-2.316.42-3.144 1.26-.828.828-1.248 1.86-1.248 3.096s.42 2.268 1.248 3.108c.828.828 1.884 1.248 3.144 1.248zM25.6575 12h-1.296v6h1.296v-3.024c0-.612.18-1.056.552-1.32.372-.276.804-.396 1.296-.36v-1.404c-.9 0-1.524.372-1.848 1.116V12zm8.3203 3.552c.036-.228.048-.408.048-.54 0-.876-.288-1.632-.852-2.244-.564-.612-1.284-.924-2.16-.924-.924 0-1.692.3-2.28.912-.588.6-.888 1.344-.888 2.244 0 .912.3 1.668.9 2.268.6.588 1.392.888 2.364.888 1.164 0 2.04-.432 2.628-1.308l-1.068-.624c-.348.492-.864.744-1.548.744-.996 0-1.728-.504-1.92-1.416h4.776zm-4.788-1.056c.18-.912.852-1.476 1.812-1.476.852 0 1.536.504 1.716 1.476h-3.528zm10.6932-1.644c-.492-.672-1.188-1.008-2.1-1.008-.828 0-1.524.3-2.112.912-.588.612-.876 1.356-.876 2.244 0 .876.288 1.632.876 2.244.588.612 1.284.912 2.112.912.912 0 1.608-.336 2.1-1.02V18h1.296v-6h-1.296v.852zm-3.252 3.528c-.36-.372-.54-.828-.54-1.38 0-.552.18-1.008.54-1.368.36-.372.816-.552 1.356-.552.54 0 .996.18 1.356.552.36.36.54.816.54 1.368 0 .552-.18 1.008-.54 1.38-.36.36-.816.54-1.356.54-.54 0-.996-.18-1.356-.54zM46.0376 12h-1.488v-1.68l-1.296.384V12h-1.104v1.248h1.104v2.88c0 1.572.804 2.112 2.784 1.872v-1.164c-.984.048-1.488.06-1.488-.708v-2.88h1.488V12zm6.7253 3.552c.036-.228.048-.408.048-.54 0-.876-.288-1.632-.852-2.244-.564-.612-1.284-.924-2.16-.924-.924 0-1.692.3-2.28.912-.588.6-.888 1.344-.888 2.244 0 .912.3 1.668.9 2.268.6.588 1.392.888 2.364.888 1.164 0 2.04-.432 2.628-1.308l-1.068-.624c-.348.492-.864.744-1.548.744-.996 0-1.728-.504-1.92-1.416h4.776zm-4.788-1.056c.18-.912.852-1.476 1.812-1.476.852 0 1.536.504 1.716 1.476h-3.528zm13.7284-1.644c-.492-.672-1.188-1.008-2.1-1.008-.828 0-1.524.3-2.112.912-.588.612-.876 1.356-.876 2.244 0 .876.288 1.632.876 2.244.588.612 1.284.912 2.112.912.912 0 1.608-.336 2.1-1.02V18h1.296v-6h-1.296v.852zm-3.252 3.528c-.36-.372-.54-.828-.54-1.38 0-.552.18-1.008.54-1.368.36-.372.816-.552 1.356-.552.54 0 .996.18 1.356.552.36.36.54.816.54 1.368 0 .552-.18 1.008-.54 1.38-.36.36-.816.54-1.356.54-.54 0-.996-.18-1.356-.54zM68.8059 18V9.24h-1.296V18h1.296zm2.7288-7.14c.336-.336.336-.84.012-1.164-.324-.336-.852-.336-1.176 0-.324.324-.324.828 0 1.164.336.324.84.324 1.164 0zm.072 7.14v-6h-1.296v6h1.296zm3.9048-1.44l-1.68-4.56h-1.416l2.34 6h1.5l2.34-6h-1.416l-1.668 4.56zm9.4663-1.008c.036-.228.048-.408.048-.54 0-.876-.288-1.632-.852-2.244-.564-.612-1.284-.924-2.16-.924-.924 0-1.692.3-2.28.912-.588.6-.888 1.344-.888 2.244 0 .912.3 1.668.9 2.268.6.588 1.392.888 2.364.888 1.164 0 2.04-.432 2.628-1.308l-1.068-.624c-.348.492-.864.744-1.548.744-.996 0-1.728-.504-1.92-1.416h4.776zm-4.788-1.056c.18-.912.852-1.476 1.812-1.476.852 0 1.536.504 1.716 1.476h-3.528zm13.7284-1.644c-.492-.672-1.188-1.008-2.1-1.008-.828 0-1.524.3-2.112.912-.588.612-.876 1.356-.876 2.244 0 .876.288 1.632.876 2.244.588.612 1.284.912 2.112.912.912 0 1.608-.336 2.1-1.02V18h1.296v-6h-1.296v.852zm-3.252 3.528c-.36-.372-.54-.828-.54-1.38 0-.552.18-1.008.54-1.368.36-.372.816-.552 1.356-.552.54 0 .996.18 1.356.552.36.36.54.816.54 1.368 0 .552-.18 1.008-.54 1.38-.36.36-.816.54-1.356.54-.54 0-.996-.18-1.356-.54zm8.8906 1.776c1.1642 0 2.1842-.6 2.7002-1.56l-1.116-.636c-.288.564-.888.924-1.5962.924-.528 0-.972-.18-1.332-.54-.348-.36-.528-.804-.528-1.344s.18-.984.528-1.344c.36-.36.804-.54 1.332-.54.7202 0 1.2962.348 1.5722.924l1.116-.648c-.48-.948-1.512-1.548-2.6762-1.548-.9 0-1.656.3-2.268.912-.6.6-.9 1.344-.9 2.244 0 .888.3 1.632.9 2.244.612.612 1.368.912 2.268.912zm6.3752 0c1.164 0 2.184-.6 2.7-1.56l-1.116-.636c-.288.564-.888.924-1.596.924-.528 0-.972-.18-1.332-.54-.348-.36-.528-.804-.528-1.344s.18-.984.528-1.344c.36-.36.804-.54 1.332-.54.72 0 1.296.348 1.572.924l1.116-.648c-.48-.948-1.512-1.548-2.676-1.548-.9 0-1.656.3-2.268.912-.6.6-.9 1.344-.9 2.244 0 .888.3 1.632.9 2.244.612.612 1.368.912 2.268.912zm6.375 0c.888 0 1.632-.3 2.244-.912.612-.612.924-1.356.924-2.244 0-.888-.312-1.632-.924-2.244-.612-.612-1.356-.912-2.244-.912-.876 0-1.632.3-2.244.912-.612.612-.924 1.356-.924 2.244 0 .888.312 1.632.924 2.244.612.612 1.368.912 2.244.912zm-1.332-1.8c-.36-.36-.54-.816-.54-1.356 0-.54.18-.996.54-1.356.36-.36.804-.54 1.332-.54s.972.18 1.332.54c.36.36.54.816.54 1.356 0 .54-.18.996-.54 1.356-.36.36-.804.54-1.332.54s-.972-.18-1.332-.54zm9.716-1.14c0 1.164-.612 1.728-1.524 1.728-.828 0-1.344-.492-1.344-1.392V12h-1.296v3.684c0 1.536.924 2.472 2.304 2.472.852 0 1.464-.312 1.86-.924V18h1.296v-6h-1.296v3.216zm5.967-3.372c-.852 0-1.464.312-1.86.924V12h-1.296v6h1.296v-3.216c0-1.164.612-1.728 1.524-1.728.828 0 1.344.492 1.344 1.392V18h1.296v-3.684c0-1.536-.924-2.472-2.304-2.472zm7.048.156h-1.488v-1.68l-1.296.384V12h-1.104v1.248h1.104v2.88c0 1.572.804 2.112 2.784 1.872v-1.164c-.984.048-1.488.06-1.488-.708v-2.88h1.488V12z" fill="#3949A7"/></svg>