<svg width="30" height="31" viewBox="0 0 30 31" fill="none" xmlns="http://www.w3.org/2000/svg"><circle cx="14.7312" cy="15.5925" r="14.6676" fill="#fff"/><path d="M17.566 10.2144c-.2478 0-.4486.2007-.4486.4485v2.299c0 .2478.2008.4485.4486.4485s.4485-.2007.4485-.4485v-1.8311c2.5845.2277 4.6187 2.4047 4.6187 5.0479 0 2.7946-2.2735 5.0673-5.0673 5.0673-2.7939.0008-5.0674-2.2719-5.0674-5.0665 0-1.6127.779-3.1434 2.0828-4.0962.2-.1459.244-.4269.0981-.6268-.1459-.2-.4269-.244-.6269-.0981-1.5347 1.121-2.4509 2.9227-2.4509 4.8211 0 3.2895 2.6756 5.9651 5.9651 5.9651 3.2895 0 5.9651-2.6756 5.9651-5.9651-.0008-3.2895-2.6764-5.9651-5.9659-5.9651h.0001z" fill="#00CF80"/><path d="M14.5604 14.4944c-.1251.2146-.0525.4887.1621.6137l2.5059 1.4598c.071.0417.149.061.2254.061.1544 0 .3049-.0795.3883-.2231.125-.2146.0525-.4887-.1621-.6137l-2.5059-1.4598c-.2146-.1251-.4895-.0525-.6137.1621zM6.62786 13.219H10.778c.2185 0 .3952-.1768.3952-.3953 0-.2185-.1767-.3952-.3952-.3952H6.62786c-.21848 0-.39526.1767-.39526.3952s.17679.3953.39526.3953zM5.83699 15.325h4.15014c.21847 0 .39527-.1768.39527-.3953 0-.2185-.1768-.3952-.39527-.3952H5.83699c-.21847 0-.39525.1767-.39525.3952 0 .2177.17678.3953.39525.3953zM10.3824 17.0349c0-.2185-.1768-.3953-.39527-.3953H5.83699c-.21847 0-.39525.1768-.39525.3953 0 .2185.17678.3953.39525.3953h4.15014c.21767 0 .39527-.1768.39527-.3953zM11.1732 19.1407c0-.2184-.1767-.3952-.3952-.3952H6.62786c-.21848 0-.39526.1768-.39526.3952 0 .2185.17679.3953.39526.3953H10.778c.2177 0 .3952-.1768.3952-.3953z" fill="#00CF80"/></svg>