<svg width="218" height="41" viewBox="0 0 218 41" fill="none" xmlns="http://www.w3.org/2000/svg"><path d="M4.466.599999H1.43V16h8.91v-2.904H4.466V.599999zM22.4099 11.666c.066-.418.11-.792.11-1.166 0-1.65-.528-3.014-1.584-4.136-1.034-1.122-2.376-1.672-3.982-1.672-1.694 0-3.102.55-4.18 1.672-1.078 1.1-1.628 2.486-1.628 4.136 0 1.672.55 3.058 1.65 4.158 1.1 1.1 2.552 1.65 4.378 1.65 2.112 0 3.718-.792 4.796-2.354l-2.288-1.32c-.55.726-1.386 1.1-2.464 1.1-1.694 0-2.728-.682-3.102-2.068h8.294zm-8.338-2.2c.33-1.408 1.364-2.222 2.882-2.222 1.298 0 2.398.726 2.728 2.222h-5.61zM30.4709 5h-2.486V1.92l-2.838.858V5h-1.914v2.728h1.914v4.576c0 3.014 1.43 4.136 5.324 3.696v-2.574c-1.628.088-2.486.066-2.486-1.122V7.728h2.486V5zM33.54.577999L32.66 6.694h2.31L36.62.577999h-3.08zM39.8594 8.124c0-.55.55-.902 1.276-.902.814 0 1.408.374 1.76 1.122l2.42-1.32c-.858-1.496-2.398-2.332-4.18-2.332-1.188 0-2.178.308-2.992.946-.792.616-1.188 1.474-1.188 2.552 0 2.288 2.046 2.97 3.674 3.388 1.122.286 2.002.616 2.002 1.21 0 .638-.506.946-1.518.946-1.122 0-1.826-.484-2.156-1.43l-2.464 1.386c.814 1.738 2.354 2.618 4.62 2.618 1.254 0 2.31-.308 3.146-.902.858-.616 1.276-1.496 1.276-2.618.022-2.354-2.068-3.124-3.674-3.454-1.122-.286-2.002-.616-2.002-1.21zm21.5345-1.76c-.836-1.122-2.002-1.672-3.52-1.672-1.54 0-2.838.55-3.894 1.65-1.056 1.1-1.584 2.42-1.584 3.982 0 1.562.528 2.904 1.562 4.004 1.056 1.078 2.354 1.628 3.916 1.628 1.518 0 2.684-.55 3.52-1.672v1.188c0 1.738-1.1 2.706-2.882 2.706-1.364 0-2.332-.506-2.882-1.54l-2.42 1.386c.968 1.76 2.838 2.684 5.214 2.684 1.584 0 2.926-.44 4.048-1.342 1.122-.902 1.694-2.2 1.694-3.894V5h-2.772v1.364zm0 3.96c0 1.76-1.298 3.014-3.08 3.014s-3.08-1.254-3.08-3.014c0-.858.286-1.584.858-2.134.594-.572 1.32-.858 2.222-.858.902 0 1.628.286 2.2.858.594.55.88 1.276.88 2.134zm13.7055-4.026c-.858-1.078-2.046-1.606-3.586-1.606-1.474 0-2.728.572-3.784 1.694-1.034 1.122-1.562 2.486-1.562 4.114 0 1.628.528 3.014 1.562 4.136 1.056 1.122 2.31 1.672 3.784 1.672 1.54 0 2.728-.528 3.586-1.606V16h2.838V5h-2.838v1.298zm-5.236 6.446c-.572-.594-.858-1.342-.858-2.244 0-.902.286-1.65.858-2.222.572-.594 1.298-.88 2.178-.88.88 0 1.606.286 2.178.88.594.572.88 1.32.88 2.222 0 .902-.286 1.65-.88 2.244-.572.572-1.298.858-2.178.858-.88 0-1.606-.286-2.178-.858zM81.9189 3.68c.968 0 1.76-.792 1.76-1.738 0-.946001-.792-1.760001-1.76-1.760001-.946 0-1.738.814-1.738 1.760001 0 .946.792 1.738 1.738 1.738zm1.43 12.32V5h-2.838v11h2.838zm8.7135-11.308c-1.496 0-2.596.506-3.278 1.54V5h-2.838v11h2.838v-5.94c0-1.826.946-2.728 2.42-2.728 1.32 0 2.178.792 2.178 2.266V16h2.838V9.246c0-1.43-.396-2.53-1.188-3.344-.77-.814-1.76-1.21-2.97-1.21zM110.436 5h-2.486V1.92l-2.838.858V5h-1.914v2.728h1.914v4.576c0 3.014 1.43 4.136 5.324 3.696v-2.574c-1.628.088-2.486.066-2.486-1.122V7.728h2.486V5zm5.011 0h-2.838v11h2.838v-5.258c0-1.056.33-1.804 1.012-2.266.682-.462 1.474-.638 2.332-.528V4.78c-1.496 0-2.816.704-3.344 2.112V5zm12.955 1.298c-.858-1.078-2.046-1.606-3.586-1.606-1.474 0-2.728.572-3.784 1.694-1.034 1.122-1.562 2.486-1.562 4.114 0 1.628.528 3.014 1.562 4.136 1.056 1.122 2.31 1.672 3.784 1.672 1.54 0 2.728-.528 3.586-1.606V16h2.838V5h-2.838v1.298zm-5.236 6.446c-.572-.594-.858-1.342-.858-2.244 0-.902.286-1.65.858-2.222.572-.594 1.298-.88 2.178-.88.88 0 1.606.286 2.178.88.594.572.88 1.32.88 2.222 0 .902-.286 1.65-.88 2.244-.572.572-1.298.858-2.178.858-.88 0-1.606-.286-2.178-.858zm18.986-6.446c-.836-1.078-2.024-1.606-3.564-1.606-1.474 0-2.75.572-3.806 1.694-1.034 1.122-1.562 2.486-1.562 4.114 0 1.628.528 3.014 1.562 4.136 1.056 1.122 2.332 1.672 3.806 1.672 1.54 0 2.728-.528 3.564-1.606V16h2.838V.599999h-2.838V6.298zm-5.236 6.446c-.572-.594-.858-1.342-.858-2.244 0-.902.286-1.65.858-2.222.594-.594 1.32-.88 2.2-.88.88 0 1.606.286 2.178.88.572.572.858 1.32.858 2.222 0 .902-.286 1.65-.858 2.244-.572.572-1.298.858-2.178.858-.88 0-1.606-.286-2.2-.858zm12.077-9.064c.968 0 1.76-.792 1.76-1.738 0-.946001-.792-1.760001-1.76-1.760001-.946 0-1.738.814-1.738 1.760001 0 .946.792 1.738 1.738 1.738zm1.43 12.32V5h-2.838v11h2.838zm8.714-11.308c-1.496 0-2.596.506-3.278 1.54V5h-2.838v11h2.838v-5.94c0-1.826.946-2.728 2.42-2.728 1.32 0 2.178.792 2.178 2.266V16h2.838V9.246c0-1.43-.396-2.53-1.188-3.344-.77-.814-1.76-1.21-2.97-1.21zm15.007 1.672c-.836-1.122-2.002-1.672-3.52-1.672-1.54 0-2.838.55-3.894 1.65-1.056 1.1-1.584 2.42-1.584 3.982 0 1.562.528 2.904 1.562 4.004 1.056 1.078 2.354 1.628 3.916 1.628 1.518 0 2.684-.55 3.52-1.672v1.188c0 1.738-1.1 2.706-2.882 2.706-1.364 0-2.332-.506-2.882-1.54l-2.42 1.386c.968 1.76 2.838 2.684 5.214 2.684 1.584 0 2.926-.44 4.048-1.342 1.122-.902 1.694-2.2 1.694-3.894V5h-2.772v1.364zm0 3.96c0 1.76-1.298 3.014-3.08 3.014s-3.08-1.254-3.08-3.014c0-.858.286-1.584.858-2.134.594-.572 1.32-.858 2.222-.858.902 0 1.628.286 2.2.858.594.55.88 1.276.88 2.134zM13.464 24.692c-1.452 0-2.552.528-3.278 1.584-.638-1.056-1.65-1.584-2.992-1.584-1.386 0-2.398.484-3.058 1.474V25H1.298v11h2.838v-6.182c0-1.606.814-2.486 2.068-2.486 1.166 0 1.848.77 1.848 2.09V36h2.838v-6.182c0-1.606.748-2.486 2.046-2.486 1.166 0 1.848.77 1.848 2.09V36h2.838v-6.776c0-2.75-1.628-4.532-4.158-4.532zm15.9404 9.944c1.122-1.122 1.694-2.508 1.694-4.136 0-1.628-.572-2.992-1.694-4.114-1.122-1.122-2.508-1.694-4.136-1.694-1.628 0-3.014.572-4.136 1.694-1.122 1.122-1.672 2.486-1.672 4.114 0 1.628.55 3.014 1.672 4.136 1.122 1.122 2.508 1.672 4.136 1.672 1.628 0 3.014-.55 4.136-1.672zm-6.27-1.958c-.55-.572-.836-1.298-.836-2.178 0-.88.286-1.606.836-2.178.572-.572 1.276-.858 2.134-.858.858 0 1.562.286 2.134.858.572.572.858 1.298.858 2.178 0 .88-.286 1.606-.858 2.178-.572.572-1.276.858-2.134.858-.858 0-1.562-.286-2.134-.858zm22.1265-7.986c-1.452 0-2.552.528-3.278 1.584-.638-1.056-1.65-1.584-2.992-1.584-1.386 0-2.398.484-3.058 1.474V25h-2.838v11h2.838v-6.182c0-1.606.814-2.486 2.068-2.486 1.166 0 1.848.77 1.848 2.09V36h2.838v-6.182c0-1.606.748-2.486 2.046-2.486 1.166 0 1.848.77 1.848 2.09V36h2.838v-6.776c0-2.75-1.628-4.532-4.158-4.532zm17.2604 6.974c.066-.418.11-.792.11-1.166 0-1.65-.528-3.014-1.584-4.136-1.034-1.122-2.376-1.672-3.982-1.672-1.694 0-3.102.55-4.18 1.672-1.078 1.1-1.6281 2.486-1.6281 4.136 0 1.672.5501 3.058 1.6501 4.158 1.1 1.1 2.552 1.65 4.378 1.65 2.112 0 3.718-.792 4.796-2.354l-2.288-1.32c-.55.726-1.386 1.1-2.464 1.1-1.694 0-2.728-.682-3.102-2.068h8.294zm-8.338-2.2c.33-1.408 1.364-2.222 2.882-2.222 1.298 0 2.398.726 2.728 2.222h-5.61zm16.5452-4.774c-1.496 0-2.596.506-3.278 1.54V25h-2.838v11h2.838v-5.94c0-1.826.946-2.728 2.42-2.728 1.32 0 2.178.792 2.178 2.266V36h2.838v-6.754c0-1.43-.396-2.53-1.188-3.344-.77-.814-1.76-1.21-2.97-1.21zM83.6017 25h-2.486v-3.08l-2.838.858V25h-1.914v2.728h1.914v4.576c0 3.014 1.43 4.136 5.324 3.696v-2.574c-1.628.088-2.486.066-2.486-1.122v-4.576h2.486V25zm9.4329 5.94c0 1.826-.946 2.728-2.42 2.728-1.32 0-2.178-.792-2.178-2.266V25h-2.838v6.754c0 1.43.396 2.53 1.166 3.344.792.814 1.782 1.21 2.992 1.21 1.496 0 2.596-.506 3.278-1.54V36h2.838V25h-2.838v5.94zm17.6034-6.248c-1.452 0-2.552.528-3.278 1.584-.638-1.056-1.65-1.584-2.992-1.584-1.386 0-2.398.484-3.058 1.474V25h-2.8382v11h2.8382v-6.182c0-1.606.814-2.486 2.068-2.486 1.166 0 1.848.77 1.848 2.09V36h2.838v-6.182c0-1.606.748-2.486 2.046-2.486 1.166 0 1.848.77 1.848 2.09V36h2.838v-6.776c0-2.75-1.628-4.532-4.158-4.532zm18.36.308h-2.486v-3.08l-2.838.858V25h-1.914v2.728h1.914v4.576c0 3.014 1.43 4.136 5.324 3.696v-2.574c-1.628.088-2.486.066-2.486-1.122v-4.576h2.486V25zm11.029 9.636c1.122-1.122 1.694-2.508 1.694-4.136 0-1.628-.572-2.992-1.694-4.114-1.122-1.122-2.508-1.694-4.136-1.694-1.628 0-3.014.572-4.136 1.694-1.122 1.122-1.672 2.486-1.672 4.114 0 1.628.55 3.014 1.672 4.136 1.122 1.122 2.508 1.672 4.136 1.672 1.628 0 3.014-.55 4.136-1.672zm-6.27-1.958c-.55-.572-.836-1.298-.836-2.178 0-.88.286-1.606.836-2.178.572-.572 1.276-.858 2.134-.858.858 0 1.562.286 2.134.858.572.572.858 1.298.858 2.178 0 .88-.286 1.606-.858 2.178-.572.572-1.276.858-2.134.858-.858 0-1.562-.286-2.134-.858zm18.387-6.314c-.836-1.122-2.002-1.672-3.52-1.672-1.54 0-2.838.55-3.894 1.65-1.056 1.1-1.584 2.42-1.584 3.982 0 1.562.528 2.904 1.562 4.004 1.056 1.078 2.354 1.628 3.916 1.628 1.518 0 2.684-.55 3.52-1.672v1.188c0 1.738-1.1 2.706-2.882 2.706-1.364 0-2.332-.506-2.882-1.54l-2.42 1.386c.968 1.76 2.838 2.684 5.214 2.684 1.584 0 2.926-.44 4.048-1.342 1.122-.902 1.694-2.2 1.694-3.894V25h-2.772v1.364zm0 3.96c0 1.76-1.298 3.014-3.08 3.014s-3.08-1.254-3.08-3.014c0-.858.286-1.584.858-2.134.594-.572 1.32-.858 2.222-.858.902 0 1.628.286 2.2.858.594.55.88 1.276.88 2.134zm16.037 1.342c.066-.418.11-.792.11-1.166 0-1.65-.528-3.014-1.584-4.136-1.034-1.122-2.376-1.672-3.982-1.672-1.694 0-3.102.55-4.18 1.672-1.078 1.1-1.628 2.486-1.628 4.136 0 1.672.55 3.058 1.65 4.158 1.1 1.1 2.552 1.65 4.378 1.65 2.112 0 3.718-.792 4.796-2.354l-2.288-1.32c-.55.726-1.386 1.1-2.464 1.1-1.694 0-2.728-.682-3.102-2.068h8.294zm-8.338-2.2c.33-1.408 1.364-2.222 2.882-2.222 1.298 0 2.398.726 2.728 2.222h-5.61zM176.242 25h-2.486v-3.08l-2.838.858V25h-1.914v2.728h1.914v4.576c0 3.014 1.43 4.136 5.324 3.696v-2.574c-1.628.088-2.486.066-2.486-1.122v-4.576h2.486V25zm8.117-.308c-1.496 0-2.596.506-3.278 1.54V20.6h-2.838V36h2.838v-5.94c0-1.826.946-2.728 2.42-2.728 1.32 0 2.178.792 2.178 2.266V36h2.838v-6.754c0-1.43-.396-2.53-1.188-3.344-.77-.814-1.76-1.21-2.97-1.21zm17.274 6.974c.066-.418.11-.792.11-1.166 0-1.65-.528-3.014-1.584-4.136-1.034-1.122-2.376-1.672-3.982-1.672-1.694 0-3.102.55-4.18 1.672-1.078 1.1-1.628 2.486-1.628 4.136 0 1.672.55 3.058 1.65 4.158 1.1 1.1 2.552 1.65 4.378 1.65 2.112 0 3.718-.792 4.796-2.354l-2.288-1.32c-.55.726-1.386 1.1-2.464 1.1-1.694 0-2.728-.682-3.102-2.068h8.294zm-8.338-2.2c.33-1.408 1.364-2.222 2.882-2.222 1.298 0 2.398.726 2.728 2.222h-5.61zM206.562 25h-2.838v11h2.838v-5.258c0-1.056.33-1.804 1.012-2.266.682-.462 1.474-.638 2.332-.528V24.78c-1.496 0-2.816.704-3.344 2.112V25z" fill="#fff"/></svg>