<svg width="248" height="13" viewBox="0 0 248 13" fill="none" xmlns="http://www.w3.org/2000/svg"><path d="M2.682 10.063c-.414 0-.786-.072-1.116-.216-.324-.15-.579-.354-.765-.612-.186-.264-.282-.567-.288-.909h.873c.03.294.15.543.36.747.216.198.528.297.936.297.39 0 .696-.096.918-.288.228-.198.342-.45.342-.756 0-.24-.066-.435-.198-.585-.132-.15-.297-.264-.495-.342-.198-.078-.465-.162-.801-.252-.414-.108-.747-.216-.999-.324-.246-.108-.459-.276-.639-.504-.174-.234-.261-.546-.261-.936 0-.342.087-.645.261-.909.174-.264.417-.468.729-.612.318-.144.681-.216 1.089-.216.588 0 1.068.147 1.44.441.378.294.591.684.639 1.17h-.9c-.03-.24-.156-.45-.378-.63-.222-.186-.516-.279-.882-.279-.342 0-.621.09-.837.27-.216.174-.324.42-.324.738 0 .228.063.414.189.558.132.144.291.255.477.333.192.072.459.156.801.252.414.114.747.228.999.342.252.108.468.279.648.513.18.228.27.54.27.936 0 .306-.081.594-.243.864-.162.27-.402.489-.72.657-.318.168-.693.252-1.125.252zm4.11223-4.086c.162-.282.402-.516.72-.702.324-.192.699-.288 1.125-.288.438 0 .834.105 1.188.315.35997.21.64197.507.84597.891.204.378.306.819.306 1.323 0 .498-.102.942-.306 1.332-.204.39-.486.693-.84597.909-.354.216-.75.324-1.188.324-.42 0-.792-.093-1.116-.279-.318-.192-.561-.429-.729-.711v3.249h-.819V5.068h.819v.909zm3.34797 1.539c0-.372-.075-.696-.22497-.972-.15-.276-.354-.486-.612-.63-.252-.144-.531-.216-.837-.216-.3 0-.579.075-.837.225-.252.144-.456.357-.612.639-.15.276-.225.597-.225.963 0 .372.075.699.225.981.156.276.36.489.612.639.258.144.537.216.837.216.306 0 .585-.072.837-.216.258-.15.462-.363.612-.639.14997-.282.22497-.612.22497-.99zm2.7341-1.647c.144-.282.348-.501.612-.657.27-.156.597-.234.981-.234v.846h-.216c-.918 0-1.377.498-1.377 1.494V10h-.819V5.068h.819v.801zm7.0384 1.476c0 .156-.009.321-.027.495h-3.942c.03.486.195.867.495 1.143.306.27.675.405 1.107.405.354 0 .648-.081.882-.243.24-.168.408-.39.504-.666h.882c-.132.474-.396.861-.792 1.161-.396.294-.888.441-1.476.441-.468 0-.888-.105-1.26-.315-.366-.21-.654-.507-.864-.891-.21-.39-.315-.84-.315-1.35 0-.51.102-.957.306-1.341.204-.384.489-.678.855-.882.372-.21.798-.315 1.278-.315.468 0 .882.102 1.242.306.36.204.636.486.828.846.198.354.297.756.297 1.206zm-.846-.171c0-.312-.069-.579-.207-.801-.138-.228-.327-.399-.567-.513-.234-.12-.495-.18-.783-.18-.414 0-.768.132-1.062.396-.288.264-.453.63-.495 1.098h3.114zm1.621.342c0-.504.102-.945.306-1.323.204-.384.483-.681.837-.891.36-.21.759-.315 1.197-.315.432 0 .807.093 1.125.279.318.186.555.42.711.702v-.9h.828V10h-.828v-.918c-.162.288-.405.528-.729.72-.318.186-.69.279-1.116.279-.438 0-.834-.108-1.188-.324-.354-.216-.633-.519-.837-.909-.204-.39-.306-.834-.306-1.332zm4.176.009c0-.372-.075-.696-.225-.972-.15-.276-.354-.486-.612-.63-.252-.15-.531-.225-.837-.225-.306 0-.585.072-.837.216-.252.144-.453.354-.603.63-.15.276-.225.6-.225.972 0 .378.075.708.225.99.15.276.351.489.603.639.252.144.531.216.837.216.306 0 .585-.072.837-.216.258-.15.462-.363.612-.639.15-.282.225-.609.225-.981zm1.9061-.009c0-.504.102-.945.306-1.323.204-.384.483-.681.837-.891.36-.21.762-.315 1.206-.315.384 0 .741.09 1.071.27.33.174.582.405.756.693V3.34h.828V10h-.828v-.927c-.162.294-.402.537-.72.729-.318.186-.69.279-1.116.279-.438 0-.837-.108-1.197-.324-.354-.216-.633-.519-.837-.909-.204-.39-.306-.834-.306-1.332zm4.176.009c0-.372-.075-.696-.225-.972-.15-.276-.354-.486-.612-.63-.252-.15-.531-.225-.837-.225-.306 0-.585.072-.837.216-.252.144-.453.354-.603.63-.15.276-.225.6-.225.972 0 .378.075.708.225.99.15.276.351.489.603.639.252.144.531.216.837.216.306 0 .585-.072.837-.216.258-.15.462-.363.612-.639.15-.282.225-.609.225-.981zm3.958 2.556c-.378 0-.717-.063-1.017-.189-.3-.132-.537-.312-.711-.54-.174-.234-.27-.501-.288-.801h.846c.024.246.138.447.342.603.21.156.483.234.819.234.312 0 .558-.069.738-.207.18-.138.27-.312.27-.522 0-.216-.096-.375-.288-.477-.192-.108-.489-.213-.891-.315-.366-.096-.666-.192-.9-.288-.228-.102-.426-.249-.594-.441-.162-.198-.243-.456-.243-.774 0-.252.075-.483.225-.693.15-.21.363-.375.639-.495.276-.126.591-.189.945-.189.546 0 .987.138 1.323.414.336.276.516.654.54 1.134h-.819c-.018-.258-.123-.465-.315-.621-.186-.156-.438-.234-.756-.234-.294 0-.528.063-.702.189-.174.126-.261.291-.261.495 0 .162.051.297.153.405.108.102.24.186.396.252.162.06.384.129.666.207.354.096.642.192.864.288.222.09.411.228.567.414.162.186.246.429.252.729 0 .27-.075.513-.225.729-.15.216-.363.387-.639.513-.27.12-.582.18-.936.18zm7.3626-4.338h-1.035V10h-.819V5.743h-.639v-.675h.639v-.351c0-.552.141-.954.423-1.206.288-.258.747-.387 1.377-.387v.684c-.36 0-.615.072-.765.216-.144.138-.216.369-.216.693v.351h1.035v.675zm1.7739.126c.144-.282.348-.501.612-.657.27-.156.597-.234.981-.234v.846h-.216c-.918 0-1.377.498-1.377 1.494V10h-.819V5.068h.819v.801zm4.6894 4.212c-.462 0-.882-.105-1.26-.315-.372-.21-.666-.507-.882-.891-.21-.39-.315-.84-.315-1.35 0-.504.108-.948.324-1.332.222-.39.522-.687.9-.891.378-.21.801-.315 1.269-.315.468 0 .891.105 1.269.315.378.204.675.498.891.882.222.384.333.831.333 1.341s-.114.96-.342 1.35c-.222.384-.525.681-.909.891-.384.21-.81.315-1.278.315zm0-.72c.294 0 .57-.069.828-.207.258-.138.465-.345.621-.621.162-.276.243-.612.243-1.008s-.078-.732-.234-1.008c-.156-.276-.36-.48-.612-.612-.252-.138-.525-.207-.819-.207-.3 0-.576.069-.828.207-.246.132-.444.336-.594.612-.15.276-.225.612-.225 1.008 0 .402.072.741.216 1.017.15.276.348.483.594.621.246.132.516.198.81.198zm9.5368-4.383c.384 0 .726.081 1.026.243.3.156.537.393.711.711.174.318.261.705.261 1.161V10h-.81V7.21c0-.492-.123-.867-.369-1.125-.24-.264-.567-.396-.981-.396-.426 0-.765.138-1.017.414-.252.27-.378.663-.378 1.179V10h-.81V7.21c0-.492-.123-.867-.369-1.125-.24-.264-.567-.396-.981-.396-.426 0-.765.138-1.017.414-.252.27-.378.663-.378 1.179V10h-.819V5.068h.819v.711c.162-.258.378-.456.648-.594.276-.138.579-.207.909-.207.414 0 .78.093 1.098.279.318.186.555.459.711.819.138-.348.366-.618.684-.81.318-.192.672-.288 1.062-.288zm5.6059 1.701c0-1.032.168-1.836.504-2.412.336-.582.924-.873 1.764-.873.834 0 1.419.291 1.755.873.336.576.504 1.38.504 2.412 0 1.05-.168 1.866-.504 2.448-.336.582-.921.873-1.755.873-.84 0-1.428-.291-1.764-.873-.336-.582-.504-1.398-.504-2.448zm3.717 0c0-.522-.036-.963-.108-1.323-.066-.366-.207-.66-.423-.882-.21-.222-.516-.333-.918-.333-.408 0-.72.111-.936.333-.21.222-.351.516-.423.882-.066.36-.099.801-.099 1.323 0 .54.033.993.099 1.359.072.366.213.66.423.882.216.222.528.333.936.333.402 0 .708-.111.918-.333.216-.222.357-.516.423-.882.072-.366.108-.819.108-1.359zm2.3304 3.375c-.156 0-.288-.054-.396-.162-.108-.108-.162-.24-.162-.396 0-.156.054-.288.162-.396.108-.108.24-.162.396-.162.15 0 .276.054.378.162.108.108.162.24.162.396 0 .156-.054.288-.162.396-.102.108-.228.162-.378.162zm1.4936-3.375c0-1.032.168-1.836.504-2.412.336-.582.924-.873 1.764-.873.834 0 1.419.291 1.755.873.336.576.504 1.38.504 2.412 0 1.05-.168 1.866-.504 2.448-.336.582-.921.873-1.755.873-.84 0-1.428-.291-1.764-.873-.336-.582-.504-1.398-.504-2.448zm3.717 0c0-.522-.036-.963-.108-1.323-.066-.366-.207-.66-.423-.882-.21-.222-.516-.333-.918-.333-.408 0-.72.111-.936.333-.21.222-.351.516-.423.882-.066.36-.099.801-.099 1.323 0 .54.033.993.099 1.359.072.366.213.66.423.882.216.222.528.333.936.333.402 0 .708-.111.918-.333.216-.222.357-.516.423-.882.072-.366.108-.819.108-1.359zm5.2878-.702c.162-.282.402-.516.72-.702.324-.192.699-.288 1.125-.288.438 0 .834.105 1.188.315.36.21.642.507.846.891.204.378.306.819.306 1.323 0 .498-.102.942-.306 1.332-.204.39-.486.693-.846.909-.354.216-.75.324-1.188.324-.42 0-.792-.093-1.116-.279-.318-.192-.561-.429-.729-.711v3.249h-.819V5.068h.819v.909zm3.348 1.539c0-.372-.075-.696-.225-.972-.15-.276-.354-.486-.612-.63-.252-.144-.531-.216-.837-.216-.3 0-.579.075-.837.225-.252.144-.456.357-.612.639-.15.276-.225.597-.225.963 0 .372.075.699.225.981.156.276.36.489.612.639.258.144.537.216.837.216.306 0 .585-.072.837-.216.258-.15.462-.363.612-.639.15-.282.225-.612.225-.99zm2.338-3.249c-.156 0-.288-.054-.396-.162-.108-.108-.162-.24-.162-.396 0-.156.054-.288.162-.396.108-.108.24-.162.396-.162.15 0 .276.054.378.162.108.108.162.24.162.396 0 .156-.054.288-.162.396-.102.108-.228.162-.378.162zm.396.801V10h-.819V5.068h.819zm2.2149.909c.162-.282.402-.516.72-.702.324-.192.699-.288 1.125-.288.438 0 .834.105 1.188.315.36.21.642.507.846.891.204.378.306.819.306 1.323 0 .498-.102.942-.306 1.332-.204.39-.486.693-.846.909-.354.216-.75.324-1.188.324-.42 0-.792-.093-1.116-.279-.318-.192-.561-.429-.729-.711v3.249h-.819V5.068h.819v.909zm3.348 1.539c0-.372-.075-.696-.225-.972-.15-.276-.354-.486-.612-.63-.252-.144-.531-.216-.837-.216-.3 0-.579.075-.837.225-.252.144-.456.357-.612.639-.15.276-.225.597-.225.963 0 .372.075.699.225.981.156.276.36.489.612.639.258.144.537.216.837.216.306 0 .585-.072.837-.216.258-.15.462-.363.612-.639.15-.282.225-.612.225-.99zm3.661 2.565c-.378 0-.717-.063-1.017-.189-.3-.132-.537-.312-.711-.54-.174-.234-.27-.501-.288-.801h.846c.024.246.138.447.342.603.21.156.483.234.819.234.312 0 .558-.069.738-.207.18-.138.27-.312.27-.522 0-.216-.096-.375-.288-.477-.192-.108-.489-.213-.891-.315-.366-.096-.666-.192-.9-.288-.228-.102-.426-.249-.594-.441-.162-.198-.243-.456-.243-.774 0-.252.075-.483.225-.693.15-.21.363-.375.639-.495.276-.126.591-.189.945-.189.546 0 .987.138 1.323.414.336.276.516.654.54 1.134h-.819c-.018-.258-.123-.465-.315-.621-.186-.156-.438-.234-.756-.234-.294 0-.528.063-.702.189-.174.126-.261.291-.261.495 0 .162.051.297.153.405.108.102.24.186.396.252.162.06.384.129.666.207.354.096.642.192.864.288.222.09.411.228.567.414.162.186.246.429.252.729 0 .27-.075.513-.225.729-.15.216-.363.387-.639.513-.27.12-.582.18-.936.18zm3.2172-.027c-.156 0-.288-.054-.396-.162-.108-.108-.162-.24-.162-.396 0-.156.054-.288.162-.396.108-.108.24-.162.396-.162.15 0 .276.054.378.162.108.108.162.24.162.396 0 .156-.054.288-.162.396-.102.108-.228.162-.378.162zM106.274 10l-1.494-2.565h-.99V10h-.819V3.727h2.025c.474 0 .873.081 1.197.243.33.162.576.381.738.657.162.276.243.591.243.945 0 .432-.126.813-.378 1.143-.246.33-.618.549-1.116.657L107.255 10h-.981zm-2.484-3.222h1.206c.444 0 .777-.108.999-.324.222-.222.333-.516.333-.882 0-.372-.111-.66-.333-.864-.216-.204-.549-.306-.999-.306h-1.206v2.376zm9.157.567c0 .156-.009.321-.027.495h-3.942c.03.486.195.867.495 1.143.306.27.675.405 1.107.405.354 0 .648-.081.882-.243.24-.168.408-.39.504-.666h.882c-.132.474-.396.861-.792 1.161-.396.294-.888.441-1.476.441-.468 0-.888-.105-1.26-.315-.366-.21-.654-.507-.864-.891-.21-.39-.315-.84-.315-1.35 0-.51.102-.957.306-1.341.204-.384.489-.678.855-.882.372-.21.798-.315 1.278-.315.468 0 .882.102 1.242.306.36.204.636.486.828.846.198.354.297.756.297 1.206zm-.846-.171c0-.312-.069-.579-.207-.801-.138-.228-.327-.399-.567-.513-.234-.12-.495-.18-.783-.18-.414 0-.768.132-1.062.396-.288.264-.453.63-.495 1.098h3.114zm1.621.342c0-.504.102-.945.306-1.323.204-.384.483-.681.837-.891.36-.21.759-.315 1.197-.315.432 0 .807.093 1.125.279.318.186.555.42.711.702v-.9h.828V10h-.828v-.918c-.162.288-.405.528-.729.72-.318.186-.69.279-1.116.279-.438 0-.834-.108-1.188-.324-.354-.216-.633-.519-.837-.909-.204-.39-.306-.834-.306-1.332zm4.176.009c0-.372-.075-.696-.225-.972-.15-.276-.354-.486-.612-.63-.252-.15-.531-.225-.837-.225-.306 0-.585.072-.837.216-.252.144-.453.354-.603.63-.15.276-.225.6-.225.972 0 .378.075.708.225.99.15.276.351.489.603.639.252.144.531.216.837.216.306 0 .585-.072.837-.216.258-.15.462-.363.612-.639.15-.282.225-.609.225-.981zm3.031-4.185V10h-.819V3.34h.819zm4.816 3.015v.693h-3.591v-.693h3.591zm2.536-.612V8.65c0 .24.051.411.153.513.102.096.279.144.531.144h.603V10h-.738c-.456 0-.798-.105-1.026-.315-.228-.21-.342-.555-.342-1.035V5.743h-.639v-.675h.639V3.826h.819v1.242h1.287v.675h-1.287zm2.702-1.476c-.156 0-.288-.054-.396-.162-.108-.108-.162-.24-.162-.396 0-.156.054-.288.162-.396.108-.108.24-.162.396-.162.15 0 .276.054.378.162.108.108.162.24.162.396 0 .156-.054.288-.162.396-.102.108-.228.162-.378.162zm.396.801V10h-.819V5.068h.819zm7.327-.09c.384 0 .726.081 1.026.243.3.156.537.393.711.711.174.318.261.705.261 1.161V10h-.81V7.21c0-.492-.123-.867-.369-1.125-.24-.264-.567-.396-.981-.396-.426 0-.765.138-1.017.414-.252.27-.378.663-.378 1.179V10h-.81V7.21c0-.492-.123-.867-.369-1.125-.24-.264-.567-.396-.981-.396-.426 0-.765.138-1.017.414-.252.27-.378.663-.378 1.179V10h-.819V5.068h.819v.711c.162-.258.378-.456.648-.594.276-.138.579-.207.909-.207.414 0 .78.093 1.098.279.318.186.555.459.711.819.138-.348.366-.618.684-.81.318-.192.672-.288 1.062-.288zm7.841 2.367c0 .156-.009.321-.027.495h-3.942c.03.486.195.867.495 1.143.306.27.675.405 1.107.405.354 0 .648-.081.882-.243.24-.168.408-.39.504-.666h.882c-.132.474-.396.861-.792 1.161-.396.294-.888.441-1.476.441-.468 0-.888-.105-1.26-.315-.366-.21-.654-.507-.864-.891-.21-.39-.315-.84-.315-1.35 0-.51.102-.957.306-1.341.204-.384.489-.678.855-.882.372-.21.798-.315 1.278-.315.468 0 .882.102 1.242.306.36.204.636.486.828.846.198.354.297.756.297 1.206zm-.846-.171c0-.312-.069-.579-.207-.801-.138-.228-.327-.399-.567-.513-.234-.12-.495-.18-.783-.18-.414 0-.768.132-1.062.396-.288.264-.453.63-.495 1.098h3.114zm5.326-1.431V8.65c0 .24.051.411.153.513.102.096.279.144.531.144h.603V10h-.738c-.456 0-.798-.105-1.026-.315-.228-.21-.342-.555-.342-1.035V5.743h-.639v-.675h.639V3.826h.819v1.242h1.287v.675h-1.287zm3.098.126c.144-.282.348-.501.612-.657.27-.156.597-.234.981-.234v.846h-.216c-.918 0-1.377.498-1.377 1.494V10h-.819V5.068h.819v.801zm2.233 1.647c0-.504.102-.945.306-1.323.204-.384.483-.681.837-.891.36-.21.759-.315 1.197-.315.432 0 .807.093 1.125.279.318.186.555.42.711.702v-.9h.828V10h-.828v-.918c-.162.288-.405.528-.729.72-.318.186-.69.279-1.116.279-.438 0-.834-.108-1.188-.324-.354-.216-.633-.519-.837-.909-.204-.39-.306-.834-.306-1.332zm4.176.009c0-.372-.075-.696-.225-.972-.15-.276-.354-.486-.612-.63-.252-.15-.531-.225-.837-.225-.306 0-.585.072-.837.216-.252.144-.453.354-.603.63-.15.276-.225.6-.225.972 0 .378.075.708.225.99.15.276.351.489.603.639.252.144.531.216.837.216.306 0 .585-.072.837-.216.258-.15.462-.363.612-.639.15-.282.225-.609.225-.981zm1.906-.009c0-.504.102-.945.306-1.323.204-.384.483-.681.837-.891.36-.21.762-.315 1.206-.315.384 0 .741.09 1.071.27.33.174.582.405.756.693V3.34h.828V10h-.828v-.927c-.162.294-.402.537-.72.729-.318.186-.69.279-1.116.279-.438 0-.837-.108-1.197-.324-.354-.216-.633-.519-.837-.909-.204-.39-.306-.834-.306-1.332zm4.176.009c0-.372-.075-.696-.225-.972-.15-.276-.354-.486-.612-.63-.252-.15-.531-.225-.837-.225-.306 0-.585.072-.837.216-.252.144-.453.354-.603.63-.15.276-.225.6-.225.972 0 .378.075.708.225.99.15.276.351.489.603.639.252.144.531.216.837.216.306 0 .585-.072.837-.216.258-.15.462-.363.612-.639.15-.282.225-.609.225-.981zm6.712-.18c0 .156-.009.321-.027.495h-3.942c.03.486.195.867.495 1.143.306.27.675.405 1.107.405.354 0 .648-.081.882-.243.24-.168.408-.39.504-.666h.882c-.132.474-.396.861-.792 1.161-.396.294-.888.441-1.476.441-.468 0-.888-.105-1.26-.315-.366-.21-.654-.507-.864-.891-.21-.39-.315-.84-.315-1.35 0-.51.102-.957.306-1.341.204-.384.489-.678.855-.882.372-.21.798-.315 1.278-.315.468 0 .882.102 1.242.306.36.204.636.486.828.846.198.354.297.756.297 1.206zm-.846-.171c0-.312-.069-.579-.207-.801-.138-.228-.327-.399-.567-.513-.234-.12-.495-.18-.783-.18-.414 0-.768.132-1.062.396-.288.264-.453.63-.495 1.098h3.114zm8.826.171c0 .156-.009.321-.027.495h-3.942c.03.486.195.867.495 1.143.306.27.675.405 1.107.405.354 0 .648-.081.882-.243.24-.168.408-.39.504-.666h.882c-.132.474-.396.861-.792 1.161-.396.294-.888.441-1.476.441-.468 0-.888-.105-1.26-.315-.366-.21-.654-.507-.864-.891-.21-.39-.315-.84-.315-1.35 0-.51.102-.957.306-1.341.204-.384.489-.678.855-.882.372-.21.798-.315 1.278-.315.468 0 .882.102 1.242.306.36.204.636.486.828.846.198.354.297.756.297 1.206zm-.846-.171c0-.312-.069-.579-.207-.801-.138-.228-.327-.399-.567-.513-.234-.12-.495-.18-.783-.18-.414 0-.768.132-1.062.396-.288.264-.453.63-.495 1.098h3.114zM184.963 10l-1.17-1.836L182.668 10h-.855l1.593-2.448-1.593-2.484h.927l1.17 1.827 1.116-1.827h.855l-1.584 2.439L185.89 10h-.927zm6.233-2.655c0 .156-.009.321-.027.495h-3.942c.03.486.195.867.495 1.143.306.27.675.405 1.107.405.354 0 .648-.081.882-.243.24-.168.408-.39.504-.666h.882c-.132.474-.396.861-.792 1.161-.396.294-.888.441-1.476.441-.468 0-.888-.105-1.26-.315-.366-.21-.654-.507-.864-.891-.21-.39-.315-.84-.315-1.35 0-.51.102-.957.306-1.341.204-.384.489-.678.855-.882.372-.21.798-.315 1.278-.315.468 0 .882.102 1.242.306.36.204.636.486.828.846.198.354.297.756.297 1.206zm-.846-.171c0-.312-.069-.579-.207-.801-.138-.228-.327-.399-.567-.513-.234-.12-.495-.18-.783-.18-.414 0-.768.132-1.062.396-.288.264-.453.63-.495 1.098h3.114zm1.621.351c0-.51.102-.954.306-1.332.204-.384.486-.681.846-.891.366-.21.783-.315 1.251-.315.606 0 1.104.147 1.494.441.396.294.657.702.783 1.224h-.882c-.084-.3-.249-.537-.495-.711-.24-.174-.54-.261-.9-.261-.468 0-.846.162-1.134.486-.288.318-.432.771-.432 1.359 0 .594.144 1.053.432 1.377.288.324.666.486 1.134.486.36 0 .66-.084.9-.252.24-.168.405-.408.495-.72h.882c-.132.504-.396.909-.792 1.215-.396.3-.891.45-1.485.45-.468 0-.885-.105-1.251-.315-.36-.21-.642-.507-.846-.891-.204-.384-.306-.834-.306-1.35zm10.147-2.457V10h-.819v-.729c-.156.252-.375.45-.657.594-.276.138-.582.207-.918.207-.384 0-.729-.078-1.035-.234-.306-.162-.549-.402-.729-.72-.174-.318-.261-.705-.261-1.161V5.068h.81v2.781c0 .486.123.861.369 1.125.246.258.582.387 1.008.387.438 0 .783-.135 1.035-.405.252-.27.378-.663.378-1.179V5.068h.819zm2.382.675V8.65c0 .24.051.411.153.513.102.096.279.144.531.144h.603V10h-.738c-.456 0-.798-.105-1.026-.315-.228-.21-.342-.555-.342-1.035V5.743h-.639v-.675h.639V3.826h.819v1.242h1.287v.675H204.5zm2.702-1.476c-.156 0-.288-.054-.396-.162-.108-.108-.162-.24-.162-.396 0-.156.054-.288.162-.396.108-.108.24-.162.396-.162.15 0 .276.054.378.162.108.108.162.24.162.396 0 .156-.054.288-.162.396-.102.108-.228.162-.378.162zm.396.801V10h-.819V5.068h.819zm3.547 5.013c-.462 0-.882-.105-1.26-.315-.372-.21-.666-.507-.882-.891-.21-.39-.315-.84-.315-1.35 0-.504.108-.948.324-1.332.222-.39.522-.687.9-.891.378-.21.801-.315 1.269-.315.468 0 .891.105 1.269.315.378.204.675.498.891.882.222.384.333.831.333 1.341s-.114.96-.342 1.35c-.222.384-.525.681-.909.891-.384.21-.81.315-1.278.315zm0-.72c.294 0 .57-.069.828-.207.258-.138.465-.345.621-.621.162-.276.243-.612.243-1.008s-.078-.732-.234-1.008c-.156-.276-.36-.48-.612-.612-.252-.138-.525-.207-.819-.207-.3 0-.576.069-.828.207-.246.132-.444.336-.594.612-.15.276-.225.612-.225 1.008 0 .402.072.741.216 1.017.15.276.348.483.594.621.246.132.516.198.81.198zm6.009-4.383c.6 0 1.086.183 1.458.549.372.36.558.882.558 1.566V10h-.81V7.21c0-.492-.123-.867-.369-1.125-.246-.264-.582-.396-1.008-.396-.432 0-.777.135-1.035.405-.252.27-.378.663-.378 1.179V10h-.819V5.068h.819v.702c.162-.252.381-.447.657-.585.282-.138.591-.207.927-.207zm3.614 5.076c-.156 0-.288-.054-.396-.162-.108-.108-.162-.24-.162-.396 0-.156.054-.288.162-.396.108-.108.24-.162.396-.162.15 0 .276.054.378.162.108.108.162.24.162.396 0 .156-.054.288-.162.396-.102.108-.228.162-.378.162z" fill="#fff"/></svg>