<svg width="31" height="31" viewBox="0 0 31 31" fill="none" xmlns="http://www.w3.org/2000/svg"><circle cx="15.5" cy="15.3439" r="14.6676" fill="#fff"/><path d="M8.60041 13.0868c.02811.2728.25822.481.5331.48h.05622l3.68587-.3759h.0697l.0563-.0156.0375-.0135.0562-.0292.0291-.0156-.001-.0011c.0562-.0374.1041-.0853.1416-.1416l.0187-.0291c.0115-.0177.0209-.0365.0292-.0562l.0135-.0375v.001c.0063-.0177.0115-.0354.0156-.0541V12.7317l.3811-3.70981c.0302-.29467-.1832-.5581-.4779-.58828-.2947-.03019-.5581.1843-.5883.47897l-.2665 2.56972-4.79791-4.79792c-.20825-.20824-.5456-.20824-.75383 0-.20823.20824-.20825.5456 0 .75383l4.79794 4.79789-2.56975.2666c-.2884.0354-.49562.2946-.46646.5841h.00002zM17.7537 22.2401h.0562c.2749.0011.5061-.2061.5331-.48l.2666-2.5697 4.7979 4.7979c.2082.2083.5456.2083.7538 0 .2083-.2082.2083-.5456 0-.7538l-4.7979-4.7979 2.5697-.2665c.2947-.0302.5092-.2937.479-.5883-.0302-.2947-.2936-.5081-.5883-.4779l-3.6912.3883h-.0697l-.0563.0156-.0374.0136-.0563.0291-.0291.0156.001.0011c-.0562.0375-.1041.0854-.1416.1416l-.0187.0291c-.0104.0177-.0208.0365-.0292.0563l-.0135.0375c-.0063.0166-.0115.0343-.0156.0531V17.9514l-.3863 3.7045c-.0302.2926.1822.5529.4737.5841l.0001.0001zM12.1322 19.2414c.1416-.001.277-.0572.3759-.1572l6.7386-6.7386c.2083-.2083.2083-.5456 0-.7539-.2082-.2082-.5466-.2082-.7549 0l-6.7357 6.7408c-.1509.152-.1968.3811-.1145.5789.0823.1989.2759.3291.4904.3301l.0002-.0001z" fill="#00CF80"/></svg>