<svg width="120" height="20" viewBox="0 0 120 20" fill="none" xmlns="http://www.w3.org/2000/svg"><path d="M14.8001 9.54819c.177-.07415.3515-.1571.5222-.25388 2.3827-1.34979 3.2238-4.38747 1.8756-6.77287C15.8496.136043 12.8153-.706011 10.4326.643788 8.66501 1.64545 7.74858 3.57589 7.94191 5.47994c-1.53032-1.14746-3.65568-1.35483-5.42452-.35316C.135932 6.47658-.705175 9.51425.643107 11.8997c1.348283 2.3854 4.382543 3.2274 6.765263 1.8776.13935-.0792.27116-.1646.40047-.2539-.11048 1.0004.07532 2.0423.6076 2.9837 1.34829 2.3854 4.38256 3.2274 6.76526 1.8776 2.3827-1.3498 3.2238-4.3875 1.8755-6.7729-.5347-.9451-1.3382-1.64384-2.2571-2.06361zM6.52709 12.2189c-1.52404.8634-3.46611.3242-4.32856-1.2015-.86245-1.52577-.32389-3.47003 1.20014-4.33219 1.52404-.86342 3.46612-.32426 4.32857 1.20149.86245 1.52575.32389 3.4688-1.20015 4.3322zM11.3139 2.20222c1.524-.86342 3.4661-.32426 4.3285 1.20149.8625 1.52575.3239 3.47002-1.2001 4.33343-1.5241.86342-3.4661.32426-4.3286-1.20149-.86243-1.52701-.32387-3.47002 1.2002-4.33343zM9.61659 8.9688l-.06528-.64222.51599.38709c.2611.19606.5523.36699.8637.50901l.5875.26769-.5951.25011c-.1858.07792-.3464.15584-.4921.23879-.1318.07413-.2561.15583-.3778.24003l-.51098.3582.06905-.62085c.03515-.33431.03766-.66611.00502-.98785zm4.68381 7.8575c-1.524.8634-3.4661.3242-4.32854-1.2015-.86244-1.5258-.32389-3.47 1.20014-4.3334 1.524-.8635 3.4661-.3243 4.3286 1.2015.8624 1.527.3239 3.47-1.2002 4.3334zM21.6809 4.88425h2.4028c1.0244 0 1.8027.14453 2.3325.43359s.7959.79807.7959 1.52827c0 .44113-.1029.81314-.3088 1.11603-.2059.30289-.4997.48764-.8826.55299v.05404c.2524.05782.4859.14956.698.2765.2122.12694.3804.31294.5034.55802.1231.24507.1846.57058.1846.97531 0 .7013-.2549 1.2505-.7633 1.6476-.5084.3972-1.2001.5957-2.0726.5957h-2.8899V4.88425zm1.6345 3.06658h.9528c.4758 0 .8072-.07415.9905-.22245.1846-.1483.2762-.37076.2762-.66611 0-.2966-.108-.509-.3251-.6397-.216-.12945-.5587-.19481-1.0282-.19481h-.8662v1.72307zm0 1.30079v2.01588h1.0721c.4908 0 .8336-.0955 1.0281-.2878.1946-.191.2925-.4462.2925-.7641 0-.28909-.0991-.52159-.2975-.6988-.1983-.17721-.5574-.26518-1.0771-.26518h-1.0181zM30.7084 12.6211h-1.6132V4.38528h1.6132v8.23582zM38.0913 6.70533v5.91697h-1.2341l-.2172-.7591h-.0866c-.1883.3042-.4457.5241-.7733.6611-.3289.137-.6767.2061-1.0445.2061-.6352 0-1.1436-.1722-1.5265-.5153-.3829-.3431-.5737-.8936-.5737-1.6527V6.70407h1.6131v3.45743c0 .4261.0754.7466.2273.959.1519.2136.3929.3192.7256.3192.4908 0 .826-.1684 1.0068-.504.1808-.3356.2711-.8182.2711-1.44657V6.70407h1.612v.00126zM42.4851 6.59601c.816 0 1.4613.23251 1.9371.69878.4758.46627.7143 1.1286.7143 1.98825v.78046h-3.8101c.0138.455.1494.8132.4055 1.0733.2561.2602.6114.3896 1.0658.3896.3754 0 .7193-.0377 1.0344-.1143.3139-.0755.6365-.1936.9692-.352v1.2468c-.2963.1445-.6026.2513-.9202.3192-.3176.0691-.703.1031-1.1587.1031-.5913 0-1.1148-.1106-1.5692-.3306-.4545-.2199-.8123-.553-1.0721-.9966-.2599-.4437-.3905-1.0092-.3905-1.69542 0-.68621.1168-1.26057.3515-1.72307.2348-.4625.5612-.80938.9792-1.04063.4219-.23125.9089-.34687 1.4638-.34687zm.0113 1.14871c-.3176 0-.5775.10054-.7796.30289-.2021.20234-.3214.51654-.3565.9426h2.2622c-.0075-.35442-.1029-.64977-.2875-.88856-.1833-.23753-.4632-.35693-.8386-.35693zM48.3314 4.38528v1.91788c0 .22371-.0075.4449-.0213.66107-.0151.21617-.0289.38709-.0427.509h.0653c.1582-.24507.3716-.4537.639-.62337.2674-.16966.6139-.25513 1.0394-.25513.6641 0 1.2014.2589 1.6132.77545.4118.51654.6177 1.2769.6177 2.28108 0 1.01174-.2097 1.77714-.6277 2.29744-.4181.5203-.9667.7805-1.6458.7805-.4332 0-.7734-.078-1.0232-.2326-.2485-.1558-.4532-.3305-.6114-.5253h-.1079l-.2712.6498h-1.234V4.38528h1.6106zm1.1575 3.50018c-.418 0-.7143.13197-.8876.39589-.1732.26393-.2636.65857-.2711 1.18642v.17344c0 .57059.0853 1.00919.2548 1.31709.1695.3067.4783.46.9252.46.3315 0 .5951-.1533.7897-.46.1946-.3066.2925-.749.2925-1.32715 0-.57812-.0992-1.01297-.2975-1.30581-.1971-.29283-.4671-.43988-.806-.43988zM56.2768 6.59601c.816 0 1.4612.23251 1.937.69878.4758.46627.7143 1.1286.7143 1.98825v.78046h-3.81c.0138.455.1493.8132.4054 1.0733.2561.2602.6114.3896 1.0659.3896.3753 0 .7193-.0377 1.0344-.1143.3138-.0755.6365-.1936.9692-.352v1.2468c-.2963.1445-.6026.2513-.9202.3192-.3177.0691-.7031.1031-1.1588.1031-.5912 0-1.1147-.1106-1.5692-.3306-.4544-.2199-.8122-.553-1.0721-.9966-.2599-.4437-.3904-1.0092-.3904-1.69542 0-.68621.1167-1.26057.3515-1.72307.2347-.4625.5611-.80938.9792-1.04063.4205-.23125.9076-.34687 1.4638-.34687zm.01 1.14871c-.3176 0-.5775.10054-.7796.30289-.2021.20234-.3214.51654-.3565.9426h2.2622c-.0075-.35442-.1029-.64977-.2875-.88856-.1833-.23753-.4632-.35693-.8386-.35693zM63.8103 6.59601c.0791 0 .1733.00377.2813.01131.1079.00754.1945.01759.2598.03268l-.1192 1.51695c-.0578-.01383-.1331-.02765-.2273-.0377-.0941-.01132-.177-.01634-.2485-.01634-.275 0-.5373.04901-.7897.14579-.2523.09803-.4569.25513-.6113.47129-.1557.21743-.2323.51278-.2323.88856v3.01255h-1.6132V6.70409h1.2228l.2385.99664h.0753c.1733-.30289.4118-.56304.7143-.78047.3026-.21491.6528-.32425 1.0495-.32425zM68.995 6.59601c.0791 0 .1733.00377.2812.01131.108.00754.1946.01759.2599.03268l-.1193 1.51695c-.0577-.01383-.133-.02765-.2272-.0377-.0941-.01132-.177-.01634-.2486-.01634-.2749 0-.5373.04901-.7896.14579-.2523.09803-.457.25513-.6114.47129-.1556.21743-.2322.51278-.2322.88856v3.01255h-1.6132V6.70409h1.2228l.2385.99664h.0753c.1732-.30289.4118-.56304.7143-.78047.3026-.21491.6528-.32425 1.0495-.32425zM70.0344 6.70535h1.7651l1.1148 3.32675c.0577.1659.1004.3318.1293.4989.0289.1659.0502.3431.0653.5317h.0326c.0214-.1886.0502-.3645.0866-.5317.0364-.1659.0829-.3318.1406-.4989l1.0935-3.32675h1.7324l-2.5007 6.67485c-.231.6133-.5587 1.0746-.9855 1.3812-.4268.3067-.9202.46-1.4826.46-.1883 0-.3465-.0088-.4758-.0264-.1293-.0176-.2448-.0377-.3465-.0603v-1.2782c.0728.0138.1657.0289.2812.0427.1155.0139.2348.0214.3566.0214.3389 0 .6063-.103.8009-.3092.1946-.2061.3427-.4537.4431-.7427l.098-.2929-2.3489-5.87045zM80.8584 12.6211l-2.3375-6.57809h-.0427c.0138.15207.0264.34814.0377.5907.0113.24256.02.50523.0276.79052.0075.2853.0113.56179.0113.82949v4.36738H77.494V4.88425h1.6671l2.2195 6.20985h.0427l2.2836-6.20985h1.6671v7.73805h-1.1361V8.18962c0-.25261.005-.51277.0163-.78047.0113-.2677.0214-.52031.0327-.75785.0113-.23879.02-.43736.0263-.59572h-.0427l-2.4028 6.56672h-1.0093v-.0012zM89.8319 6.67264c.7294 0 1.2755.16087 1.6395.48261.3641.32174.5461.82571.5461 1.51192v3.95513h-.8122l-.2272-.8131h-.0427c-.2523.3179-.5185.5504-.7959.6987-.2775.1483-.6616.2225-1.1525.2225-.5272 0-.9628-.142-1.3093-.4286-.3465-.2853-.5198-.7314-.5198-1.3385 0-.5995.226-1.05315.6767-1.35981.4507-.30666 1.1386-.47507 2.0626-.50398l.9955-.03267v-.32552c0-.42605-.0979-.72768-.2925-.90489-.1946-.17721-.4695-.26518-.8223-.26518-.2962 0-.5812.04273-.8549.12945-.2749.08672-.5373.19229-.7896.3142l-.3679-.83452c.2737-.14453.5901-.26518.9466-.36321.3565-.09677.7306-.14453 1.1198-.14453zm1.0508 3.14199l-.7796.02136c-.6641.02891-1.1236.14077-1.3797.33561-.2561.1948-.3841.4625-.3841.8018 0 .3041.0904.5241.2711.6611.1808.137.4143.2061.703.2061.447 0 .8211-.1257 1.1211-.3796.2988-.2526.4494-.6321.4494-1.1374v-.50897h-.0012zM96.9323 6.67264c.231 0 .4444.01759.639.05404l-.1192 1.0733c-.1883-.05027-.3829-.0754-.5851-.0754-.2962 0-.5699.07163-.8222.21617-.2524.14453-.457.3519-.6114.62337-.1557.27147-.2323.59823-.2323.9803v3.07788h-1.1474V6.78072h.9089l.1519 1.04063h.0427c.1808-.31043.4218-.57938.7256-.80812.3038-.22748.6528-.34059 1.0495-.34059zM100.061 4.38528v4.11853c0 .14453-.008.31797-.022.52031-.015.20234-.025.38332-.032.54168h.032c.08-.10808.19-.25136.331-.42857.14-.17721.265-.32299.372-.43862l1.787-1.91787h1.332l-2.349 2.50354 2.501 3.33802h-1.354l-1.927-2.6116-.67.563v2.0486h-1.1361V4.38528h1.1351zM107.54 6.67264c.765 0 1.367.23628 1.808.71009.439.47381.66 1.11855.66 1.93421v.62839h-3.918c.014.59947.171 1.05827.471 1.37617.299.318.719.4764 1.261.4764.375 0 .709-.034 1.001-.1031.293-.0691.594-.1722.904-.3092v.9539c-.296.137-.592.2363-.887.2979-.297.0616-.649.0917-1.061.0917-.563 0-1.061-.1118-1.494-.3355-.433-.2237-.771-.5568-1.012-.9967-.242-.4411-.363-.9891-.363-1.64762 0-.65731.109-1.21407.33-1.66903.22-.45496.526-.80435.921-1.04566.393-.2413.853-.36195 1.379-.36195zm0 .88855c-.411 0-.74.13322-.99.40092-.249.2677-.396.64599-.438 1.1374h2.749c-.008-.45496-.118-.82571-.33-1.11101-.212-.28529-.542-.42731-.991-.42731zM113.808 11.7979c.326 0 .618-.0465.877-.1408v.8672c-.123.0578-.289.1068-.499.1458-.209.039-.419.0591-.627.0591-.318 0-.609-.0541-.872-.1622-.263-.108-.474-.2966-.634-.563-.158-.2677-.238-.6397-.238-1.116v-3.23h-.812v-.52032l.855-.43359.4-1.23543h.704V6.7795h1.667v.87724h-1.667v3.20736c0 .318.078.553.233.7051.156.1533.361.2287.613.2287zM120 10.9747c0 .5781-.207 1.0155-.623 1.3108-.415.2966-.998.4437-1.748.4437-.412 0-.764-.029-1.056-.0868-.293-.0578-.561-.1483-.807-.2714v-1.008c.252.1232.549.2325.892.3306.343.098.677.1457 1.002.1457.433 0 .746-.0691.936-.2061.191-.137.287-.3217.287-.553 0-.1307-.037-.2476-.108-.3519-.073-.1043-.207-.2136-.406-.3255-.198-.1118-.489-.24-.871-.3846-.375-.14449-.69-.29279-.947-.44486-.256-.15208-.453-.3318-.59-.54168-.136-.20989-.205-.47381-.205-.79053 0-.50523.203-.89358.611-1.16505.407-.27147.946-.40594 1.618-.40594.354 0 .688.03644 1.002.10808.314.07289.619.17344.914.30289l-.379.87724c-.253-.10808-.512-.20109-.78-.27649-.267-.07541-.537-.11437-.812-.11437-.707 0-1.061.20611-1.061.61834 0 .13699.042.25639.124.35693.083.1018.228.20235.433.30415.206.10054.493.22371.86.36824.354.13699.659.28027.916.42857.256.1483.453.32677.59.53668.139.2124.208.4763.208.7943z" fill="#fff"/></svg>