<svg width="128" height="27" viewBox="0 0 128 27" fill="none" xmlns="http://www.w3.org/2000/svg"><rect width="128" height="27" rx="13.5" fill="#fff"/><path d="M18.2737 16.13c.64 0 1.23-.15 1.76-.45.54-.31.96-.72 1.25-1.23l-1-.57c-.36.69-1.13 1.13-2.01 1.13-.75 0-1.35-.24-1.82-.71-.46-.47-.69-1.07-.69-1.8s.23-1.33.69-1.8c.47-.47 1.07-.71 1.82-.71.88 0 1.64.44 2.01 1.13l1-.58c-.6-1.03-1.74-1.67-3.01-1.67-1.05 0-1.93.35-2.62 1.05-.69.69-1.04 1.55-1.04 2.58s.35 1.89 1.04 2.59c.69.69 1.57 1.04 2.62 1.04zM23.2979 11h-1.08v5h1.08v-2.52c0-.51.15-.88.46-1.1.31-.23.67-.33 1.08-.3v-1.17c-.75 0-1.27.31-1.54.93V11zm6.9336 2.96c.03-.19.04-.34.04-.45 0-.73-.24-1.36-.71-1.87s-1.07-.77-1.8-.77c-.77 0-1.41.25-1.9.76-.49.5-.74 1.12-.74 1.87 0 .76.25 1.39.75 1.89.5.49 1.16.74 1.97.74.97 0 1.7-.36 2.19-1.09l-.89-.52c-.29.41-.72.62-1.29.62-.83 0-1.44-.42-1.6-1.18h3.98zm-3.99-.88c.15-.76.71-1.23 1.51-1.23.71 0 1.28.42 1.43 1.23h-2.94zm8.911-1.37c-.41-.56-.99-.84-1.75-.84-.69 0-1.27.25-1.76.76s-.73 1.13-.73 1.87c0 .73.24 1.36.73 1.87s1.07.76 1.76.76c.76 0 1.34-.28 1.75-.85V16h1.08v-5h-1.08v.71zm-2.71 2.94c-.3-.31-.45-.69-.45-1.15 0-.46.15-.84.45-1.14.3-.31.68-.46 1.13-.46.45 0 .83.15 1.13.46.3.3.45.68.45 1.14 0 .46-.15.84-.45 1.15-.3.3-.68.45-1.13.45-.45 0-.83-.15-1.13-.45zM40.2813 11h-1.24V9.6l-1.08.32V11h-.92v1.04h.92v2.4c0 1.31.67 1.76 2.32 1.56v-.97c-.82.04-1.24.05-1.24-.59v-2.4h1.24V11zm5.6045 2.96c.03-.19.04-.34.04-.45 0-.73-.24-1.36-.71-1.87s-1.07-.77-1.8-.77c-.77 0-1.41.25-1.9.76-.49.5-.74 1.12-.74 1.87 0 .76.25 1.39.75 1.89.5.49 1.16.74 1.97.74.97 0 1.7-.36 2.19-1.09l-.89-.52c-.29.41-.72.62-1.29.62-.83 0-1.44-.42-1.6-1.18h3.98zm-3.99-.88c.15-.76.71-1.23 1.51-1.23.71 0 1.28.42 1.43 1.23h-2.94zm11.4403-1.37c-.41-.56-.99-.84-1.75-.84-.69 0-1.27.25-1.76.76s-.73 1.13-.73 1.87c0 .73.24 1.36.73 1.87s1.07.76 1.76.76c.76 0 1.34-.28 1.75-.85V16h1.08v-5h-1.08v.71zm-2.71 2.94c-.3-.31-.45-.69-.45-1.15 0-.46.15-.84.45-1.14.3-.31.68-.46 1.13-.46.45 0 .83.15 1.13.46.3.3.45.68.45 1.14 0 .46-.15.84-.45 1.15-.3.3-.68.45-1.13.45-.45 0-.83-.15-1.13-.45zM59.2549 16V8.7h-1.08V16h1.08zm2.274-5.95c.28-.28.28-.7.01-.97-.27-.28-.71-.28-.98 0-.27.27-.27.69 0 .97.28.27.7.27.97 0zm.06 5.95v-5h-1.08v5h1.08zm3.254-1.2l-1.4-3.8h-1.18l1.95 5h1.25l1.95-5h-1.18l-1.39 3.8zm7.8886-.84c.03-.19.04-.34.04-.45 0-.73-.24-1.36-.71-1.87s-1.07-.77-1.8-.77c-.77 0-1.41.25-1.9.76-.49.5-.74 1.12-.74 1.87 0 .76.25 1.39.75 1.89.5.49 1.16.74 1.97.74.97 0 1.7-.36 2.19-1.09l-.89-.52c-.29.41-.72.62-1.29.62-.83 0-1.44-.42-1.6-1.18h3.98zm-3.99-.88c.15-.76.71-1.23 1.51-1.23.71 0 1.28.42 1.43 1.23h-2.94zm11.4403-1.37c-.41-.56-.99-.84-1.75-.84-.69 0-1.27.25-1.76.76s-.73 1.13-.73 1.87c0 .73.24 1.36.73 1.87s1.07.76 1.76.76c.76 0 1.34-.28 1.75-.85V16h1.08v-5h-1.08v.71zm-2.71 2.94c-.3-.31-.45-.69-.45-1.15 0-.46.15-.84.45-1.14.3-.31.68-.46 1.13-.46.45 0 .83.15 1.13.46.3.3.45.68.45 1.14 0 .46-.15.84-.45 1.15-.3.3-.68.45-1.13.45-.45 0-.83-.15-1.13-.45zm7.4088 1.48c.97 0 1.82-.5 2.25-1.3l-.93-.53c-.24.47-.74.77-1.33.77-.44 0-.81-.15-1.11-.45-.29-.3-.44-.67-.44-1.12 0-.45.15-.82.44-1.12.3-.3.67-.45 1.11-.45.6 0 1.08.29 1.31.77l.93-.54c-.4-.79-1.26-1.29-2.23-1.29-.75 0-1.38.25-1.89.76-.5.5-.75 1.12-.75 1.87 0 .74.25 1.36.75 1.87.51.51 1.14.76 1.89.76zm5.3125 0c.97 0 1.82-.5 2.25-1.3l-.93-.53c-.24.47-.74.77-1.33.77-.44 0-.81-.15-1.11-.45-.29-.3-.44-.67-.44-1.12 0-.45.15-.82.44-1.12.3-.3.67-.45 1.11-.45.6 0 1.08.29 1.31.77l.93-.54c-.4-.79-1.26-1.29-2.23-1.29-.75 0-1.38.25-1.89.76-.5.5-.75 1.12-.75 1.87 0 .74.25 1.36.75 1.87.51.51 1.14.76 1.89.76zm5.3125 0c.74 0 1.36-.25 1.87-.76s.77-1.13.77-1.87c0-.74-.26-1.36-.77-1.87s-1.13-.76-1.87-.76c-.73 0-1.36.25-1.87.76s-.77 1.13-.77 1.87c0 .74.26 1.36.77 1.87s1.14.76 1.87.76zm-1.11-1.5c-.3-.3-.45-.68-.45-1.13 0-.45.15-.83.45-1.13.3-.3.67-.45 1.11-.45.44 0 .81.15 1.11.45.3.3.45.68.45 1.13 0 .45-.15.83-.45 1.13-.3.3-.67.45-1.11.45-.44 0-.81-.15-1.11-.45zm8.0964-.95c0 .97-.51 1.44-1.27 1.44-.69 0-1.12-.41-1.12-1.16V11h-1.0798v3.07c0 1.28.77 2.06 1.9198 2.06.71 0 1.22-.26 1.55-.77V16h1.08v-5h-1.08v2.68zm4.973-2.81c-.71 0-1.22.26-1.55.77V11h-1.08v5h1.08v-2.68c0-.97.51-1.44 1.27-1.44.69 0 1.12.41 1.12 1.16V16h1.08v-3.07c0-1.28-.77-2.06-1.92-2.06zm5.873.13h-1.24V9.6l-1.08.32V11h-.92v1.04h.92v2.4c0 1.31.67 1.76 2.32 1.56v-.97c-.82.04-1.24.05-1.24-.59v-2.4h1.24V11z" fill="#3949A7"/></svg>