<svg width="37" height="37" viewBox="0 0 37 37" fill="none" xmlns="http://www.w3.org/2000/svg"><circle cx="18.434" cy="18.3969" r="17.6215" fill="#fff"/><path d="M21.8397 11.9357c-.2977 0-.5389.2411-.5389.5388v2.762c0 .2977.2412.5388.5389.5388.2977 0 .5388-.2411.5388-.5388v-2.1999c3.105.2736 5.5489 2.889 5.5489 6.0646 0 3.3574-2.7314 6.0878-6.0879 6.0878-3.3564.0009-6.0878-2.7295-6.0878-6.0869 0-1.9374.9358-3.7765 2.5023-4.9211.2402-.1753.293-.5129.1177-.7531-.1752-.2402-.5128-.2931-.7531-.1178-1.8437 1.3467-2.9445 3.5113-2.9445 5.792 0 3.952 3.2145 7.1665 7.1664 7.1665 3.952 0 7.1665-3.2145 7.1665-7.1665-.001-3.9519-3.2155-7.1664-7.1674-7.1664h.0001z" fill="#00CF80"/><path d="M18.2288 17.0776c-.1502.2578-.063.5871.1948.7373l3.0105 1.7538c.0854.0501.179.0733.2708.0733.1855 0 .3664-.0955.4665-.268.1503-.2579.0631-.5871-.1947-.7374l-3.0106-1.7537c-.2578-.1503-.588-.0631-.7373.1947zM8.69873 15.5453h4.98597c.2624 0 .4748-.2124.4748-.4748 0-.2625-.2124-.4749-.4748-.4749H8.69873c-.26248 0-.47485.2124-.47485.4749 0 .2624.21238.4748.47485.4748zM7.74859 18.0755h4.98591c.2625 0 .4749-.2124.4749-.4749 0-.2624-.2124-.4748-.4749-.4748H7.74859c-.26247 0-.47485.2124-.47485.4748 0 .2616.21239.4749.47485.4749zM13.2094 20.1298c0-.2625-.2124-.4749-.4749-.4749H7.74859c-.26247 0-.47485.2124-.47485.4749 0 .2624.21239.4748.47485.4748h4.98591c.2616 0 .4749-.2124.4749-.4748zM14.1595 22.6597c0-.2625-.2124-.4748-.4748-.4748H8.69873c-.26248 0-.47485.2123-.47485.4748s.21238.4749.47485.4749h4.98597c.2615 0 .4748-.2124.4748-.4749z" fill="#00CF80"/></svg>