<svg width="244" height="46" viewBox="0 0 244 46" fill="none" xmlns="http://www.w3.org/2000/svg"><path d="M4.872 1.2H1.56V18h9.72v-3.168H4.872V1.2zm19.5752 12.072c.072-.456.12-.864.12-1.272 0-1.8-.576-3.288-1.728-4.512-1.128-1.224-2.592-1.824-4.344-1.824-1.848 0-3.384.6-4.56 1.824-1.176 1.2-1.776 2.712-1.776 4.512 0 1.824.6 3.336 1.8 4.536 1.2 1.2 2.784 1.8 4.776 1.8 2.304 0 4.056-.864 5.232-2.568l-2.496-1.44c-.6.792-1.512 1.2-2.688 1.2-1.848 0-2.976-.744-3.384-2.256h9.048zm-9.096-2.4c.36-1.536 1.488-2.424 3.144-2.424 1.416 0 2.616.792 2.976 2.424h-6.12zM33.2409 6h-2.712V2.64l-3.096.936V6h-2.088v2.976h2.088v4.992c0 3.288 1.56 4.512 5.808 4.032v-2.808c-1.776.096-2.712.072-2.712-1.224V8.976h2.712V6zm3.3482-4.824l-.96 6.672h2.52l1.8-6.672h-3.36zm6.8938 8.232c0-.6.6-.984 1.392-.984.888 0 1.536.408 1.92 1.224l2.64-1.44c-.936-1.632-2.616-2.544-4.56-2.544-1.296 0-2.376.336-3.264 1.032-.864.672-1.296 1.608-1.296 2.784 0 2.496 2.232 3.24 4.008 3.696 1.224.312 2.184.672 2.184 1.32 0 .696-.552 1.032-1.656 1.032-1.224 0-1.992-.528-2.352-1.56l-2.688 1.512c.888 1.896 2.568 2.856 5.04 2.856 1.368 0 2.52-.336 3.432-.984.936-.672 1.392-1.632 1.392-2.856.024-2.568-2.256-3.408-4.008-3.768-1.224-.312-2.184-.672-2.184-1.32zm23.4923-1.92c-.912-1.224-2.184-1.824-3.84-1.824-1.68 0-3.096.6-4.248 1.8-1.152 1.2-1.728 2.64-1.728 4.344 0 1.704.576 3.168 1.704 4.368 1.152 1.176 2.568 1.776 4.272 1.776 1.656 0 2.928-.6 3.84-1.824v1.296c0 1.896-1.2 2.952-3.144 2.952-1.488 0-2.544-.552-3.144-1.68l-2.64 1.512c1.056 1.92 3.096 2.928 5.688 2.928 1.728 0 3.192-.48 4.416-1.464 1.224-.984 1.848-2.4 1.848-4.248V6h-3.024v1.488zm0 4.32c0 1.92-1.416 3.288-3.36 3.288s-3.36-1.368-3.36-3.288c0-.936.312-1.728.936-2.328.648-.624 1.44-.936 2.424-.936s1.776.312 2.4.936c.648.6.96 1.392.96 2.328zm14.9514-4.392c-.936-1.176-2.232-1.752-3.912-1.752-1.608 0-2.976.624-4.128 1.848-1.128 1.224-1.704 2.712-1.704 4.488 0 1.776.576 3.288 1.704 4.512 1.152 1.224 2.52 1.824 4.128 1.824 1.68 0 2.976-.576 3.912-1.752V18h3.096V6h-3.096v1.416zm-5.712 7.032c-.624-.648-.936-1.464-.936-2.448s.312-1.8.936-2.424c.624-.648 1.416-.96 2.376-.96s1.752.312 2.376.96c.648.624.96 1.44.96 2.424s-.312 1.8-.96 2.448c-.624.624-1.416.936-2.376.936s-1.752-.312-2.376-.936zM89.3661 4.56c1.056 0 1.92-.864 1.92-1.896s-.864-1.920001-1.92-1.920001c-1.032 0-1.896.888001-1.896 1.920001s.864 1.896 1.896 1.896zm1.56 13.44V6h-3.096v12h3.096zm9.5059-12.336c-1.6322 0-2.8322.552-3.5762 1.68V6h-3.096v12h3.096v-6.48c0-1.992 1.032-2.976 2.64-2.976 1.4402 0 2.3762.864 2.3762 2.472V18h3.096v-7.368c0-1.56-.432-2.76-1.296-3.648-.84-.888-1.92-1.32-3.24-1.32zM120.475 6h-2.712V2.64l-3.096.936V6h-2.088v2.976h2.088v4.992c0 3.288 1.56 4.512 5.808 4.032v-2.808c-1.776.096-2.712.072-2.712-1.224V8.976h2.712V6zm5.467 0h-3.096v12h3.096v-5.736c0-1.152.36-1.968 1.104-2.472.744-.504 1.608-.696 2.544-.576V5.76c-1.632 0-3.072.768-3.648 2.304V6zm14.133 1.416c-.936-1.176-2.232-1.752-3.912-1.752-1.608 0-2.976.624-4.128 1.848-1.128 1.224-1.704 2.712-1.704 4.488 0 1.776.576 3.288 1.704 4.512 1.152 1.224 2.52 1.824 4.128 1.824 1.68 0 2.976-.576 3.912-1.752V18h3.096V6h-3.096v1.416zm-5.712 7.032c-.624-.648-.936-1.464-.936-2.448s.312-1.8.936-2.424c.624-.648 1.416-.96 2.376-.96s1.752.312 2.376.96c.648.624.96 1.44.96 2.424s-.312 1.8-.96 2.448c-.624.624-1.416.936-2.376.936s-1.752-.312-2.376-.936zm20.712-7.032c-.912-1.176-2.208-1.752-3.888-1.752-1.608 0-3 .624-4.152 1.848-1.128 1.224-1.704 2.712-1.704 4.488 0 1.776.576 3.288 1.704 4.512 1.152 1.224 2.544 1.824 4.152 1.824 1.68 0 2.976-.576 3.888-1.752V18h3.096V1.2h-3.096v6.216zm-5.712 7.032c-.624-.648-.936-1.464-.936-2.448s.312-1.8.936-2.424c.648-.648 1.44-.96 2.4-.96s1.752.312 2.376.96c.624.624.936 1.44.936 2.424s-.312 1.8-.936 2.448c-.624.624-1.416.936-2.376.936s-1.752-.312-2.4-.936zm13.175-9.888c1.056 0 1.92-.864 1.92-1.896s-.864-1.920001-1.92-1.920001c-1.032 0-1.896.888001-1.896 1.920001s.864 1.896 1.896 1.896zm1.56 13.44V6h-3.096v12h3.096zm9.506-12.336c-1.632 0-2.832.552-3.576 1.68V6h-3.096v12h3.096v-6.48c0-1.992 1.032-2.976 2.64-2.976 1.44 0 2.376.864 2.376 2.472V18h3.096v-7.368c0-1.56-.432-2.76-1.296-3.648-.84-.888-1.92-1.32-3.24-1.32zm16.371 1.824c-.912-1.224-2.184-1.824-3.84-1.824-1.68 0-3.096.6-4.248 1.8-1.152 1.2-1.728 2.64-1.728 4.344 0 1.704.576 3.168 1.704 4.368 1.152 1.176 2.568 1.776 4.272 1.776 1.656 0 2.928-.6 3.84-1.824v1.296c0 1.896-1.2 2.952-3.144 2.952-1.488 0-2.544-.552-3.144-1.68l-2.64 1.512c1.056 1.92 3.096 2.928 5.688 2.928 1.728 0 3.192-.48 4.416-1.464 1.224-.984 1.848-2.4 1.848-4.248V6h-3.024v1.488zm0 4.32c0 1.92-1.416 3.288-3.36 3.288s-3.36-1.368-3.36-3.288c0-.936.312-1.728.936-2.328.648-.624 1.44-.936 2.424-.936s1.776.312 2.4.936c.648.6.96 1.392.96 2.328zM14.688 27.664c-1.584 0-2.784.576-3.576 1.728-.696-1.152-1.8-1.728-3.264-1.728-1.512 0-2.616.528-3.336 1.608V28H1.416v12h3.096v-6.744c0-1.752.888-2.712 2.256-2.712 1.272 0 2.016.84 2.016 2.28V40h3.096v-6.744c0-1.752.816-2.712 2.232-2.712 1.272 0 2.016.84 2.016 2.28V40h3.096v-7.392c0-3-1.776-4.944-4.536-4.944zm17.3895 10.848c1.224-1.224 1.848-2.736 1.848-4.512 0-1.776-.624-3.264-1.848-4.488-1.224-1.224-2.736-1.848-4.512-1.848-1.776 0-3.288.624-4.512 1.848-1.224 1.224-1.824 2.712-1.824 4.488 0 1.776.6 3.288 1.824 4.512 1.224 1.224 2.736 1.824 4.512 1.824 1.776 0 3.288-.6 4.512-1.824zm-6.84-2.136c-.6-.624-.912-1.416-.912-2.376s.312-1.752.912-2.376c.624-.624 1.392-.936 2.328-.936.936 0 1.704.312 2.328.936.624.624.936 1.416.936 2.376s-.312 1.752-.936 2.376c-.624.624-1.392.936-2.328.936-.936 0-1.704-.312-2.328-.936zm24.138-8.712c-1.584 0-2.784.576-3.576 1.728-.696-1.152-1.8-1.728-3.264-1.728-1.512 0-2.616.528-3.336 1.608V28h-3.096v12h3.096v-6.744c0-1.752.888-2.712 2.256-2.712 1.272 0 2.016.84 2.016 2.28V40h3.096v-6.744c0-1.752.816-2.712 2.232-2.712 1.272 0 2.016.84 2.016 2.28V40h3.096v-7.392c0-3-1.776-4.944-4.536-4.944zm18.8295 7.608c.072-.456.12-.864.12-1.272 0-1.8-.576-3.288-1.728-4.512-1.128-1.224-2.592-1.824-4.344-1.824-1.848 0-3.384.6-4.56 1.824-1.176 1.2-1.776 2.712-1.776 4.512 0 1.824.6 3.336 1.8 4.536 1.2 1.2 2.784 1.8 4.776 1.8 2.304 0 4.056-.864 5.232-2.568l-2.496-1.44c-.6.792-1.512 1.2-2.688 1.2-1.848 0-2.976-.744-3.384-2.256h9.048zm-9.096-2.4c.36-1.536 1.488-2.424 3.144-2.424 1.416 0 2.616.792 2.976 2.424h-6.12zm18.0493-5.208c-1.632 0-2.832.552-3.576 1.68V28h-3.096v12h3.096v-6.48c0-1.992 1.032-2.976 2.64-2.976 1.44 0 2.376.864 2.376 2.472V40h3.096v-7.368c0-1.56-.432-2.76-1.296-3.648-.84-.888-1.92-1.32-3.24-1.32zM91.2019 28h-2.712v-3.36l-3.096.936V28h-2.088v2.976h2.088v4.992c0 3.288 1.56 4.512 5.808 4.032v-2.808c-1.776.096-2.712.072-2.712-1.224v-4.992h2.712V28zm10.2901 6.48c0 1.992-1.032 2.976-2.6397 2.976-1.44 0-2.376-.864-2.376-2.472V28h-3.096v7.368c0 1.56.432 2.76 1.272 3.648.864.888 1.944 1.32 3.264 1.32 1.632 0 2.8317-.552 3.5757-1.68V40h3.096V28h-3.096v6.48zm19.204-6.816c-1.584 0-2.784.576-3.576 1.728-.696-1.152-1.8-1.728-3.264-1.728-1.512 0-2.616.528-3.336 1.608V28h-3.096v12h3.096v-6.744c0-1.752.888-2.712 2.256-2.712 1.272 0 2.016.84 2.016 2.28V40h3.096v-6.744c0-1.752.816-2.712 2.232-2.712 1.272 0 2.016.84 2.016 2.28V40h3.096v-7.392c0-3-1.776-4.944-4.536-4.944zm20.029.336h-2.712v-3.36l-3.096.936V28h-2.088v2.976h2.088v4.992c0 3.288 1.56 4.512 5.808 4.032v-2.808c-1.776.096-2.712.072-2.712-1.224v-4.992h2.712V28zm12.032 10.512c1.224-1.224 1.848-2.736 1.848-4.512 0-1.776-.624-3.264-1.848-4.488-1.224-1.224-2.736-1.848-4.512-1.848-1.776 0-3.288.624-4.512 1.848-1.224 1.224-1.824 2.712-1.824 4.488 0 1.776.6 3.288 1.824 4.512 1.224 1.224 2.736 1.824 4.512 1.824 1.776 0 3.288-.6 4.512-1.824zm-6.84-2.136c-.6-.624-.912-1.416-.912-2.376s.312-1.752.912-2.376c.624-.624 1.392-.936 2.328-.936.936 0 1.704.312 2.328.936.624.624.936 1.416.936 2.376s-.312 1.752-.936 2.376c-.624.624-1.392.936-2.328.936-.936 0-1.704-.312-2.328-.936zm20.058-6.888c-.912-1.224-2.184-1.824-3.84-1.824-1.68 0-3.096.6-4.248 1.8-1.152 1.2-1.728 2.64-1.728 4.344 0 1.704.576 3.168 1.704 4.368 1.152 1.176 2.568 1.776 4.272 1.776 1.656 0 2.928-.6 3.84-1.824v1.296c0 1.896-1.2 2.952-3.144 2.952-1.488 0-2.544-.552-3.144-1.68l-2.64 1.512c1.056 1.92 3.096 2.928 5.688 2.928 1.728 0 3.192-.48 4.416-1.464 1.224-.984 1.848-2.4 1.848-4.248V28h-3.024v1.488zm0 4.32c0 1.92-1.416 3.288-3.36 3.288s-3.36-1.368-3.36-3.288c0-.936.312-1.728.936-2.328.648-.624 1.44-.936 2.424-.936s1.776.312 2.4.936c.648.6.96 1.392.96 2.328zm17.496 1.464c.072-.456.12-.864.12-1.272 0-1.8-.576-3.288-1.728-4.512-1.128-1.224-2.592-1.824-4.344-1.824-1.848 0-3.384.6-4.56 1.824-1.176 1.2-1.776 2.712-1.776 4.512 0 1.824.6 3.336 1.8 4.536 1.2 1.2 2.784 1.8 4.776 1.8 2.304 0 4.056-.864 5.232-2.568l-2.496-1.44c-.6.792-1.512 1.2-2.688 1.2-1.848 0-2.976-.744-3.384-2.256h9.048zm-9.096-2.4c.36-1.536 1.488-2.424 3.144-2.424 1.416 0 2.616.792 2.976 2.424h-6.12zM192.264 28h-2.712v-3.36l-3.096.936V28h-2.088v2.976h2.088v4.992c0 3.288 1.56 4.512 5.808 4.032v-2.808c-1.776.096-2.712.072-2.712-1.224v-4.992h2.712V28zm8.855-.336c-1.632 0-2.832.552-3.576 1.68V23.2h-3.096V40h3.096v-6.48c0-1.992 1.032-2.976 2.64-2.976 1.44 0 2.376.864 2.376 2.472V40h3.096v-7.368c0-1.56-.432-2.76-1.296-3.648-.84-.888-1.92-1.32-3.24-1.32zm18.844 7.608c.072-.456.12-.864.12-1.272 0-1.8-.576-3.288-1.728-4.512-1.128-1.224-2.592-1.824-4.344-1.824-1.848 0-3.384.6-4.56 1.824-1.176 1.2-1.776 2.712-1.776 4.512 0 1.824.6 3.336 1.8 4.536 1.2 1.2 2.784 1.8 4.776 1.8 2.304 0 4.056-.864 5.232-2.568l-2.496-1.44c-.6.792-1.512 1.2-2.688 1.2-1.848 0-2.976-.744-3.384-2.256h9.048zm-9.096-2.4c.36-1.536 1.488-2.424 3.144-2.424 1.416 0 2.616.792 2.976 2.424h-6.12zM225.34 28h-3.096v12h3.096v-5.736c0-1.152.36-1.968 1.104-2.472.744-.504 1.608-.696 2.544-.576V27.76c-1.632 0-3.072.768-3.648 2.304V28z" fill="#fff"/></svg>