<svg width="173" height="34" viewBox="0 0 173 34" fill="none" xmlns="http://www.w3.org/2000/svg"><path d="M3.576 13.084c-.552 0-1.048-.096-1.488-.288-.432-.2-.772-.472-1.02-.816-.248-.352-.376-.756-.384-1.212h1.164c.04.392.2.724.48.996.288.264.704.396 1.248.396.52 0 .928-.128 1.224-.384.304-.264.456-.6.456-1.008 0-.32-.088-.58-.264-.78-.176-.2-.396-.352-.66-.456-.264-.104-.62-.216-1.068-.336-.552-.144-.996-.288-1.332-.432-.328-.144-.612-.368-.852-.672C.848 7.78.732 7.364.732 6.844c0-.456.116-.86.348-1.212.232-.352.556-.624.972-.816.424-.192.908-.288 1.452-.288.784 0 1.424.196 1.92.588.504.392.788.912.852 1.56h-1.2c-.04-.32-.208-.6-.504-.84-.296-.248-.688-.372-1.176-.372-.456 0-.828.12-1.116.36-.288.232-.432.56-.432.984 0 .304.084.552.252.744.176.192.388.34.636.444.256.096.612.208 1.068.336.552.152.996.304 1.332.456.336.144.624.372.864.684.24.304.36.72.36 1.248 0 .408-.108.792-.324 1.152-.216.36-.536.652-.96.876-.424.224-.924.336-1.5.336zm5.48297-5.448c.216-.376.536-.688.96003-.936.432-.256.932-.384 1.5-.384.584 0 1.112.14 1.584.42.48.28.856.676 1.128 1.188.272.504.408 1.092.408 1.764 0 .664-.136 1.256-.408 1.776-.272.52-.648.924-1.128 1.212-.472.288-1 .432-1.584.432-.56 0-1.056-.124-1.488-.372-.42403-.256-.74803-.572-.97203-.948v4.332h-1.092V6.424h1.092v1.212zM13.523 9.688c0-.496-.1-.928-.3-1.296-.2-.368-.472-.648-.816-.84-.336-.192-.708-.288-1.116-.288-.4 0-.772.1-1.116.3-.33603.192-.60803.476-.81603.852-.2.368-.3.796-.3 1.284 0 .496.1.932.3 1.308.208.368.48.652.81603.852.344.192.716.288 1.116.288.408 0 .78-.096 1.116-.288.344-.2.616-.484.816-.852.2-.376.3-.816.3-1.32zm3.6453-2.196c.192-.376.464-.668.816-.876.36-.208.796-.312 1.308-.312v1.128h-.288c-1.224 0-1.836.664-1.836 1.992V13h-1.092V6.424h1.092v1.068zm9.3846 1.968c0 .208-.012.428-.036.66h-5.256c.04.648.26 1.156.66 1.524.408.36.9.54 1.476.54.472 0 .864-.108 1.176-.324.32-.224.544-.52.672-.888h1.176c-.176.632-.528 1.148-1.056 1.548-.528.392-1.184.588-1.968.588-.624 0-1.184-.14-1.68-.42-.488-.28-.872-.676-1.152-1.188-.28-.52-.42-1.12-.42-1.8 0-.68.136-1.276.408-1.788.272-.512.652-.904 1.14-1.176.496-.28 1.064-.42 1.704-.42.624 0 1.176.136 1.656.408.48.272.848.648 1.104 1.128.264.472.396 1.008.396 1.608zm-1.128-.228c0-.416-.092-.772-.276-1.068-.184-.304-.436-.532-.756-.684-.312-.16-.66-.24-1.044-.24-.552 0-1.024.176-1.416.528-.384.352-.604.84-.66 1.464h4.152zm2.1614.456c0-.672.136-1.26.408-1.764.272-.512.644-.908 1.116-1.188.48-.28 1.012-.42 1.596-.42.576 0 1.076.124 1.5.372.424.248.74.56.948.936v-1.2h1.104V13h-1.104v-1.224c-.216.384-.54.704-.972.96-.424.248-.92.372-1.488.372-.584 0-1.112-.144-1.584-.432-.472-.288-.844-.692-1.116-1.212-.272-.52-.408-1.112-.408-1.776zm5.568.012c0-.496-.1-.928-.3-1.296-.2-.368-.472-.648-.816-.84-.336-.2-.708-.3-1.116-.3-.408 0-.78.096-1.116.288-.336.192-.604.472-.804.84-.2.368-.3.8-.3 1.296 0 .504.1.944.3 1.32.2.368.468.652.804.852.336.192.708.288 1.116.288.408 0 .78-.096 1.116-.288.344-.2.616-.484.816-.852.2-.376.3-.812.3-1.308zm2.5414-.012c0-.672.136-1.26.408-1.764.272-.512.644-.908 1.116-1.188.48-.28 1.016-.42 1.608-.42.512 0 .988.12 1.428.36.44.232.776.54 1.008.924V4.12h1.104V13h-1.104v-1.236c-.216.392-.536.716-.96.972-.424.248-.92.372-1.488.372-.584 0-1.116-.144-1.596-.432-.472-.288-.844-.692-1.116-1.212-.272-.52-.408-1.112-.408-1.776zm5.568.012c0-.496-.1-.928-.3-1.296-.2-.368-.472-.648-.816-.84-.336-.2-.708-.3-1.116-.3-.408 0-.78.096-1.116.288-.336.192-.604.472-.804.84-.2.368-.3.8-.3 1.296 0 .504.1.944.3 1.32.2.368.468.652.804.852.336.192.708.288 1.116.288.408 0 .78-.096 1.116-.288.344-.2.616-.484.816-.852.2-.376.3-.812.3-1.308zm5.2774 3.408c-.504 0-.956-.084-1.356-.252-.4-.176-.716-.416-.948-.72-.232-.312-.36-.668-.384-1.068h1.128c.032.328.184.596.456.804.28.208.644.312 1.092.312.416 0 .744-.092.984-.276.24-.184.36-.416.36-.696 0-.288-.128-.5-.384-.636-.256-.144-.652-.284-1.188-.42-.488-.128-.888-.256-1.2-.384-.304-.136-.568-.332-.792-.588-.216-.264-.324-.608-.324-1.032 0-.336.1-.644.3-.924.2-.28.484-.5.852-.66.368-.168.788-.252 1.26-.252.728 0 1.316.184 1.764.552.448.368.688.872.72 1.512h-1.092c-.024-.344-.164-.62-.42-.828-.248-.208-.584-.312-1.008-.312-.392 0-.704.084-.936.252-.232.168-.348.388-.348.66 0 .216.068.396.204.54.144.136.32.248.528.336.216.08.512.172.888.276.472.128.856.256 1.152.384.296.12.548.304.756.552.216.248.328.572.336.972 0 .36-.1.684-.3.972-.2.288-.484.516-.852.684-.36.16-.776.24-1.248.24zm9.8167-5.784h-1.38V13h-1.092V7.324h-.852v-.9h.852v-.468c0-.736.188-1.272.564-1.608.384-.344.996-.516 1.836-.516v.912c-.48 0-.82.096-1.02.288-.192.184-.288.492-.288.924v.468h1.38v.9zm2.3652.168c.192-.376.464-.668.816-.876.36-.208.796-.312 1.308-.312v1.128h-.288c-1.224 0-1.836.664-1.836 1.992V13h-1.092V6.424h1.092v1.068zm6.2526 5.616c-.616 0-1.176-.14-1.68-.42-.496-.28-.888-.676-1.176-1.188-.28-.52-.42-1.12-.42-1.8 0-.672.144-1.264.432-1.776.296-.52.696-.916 1.2-1.188.504-.28 1.068-.42 1.692-.42.624 0 1.188.14 1.692.42.504.272.9.664 1.188 1.176.296.512.444 1.108.444 1.788 0 .68-.152 1.28-.456 1.8-.296.512-.7.908-1.212 1.188-.512.28-1.08.42-1.704.42zm0-.96c.392 0 .76-.092 1.104-.276.344-.184.62-.46.828-.828.216-.368.324-.816.324-1.344 0-.528-.104-.976-.312-1.344-.208-.368-.48-.64-.816-.816-.336-.184-.7-.276-1.092-.276-.4 0-.768.092-1.104.276-.328.176-.592.448-.792.816-.2.368-.3.816-.3 1.344 0 .536.096.988.288 1.356.2.368.464.644.792.828.328.176.688.264 1.08.264zm12.7158-5.844c.512 0 .968.108 1.368.324.4.208.716.524.948.948.232.424.348.94.348 1.548V13h-1.08V9.28c0-.656-.164-1.156-.492-1.5-.32-.352-.756-.528-1.308-.528-.568 0-1.02.184-1.356.552-.336.36-.504.884-.504 1.572V13h-1.08V9.28c0-.656-.164-1.156-.492-1.5-.32-.352-.756-.528-1.308-.528-.568 0-1.02.184-1.356.552-.336.36-.504.884-.504 1.572V13h-1.092V6.424h1.092v.948c.216-.344.504-.608.864-.792.368-.184.772-.276 1.212-.276.552 0 1.04.124 1.464.372.424.248.74.612.948 1.092.184-.464.488-.824.912-1.08.424-.256.896-.384 1.416-.384zm7.4745 2.268c0-1.376.224-2.448.672-3.216.448-.776 1.232-1.164 2.352-1.164 1.112 0 1.892.388 2.34 1.164.448.768.672 1.84.672 3.216 0 1.4-.224 2.488-.672 3.264-.448.776-1.228 1.164-2.34 1.164-1.12 0-1.904-.388-2.352-1.164-.448-.776-.672-1.864-.672-3.264zm4.956 0c0-.696-.048-1.284-.144-1.764-.088-.488-.276-.88-.564-1.176-.28-.296-.688-.444-1.224-.444-.544 0-.96.148-1.248.444-.28.296-.468.688-.564 1.176-.088.48-.132 1.068-.132 1.764 0 .72.044 1.324.132 1.812.096.488.284.88.564 1.176.288.296.704.444 1.248.444.536 0 .944-.148 1.224-.444.288-.296.476-.688.564-1.176.096-.488.144-1.092.144-1.812zm3.1071 4.5c-.208 0-.384-.072-.528-.216-.144-.144-.216-.32-.216-.528 0-.208.072-.384.216-.528.144-.144.32-.216.528-.216.2 0 .368.072.504.216.144.144.216.32.216.528 0 .208-.072.384-.216.528-.136.144-.304.216-.504.216zm1.9916-4.5c0-1.376.224-2.448.672-3.216.448-.776 1.232-1.164 2.352-1.164 1.112 0 1.8924.388 2.3404 1.164.448.768.672 1.84.672 3.216 0 1.4-.224 2.488-.672 3.264-.448.776-1.2284 1.164-2.3404 1.164-1.12 0-1.904-.388-2.352-1.164-.448-.776-.672-1.864-.672-3.264zm4.9564 0c0-.696-.048-1.284-.144-1.764-.0884-.488-.2764-.88-.5644-1.176-.28-.296-.688-.444-1.224-.444-.544 0-.96.148-1.248.444-.28.296-.468.688-.564 1.176-.088.48-.132 1.068-.132 1.764 0 .72.044 1.324.132 1.812.096.488.284.88.564 1.176.288.296.704.444 1.248.444.536 0 .944-.148 1.224-.444.288-.296.476-.688.5644-1.176.096-.488.144-1.092.144-1.812zm7.05-.936c.216-.376.536-.688.96-.936.432-.256.932-.384 1.5-.384.584 0 1.112.14 1.584.42.48.28.856.676 1.128 1.188.272.504.408 1.092.408 1.764 0 .664-.136 1.256-.408 1.776-.272.52-.648.924-1.128 1.212-.472.288-1 .432-1.584.432-.56 0-1.056-.124-1.488-.372-.424-.256-.748-.572-.972-.948v4.332h-1.092V6.424h1.092v1.212zm4.464 2.052c0-.496-.1-.928-.3-1.296-.2-.368-.472-.648-.816-.84-.336-.192-.708-.288-1.116-.288-.4 0-.772.1-1.116.3-.336.192-.608.476-.816.852-.2.368-.3.796-.3 1.284 0 .496.1.932.3 1.308.208.368.48.652.816.852.344.192.716.288 1.116.288.408 0 .78-.096 1.116-.288.344-.2.616-.484.816-.852.2-.376.3-.816.3-1.32zm3.117-4.332c-.208 0-.384-.072-.528-.216-.144-.144-.216-.32-.216-.528 0-.208.072-.384.216-.528.144-.144.32-.216.528-.216.2 0 .368.072.504.216.144.144.216.32.216.528 0 .208-.072.384-.216.528-.136.144-.304.216-.504.216zm.528 1.068V13h-1.092V6.424h1.092zm2.953 1.212c.216-.376.536-.688.96-.936.432-.256.932-.384 1.5-.384.584 0 1.112.14 1.584.42.48.28.856.676 1.128 1.188.272.504.408 1.092.408 1.764 0 .664-.136 1.256-.408 1.776-.272.52-.648.924-1.128 1.212-.472.288-1 .432-1.584.432-.56 0-1.056-.124-1.488-.372-.424-.256-.748-.572-.972-.948v4.332h-1.092V6.424h1.092v1.212zm4.464 2.052c0-.496-.1-.928-.3-1.296-.2-.368-.472-.648-.816-.84-.336-.192-.708-.288-1.116-.288-.4 0-.772.1-1.116.3-.336.192-.608.476-.816.852-.2.368-.3.796-.3 1.284 0 .496.1.932.3 1.308.208.368.48.652.816.852.344.192.716.288 1.116.288.408 0 .78-.096 1.116-.288.344-.2.616-.484.816-.852.2-.376.3-.816.3-1.32zm4.882 3.42c-.504 0-.956-.084-1.356-.252-.4-.176-.716-.416-.948-.72-.232-.312-.36-.668-.384-1.068h1.128c.032.328.184.596.456.804.28.208.644.312 1.092.312.416 0 .744-.092.984-.276.24-.184.36-.416.36-.696 0-.288-.128-.5-.384-.636-.256-.144-.652-.284-1.188-.42-.488-.128-.888-.256-1.2-.384-.304-.136-.568-.332-.792-.588-.216-.264-.324-.608-.324-1.032 0-.336.1-.644.3-.924.2-.28.484-.5.852-.66.368-.168.788-.252 1.26-.252.728 0 1.316.184 1.764.552.448.368.688.872.72 1.512h-1.092c-.024-.344-.164-.62-.42-.828-.248-.208-.584-.312-1.008-.312-.392 0-.704.084-.936.252-.232.168-.348.388-.348.66 0 .216.068.396.204.54.144.136.32.248.528.336.216.08.512.172.888.276.472.128.856.256 1.152.384.296.12.548.304.756.552.216.248.328.572.336.972 0 .36-.1.684-.3.972-.2.288-.484.516-.852.684-.36.16-.776.24-1.248.24zm4.289-.036c-.208 0-.384-.072-.528-.216-.144-.144-.216-.32-.216-.528 0-.208.072-.384.216-.528.144-.144.32-.216.528-.216.2 0 .368.072.504.216.144.144.216.32.216.528 0 .208-.072.384-.216.528-.136.144-.304.216-.504.216zM5.328 30l-1.992-3.42h-1.32V30H.924v-8.364h2.7c.632 0 1.164.108 1.596.324.44.216.768.508.984.876.216.368.324.788.324 1.26 0 .576-.168 1.084-.504 1.524-.328.44-.824.732-1.488.876L6.636 30H5.328zm-3.312-4.296h1.608c.592 0 1.036-.144 1.332-.432.296-.296.444-.688.444-1.176 0-.496-.148-.88-.444-1.152-.288-.272-.732-.408-1.332-.408H2.016v3.168zm12.2088.756c0 .208-.012.428-.036.66H8.93278c.04.648.26 1.156.66 1.524.40802.36.90002.54 1.47602.54.472 0 .864-.108 1.176-.324.32-.224.544-.52.672-.888h1.176c-.176.632-.528 1.148-1.056 1.548-.528.392-1.184.588-1.968.588-.624 0-1.18402-.14-1.68002-.42-.488-.28-.872-.676-1.152-1.188-.28-.52-.42-1.12-.42-1.8 0-.68.136-1.276.408-1.788.272-.512.652-.904 1.14-1.176.496-.28 1.06402-.42 1.70402-.42.624 0 1.176.136 1.656.408.48.272.848.648 1.104 1.128.264.472.396 1.008.396 1.608zm-1.128-.228c0-.416-.092-.772-.276-1.068-.184-.304-.436-.532-.756-.684-.312-.16-.66-.24-1.044-.24-.552 0-1.02402.176-1.41602.528-.384.352-.604.84-.66 1.464h4.15202zm2.1614.456c0-.672.136-1.26.408-1.764.272-.512.644-.908 1.116-1.188.48-.28 1.012-.42 1.596-.42.576 0 1.076.124 1.5.372.424.248.74.56.948.936v-1.2h1.104V30h-1.104v-1.224c-.216.384-.54.704-.972.96-.424.248-.92.372-1.488.372-.584 0-1.112-.144-1.584-.432-.472-.288-.844-.692-1.116-1.212-.272-.52-.408-1.112-.408-1.776zm5.568.012c0-.496-.1-.928-.3-1.296-.2-.368-.472-.648-.816-.84-.336-.2-.708-.3-1.116-.3-.408 0-.78.096-1.116.288-.336.192-.604.472-.804.84-.2.368-.3.8-.3 1.296 0 .504.1.944.3 1.32.2.368.468.652.804.852.336.192.708.288 1.116.288.408 0 .78-.096 1.116-.288.344-.2.616-.484.816-.852.2-.376.3-.812.3-1.308zm4.0414-5.58V30h-1.092v-8.88h1.092zm6.4211 4.02v.924h-4.788v-.924h4.788zm3.3814-.816V28.2c0 .32.068.548.204.684.136.128.372.192.708.192h.804V30h-.984c-.608 0-1.064-.14-1.368-.42-.304-.28-.456-.74-.456-1.38v-3.876h-.852v-.9h.852v-1.656h1.092v1.656h1.716v.9h-1.716zm3.6031-1.968c-.208 0-.384-.072-.528-.216-.144-.144-.216-.32-.216-.528 0-.208.072-.384.216-.528.144-.144.32-.216.528-.216.2 0 .368.072.504.216.144.144.216.32.216.528 0 .208-.072.384-.216.528-.136.144-.304.216-.504.216zm.528 1.068V30h-1.092v-6.576h1.092zm9.7691-.12c.512 0 .968.108 1.368.324.4.208.716.524.948.948.232.424.348.94.348 1.548V30h-1.08v-3.72c0-.656-.164-1.156-.492-1.5-.32-.352-.756-.528-1.308-.528-.568 0-1.02.184-1.356.552-.336.36-.504.884-.504 1.572V30h-1.08v-3.72c0-.656-.164-1.156-.492-1.5-.32-.352-.756-.528-1.308-.528-.568 0-1.02.184-1.356.552-.336.36-.504.884-.504 1.572V30h-1.092v-6.576h1.092v.948c.216-.344.504-.608.864-.792.368-.184.772-.276 1.212-.276.552 0 1.04.124 1.464.372.424.248.74.612.948 1.092.184-.464.488-.824.912-1.08.424-.256.896-.384 1.416-.384zm10.4553 3.156c0 .208-.012.428-.036.66h-5.256c.04.648.26 1.156.66 1.524.408.36.9.54 1.476.54.472 0 .864-.108 1.176-.324.32-.224.544-.52.672-.888h1.176c-.176.632-.528 1.148-1.056 1.548-.528.392-1.184.588-1.968.588-.624 0-1.184-.14-1.68-.42-.488-.28-.872-.676-1.152-1.188-.28-.52-.42-1.12-.42-1.8 0-.68.136-1.276.408-1.788.272-.512.652-.904 1.14-1.176.496-.28 1.064-.42 1.704-.42.624 0 1.176.136 1.656.408.48.272.848.648 1.104 1.128.264.472.396 1.008.396 1.608zm-1.128-.228c0-.416-.092-.772-.276-1.068-.184-.304-.436-.532-.756-.684-.312-.16-.66-.24-1.044-.24-.552 0-1.024.176-1.416.528-.384.352-.604.84-.66 1.464h4.152zm7.1006-1.908V28.2c0 .32.068.548.204.684.136.128.372.192.708.192h.804V30h-.984c-.608 0-1.064-.14-1.368-.42-.304-.28-.456-.74-.456-1.38v-3.876h-.852v-.9h.852v-1.656h1.092v1.656h1.716v.9h-1.716zm4.1311.168c.192-.376.464-.668.816-.876.36-.208.796-.312 1.308-.312v1.128h-.288c-1.224 0-1.836.664-1.836 1.992V30h-1.092v-6.576h1.092v1.068zm2.9765 2.196c0-.672.136-1.26.408-1.764.272-.512.644-.908 1.116-1.188.48-.28 1.012-.42 1.596-.42.576 0 1.076.124 1.5.372.424.248.74.56.948.936v-1.2h1.104V30h-1.104v-1.224c-.216.384-.54.704-.972.96-.424.248-.92.372-1.488.372-.584 0-1.112-.144-1.584-.432-.472-.288-.844-.692-1.116-1.212-.272-.52-.408-1.112-.408-1.776zm5.568.012c0-.496-.1-.928-.3-1.296-.2-.368-.472-.648-.816-.84-.336-.2-.708-.3-1.116-.3-.408 0-.78.096-1.116.288-.336.192-.604.472-.804.84-.2.368-.3.8-.3 1.296 0 .504.1.944.3 1.32.2.368.468.652.804.852.336.192.708.288 1.116.288.408 0 .78-.096 1.116-.288.344-.2.616-.484.816-.852.2-.376.3-.812.3-1.308zm2.5414-.012c0-.672.136-1.26.408-1.764.272-.512.644-.908 1.116-1.188.48-.28 1.016-.42 1.608-.42.512 0 .988.12 1.428.36.44.232.776.54 1.008.924v-3.48h1.104V30h-1.104v-1.236c-.216.392-.536.716-.96.972-.424.248-.92.372-1.488.372-.584 0-1.116-.144-1.596-.432-.472-.288-.844-.692-1.116-1.212-.272-.52-.408-1.112-.408-1.776zm5.568.012c0-.496-.1-.928-.3-1.296-.2-.368-.472-.648-.816-.84-.336-.2-.708-.3-1.116-.3-.408 0-.78.096-1.116.288-.336.192-.604.472-.804.84-.2.368-.3.8-.3 1.296 0 .504.1.944.3 1.32.2.368.468.652.804.852.336.192.708.288 1.116.288.408 0 .78-.096 1.116-.288.344-.2.616-.484.816-.852.2-.376.3-.812.3-1.308zm8.9494-.24c0 .208-.012.428-.036.66h-5.256c.04.648.26 1.156.66 1.524.408.36.9.54 1.476.54.472 0 .864-.108 1.176-.324.32-.224.544-.52.672-.888h1.176c-.176.632-.528 1.148-1.056 1.548-.528.392-1.184.588-1.968.588-.624 0-1.184-.14-1.68-.42-.488-.28-.872-.676-1.152-1.188-.28-.52-.42-1.12-.42-1.8 0-.68.136-1.276.408-1.788.272-.512.652-.904 1.14-1.176.496-.28 1.064-.42 1.704-.42.624 0 1.176.136 1.656.408.48.272.848.648 1.104 1.128.264.472.396 1.008.396 1.608zm-1.128-.228c0-.416-.092-.772-.276-1.068-.184-.304-.436-.532-.756-.684-.312-.16-.66-.24-1.044-.24-.552 0-1.024.176-1.416.528-.384.352-.604.84-.66 1.464h4.152zm11.7684.228c0 .208-.012.428-.036.66h-5.256c.04.648.26 1.156.66 1.524.408.36.9.54 1.476.54.472 0 .864-.108 1.176-.324.32-.224.544-.52.672-.888h1.176c-.176.632-.528 1.148-1.056 1.548-.528.392-1.184.588-1.968.588-.624 0-1.184-.14-1.68-.42-.488-.28-.8718-.676-1.1518-1.188-.28-.52-.42-1.12-.42-1.8 0-.68.136-1.276.408-1.788.272-.512.6518-.904 1.1398-1.176.496-.28 1.064-.42 1.704-.42.624 0 1.176.136 1.656.408.48.272.848.648 1.104 1.128.264.472.396 1.008.396 1.608zm-1.128-.228c0-.416-.092-.772-.276-1.068-.184-.304-.436-.532-.756-.684-.312-.16-.66-.24-1.044-.24-.552 0-1.024.176-1.416.528-.384.352-.604.84-.66 1.464h4.152zM110.247 30l-1.56-2.448-1.5 2.448h-1.14l2.124-3.264-2.124-3.312h1.236l1.56 2.436 1.488-2.436h1.14l-2.112 3.252L111.483 30h-1.236zm8.31-3.54c0 .208-.012.428-.036.66h-5.256c.04.648.26 1.156.66 1.524.408.36.9.54 1.476.54.472 0 .864-.108 1.176-.324.32-.224.544-.52.672-.888h1.176c-.176.632-.528 1.148-1.056 1.548-.528.392-1.184.588-1.968.588-.624 0-1.184-.14-1.68-.42-.488-.28-.872-.676-1.152-1.188-.28-.52-.42-1.12-.42-1.8 0-.68.136-1.276.408-1.788.272-.512.652-.904 1.14-1.176.496-.28 1.064-.42 1.704-.42.624 0 1.176.136 1.656.408.48.272.848.648 1.104 1.128.264.472.396 1.008.396 1.608zm-1.128-.228c0-.416-.092-.772-.276-1.068-.184-.304-.436-.532-.756-.684-.312-.16-.66-.24-1.044-.24-.552 0-1.024.176-1.416.528-.384.352-.604.84-.66 1.464h4.152zm2.161.468c0-.68.136-1.272.408-1.776.272-.512.648-.908 1.128-1.188.488-.28 1.044-.42 1.668-.42.808 0 1.472.196 1.992.588.528.392.876.936 1.044 1.632h-1.176c-.112-.4-.332-.716-.66-.948-.32-.232-.72-.348-1.2-.348-.624 0-1.128.216-1.512.648-.384.424-.576 1.028-.576 1.812 0 .792.192 1.404.576 1.836.384.432.888.648 1.512.648.48 0 .88-.112 1.2-.336.32-.224.54-.544.66-.96h1.176c-.176.672-.528 1.212-1.056 1.62-.528.4-1.188.6-1.98.6-.624 0-1.18-.14-1.668-.42-.48-.28-.856-.676-1.128-1.188-.272-.512-.408-1.112-.408-1.8zm13.529-3.276V30h-1.092v-.972c-.208.336-.5.6-.876.792-.368.184-.776.276-1.224.276-.512 0-.972-.104-1.38-.312-.408-.216-.732-.536-.972-.96-.232-.424-.348-.94-.348-1.548v-3.852h1.08v3.708c0 .648.164 1.148.492 1.5.328.344.776.516 1.344.516.584 0 1.044-.18 1.38-.54.336-.36.504-.884.504-1.572v-3.612h1.092zm3.176.9V28.2c0 .32.068.548.204.684.136.128.372.192.708.192h.804V30h-.984c-.608 0-1.064-.14-1.368-.42-.304-.28-.456-.74-.456-1.38v-3.876h-.852v-.9h.852v-1.656h1.092v1.656h1.716v.9h-1.716zm3.603-1.968c-.208 0-.384-.072-.528-.216-.144-.144-.216-.32-.216-.528 0-.208.072-.384.216-.528.144-.144.32-.216.528-.216.2 0 .368.072.504.216.144.144.216.32.216.528 0 .208-.072.384-.216.528-.136.144-.304.216-.504.216zm.528 1.068V30h-1.092v-6.576h1.092zm4.729 6.684c-.616 0-1.176-.14-1.68-.42-.496-.28-.888-.676-1.176-1.188-.28-.52-.42-1.12-.42-1.8 0-.672.144-1.264.432-1.776.296-.52.696-.916 1.2-1.188.504-.28 1.068-.42 1.692-.42.624 0 1.188.14 1.692.42.504.272.9.664 1.188 1.176.296.512.444 1.108.444 1.788 0 .68-.152 1.28-.456 1.8-.296.512-.7.908-1.212 1.188-.512.28-1.08.42-1.704.42zm0-.96c.392 0 .76-.092 1.104-.276.344-.184.62-.46.828-.828.216-.368.324-.816.324-1.344 0-.528-.104-.976-.312-1.344-.208-.368-.48-.64-.816-.816-.336-.184-.7-.276-1.092-.276-.4 0-.768.092-1.104.276-.328.176-.592.448-.792.816-.2.368-.3.816-.3 1.344 0 .536.096.988.288 1.356.2.368.464.644.792.828.328.176.688.264 1.08.264zm8.012-5.844c.8 0 1.448.244 1.944.732.496.48.744 1.176.744 2.088V30h-1.08v-3.72c0-.656-.164-1.156-.492-1.5-.328-.352-.776-.528-1.344-.528-.576 0-1.036.18-1.38.54-.336.36-.504.884-.504 1.572V30h-1.092v-6.576h1.092v.936c.216-.336.508-.596.876-.78.376-.184.788-.276 1.236-.276zm4.82 6.768c-.208 0-.384-.072-.528-.216-.144-.144-.216-.32-.216-.528 0-.208.072-.384.216-.528.144-.144.32-.216.528-.216.2 0 .368.072.504.216.144.144.216.32.216.528 0 .208-.072.384-.216.528-.136.144-.304.216-.504.216z" fill="#fff"/></svg>