<svg width="36" height="36" viewBox="0 0 36 36" fill="none" xmlns="http://www.w3.org/2000/svg"><circle cx="18.1007" cy="18.2789" r="17.6215" fill="#fff"/><path d="M9.81159 15.5672c.03378.3277.31021.5779.64051.5766h.0675l4.4281-.4516h.0839l.0675-.0187.045-.0163.0676-.035.035-.0188-.0012-.0012c.0675-.0451.125-.1026.1701-.1701l.0225-.0351c.0138-.0212.025-.0437.035-.0675l.0163-.045v.0012c.0075-.0213.0137-.0425.0187-.065v-.0801l.4579-4.457c.0363-.354-.2202-.6705-.5742-.70671-.354-.03628-.6705.22141-.7067.57541l-.3203 3.0872-5.76411-5.76412c-.25018-.25018-.65548-.25018-.90565 0-.25016.25018-.25018.65548 0 .90564l5.76416 5.76418-3.0872.3202c-.3465.0425-.59546.354-.56043.7017l.00002.0001zM20.8083 26.5639h.0675c.3302.0012.6079-.2477.6405-.5767l.3202-3.0872 5.7641 5.7641c.2502.2502.6555.2502.9057 0 .2502-.2501.2502-.6554 0-.9056l-5.7642-5.7641 3.0873-.3203c.354-.0363.6117-.3527.5754-.7067s-.3528-.6104-.7068-.5742l-4.4345.4666h-.0838l-.0676.0187-.045.0163-.0676.035-.035.0188.0013.0012c-.0676.0451-.1251.1026-.1702.1702l-.0225.035c-.0125.0213-.025.0438-.035.0675l-.0163.0451c-.0075.02-.0137.0413-.0187.0638v.08l-.4641 4.4506c-.0363.3515.2189.6642.5691.7017l.0002.0002zM14.0546 22.9612c.1701-.0012.3328-.0688.4516-.1888l8.0957-8.0958c.2502-.2502.2502-.6555 0-.9056-.2501-.2502-.6567-.2502-.9068 0l-8.0923 8.0983c-.1813.1826-.2364.4578-.1376.6955.0989.2389.3315.3953.5892.3965l.0002-.0001z" fill="#00CF80"/></svg>