<svg width="146" height="11" viewBox="0 0 146 11" fill="none" xmlns="http://www.w3.org/2000/svg"><path opacity=".5" d="M3.87257 3.121v.518h-1.33V8h-.637V3.639H.568566v-.518H3.87257zm1.42111 1.666c.112-.21933.27066-.38967.476-.511.21-.12133.46433-.182.763-.182v.658h-.168c-.714 0-1.071.38733-1.071 1.162V8h-.637V4.164h.637v.623zM7.03 6.068c0-.392.07934-.735.238-1.029.15867-.29867.37567-.52967.651-.693.28-.16333.59034-.245.931-.245.336 0 .62767.07233.875.217.24734.14467.4317.32667.553.546v-.7h.644V8h-.644v-.714c-.126.224-.315.41067-.567.56-.24733.14467-.53666.217-.868.217-.34066 0-.64866-.084-.924-.252-.27533-.168-.49233-.40367-.651-.707-.15866-.30333-.238-.64867-.238-1.036zm3.248.007c0-.28933-.0583-.54133-.175-.756-.11666-.21467-.27533-.378-.476-.49-.196-.11667-.413-.175-.651-.175-.238 0-.455.056-.651.168-.196.112-.35233.27533-.469.49-.11666.21467-.175.46667-.175.756 0 .294.05834.55067.175.77.11667.21467.273.38033.469.497.196.112.413.168.651.168.238 0 .455-.056.651-.168.20067-.11667.35934-.28233.476-.497.1167-.21933.175-.47367.175-.763zm1.4825-.007c0-.392.0793-.735.238-1.029.1586-.29867.3756-.52967.651-.693.28-.16333.5926-.245.938-.245.2986 0 .5763.07.833.21.2566.13533.4526.315.588.539V2.82h.644V8h-.644v-.721c-.126.22867-.3127.41767-.56.567-.2474.14467-.5367.217-.868.217-.3407 0-.651-.084-.931-.252-.2754-.168-.4924-.40367-.651-.707-.1587-.30333-.238-.64867-.238-1.036zm3.248.007c0-.28933-.0584-.54133-.175-.756-.1167-.21467-.2754-.378-.476-.49-.196-.11667-.413-.175-.651-.175-.238 0-.455.056-.651.168-.196.112-.3524.27533-.469.49-.1167.21467-.175.46667-.175.756 0 .294.0583.55067.175.77.1166.21467.273.38033.469.497.196.112.413.168.651.168.238 0 .455-.056.651-.168.2006-.11667.3593-.28233.476-.497.1166-.21933.175-.47367.175-.763zm2.0494-2.534c-.1213 0-.224-.042-.308-.126-.084-.084-.126-.18667-.126-.308s.042-.224.126-.308c.084-.084.1867-.126.308-.126.1167 0 .2147.042.294.126.084.084.126.18667.126.308s-.042.224-.126.308c-.0793.084-.1773.126-.294.126zm.308.623V8h-.637V4.164h.637zm2.9547-.07c.4667 0 .8447.14233 1.134.427.2893.28.434.686.434 1.218V8h-.63V5.83c0-.38267-.0957-.67433-.287-.875-.1913-.20533-.4527-.308-.784-.308-.336 0-.6043.105-.805.315-.196.21-.294.51567-.294.917V8h-.637V4.164h.637v.546c.126-.196.2963-.34767.511-.455.2193-.10733.4597-.161.721-.161zm4.1905.007c.3314 0 .6207.07233.868.217.252.14467.4387.32667.56.546v-.7h.644v3.92c0 .35-.0746.66033-.224.931-.1493.27533-.364.49-.644.644-.2753.154-.5973.231-.966.231-.504 0-.924-.119-1.26-.357-.336-.238-.5343-.56233-.595-.973h.63c.07.23333.2147.42.434.56.2194.14467.483.217.791.217.35 0 .6347-.10967.854-.329.224-.21933.336-.52733.336-.924v-.805c-.126.224-.3126.41067-.56.56-.2473.14933-.5366.224-.868.224-.3406 0-.651-.084-.931-.252-.2753-.168-.4923-.40367-.651-.707-.1586-.30333-.238-.64867-.238-1.036 0-.392.0794-.735.238-1.029.1587-.29867.3757-.52967.651-.693.28-.16333.5904-.245.931-.245zm1.428 1.974c0-.28933-.0583-.54133-.175-.756-.1166-.21467-.2753-.378-.476-.49-.196-.11667-.413-.175-.651-.175-.238 0-.455.056-.651.168-.196.112-.3523.27533-.469.49-.1166.21467-.175.46667-.175.756 0 .294.0584.55067.175.77.1167.21467.273.38033.469.497.196.112.413.168.651.168.238 0 .455-.056.651-.168.2007-.11667.3594-.28233.476-.497.1167-.21933.175-.47367.175-.763zm5.2597 1.988c-.3593 0-.686-.08167-.98-.245-.2893-.16333-.518-.39433-.686-.693-.1633-.30333-.245-.65333-.245-1.05 0-.392.084-.73733.252-1.036.1727-.30333.406-.53433.7-.693.294-.16333.623-.245.987-.245s.693.08167.987.245c.294.15867.525.38733.693.686.1727.29867.259.64633.259 1.043 0 .39667-.0887.74667-.266 1.05-.1727.29867-.4083.52967-.707.693-.2987.16333-.63.245-.994.245zm0-.56c.2287 0 .4433-.05367.644-.161.2007-.10733.3617-.26833.483-.483.126-.21467.189-.476.189-.784 0-.308-.0607-.56933-.182-.784-.1213-.21467-.28-.37333-.476-.476-.196-.10733-.4083-.161-.637-.161-.2333 0-.448.05367-.644.161-.1913.10267-.3453.26133-.462.476-.1167.21467-.175.476-.175.784 0 .31267.056.57633.168.791.1167.21467.2707.37567.462.483.1913.10267.4013.154.63.154zm4.6736-3.409c.4666 0 .8446.14233 1.134.427.2893.28.434.686.434 1.218V8h-.63V5.83c0-.38267-.0957-.67433-.287-.875-.1914-.20533-.4527-.308-.784-.308-.336 0-.6044.105-.805.315-.196.21-.294.51567-.294.917V8h-.637V4.164h.637v.546c.126-.196.2963-.34767.511-.455.2193-.10733.4596-.161.721-.161zm9.0877 0c.2987 0 .5647.063.798.189.2333.12133.4177.30567.553.553.1353.24733.203.54833.203.903V8h-.63V5.83c0-.38267-.0957-.67433-.287-.875-.1867-.20533-.441-.308-.763-.308-.3313 0-.595.10733-.791.322-.196.21-.294.51567-.294.917V8h-.63V5.83c0-.38267-.0957-.67433-.287-.875-.1867-.20533-.441-.308-.763-.308-.3313 0-.595.10733-.791.322-.196.21-.294.51567-.294.917V8h-.637V4.164h.637v.553c.126-.20067.294-.35467.504-.462.2147-.10733.4503-.161.707-.161.322 0 .6067.07233.854.217.2473.14467.4317.357.553.637.1073-.27067.2847-.48067.532-.63.2473-.14933.5227-.224.826-.224zm2.3609 1.974c0-.392.0794-.735.238-1.029.1587-.29867.3757-.52967.651-.693.28-.16333.5904-.245.931-.245.336 0 .6277.07233.875.217.2474.14467.4317.32667.553.546v-.7h.644V8h-.644v-.714c-.126.224-.315.41067-.567.56-.2473.14467-.5366.217-.868.217-.3406 0-.6486-.084-.924-.252-.2753-.168-.4923-.40367-.651-.707-.1586-.30333-.238-.64867-.238-1.036zm3.248.007c0-.28933-.0583-.54133-.175-.756-.1166-.21467-.2753-.378-.476-.49-.196-.11667-.413-.175-.651-.175-.238 0-.455.056-.651.168-.196.112-.3523.27533-.469.49-.1166.21467-.175.46667-.175.756 0 .294.0584.55067.175.77.1167.21467.273.38033.469.497.196.112.413.168.651.168.238 0 .455-.056.651-.168.2007-.11667.3594-.28233.476-.497.1167-.21933.175-.47367.175-.763zm2.3575-1.288c.112-.21933.2707-.38967.476-.511.21-.12133.4643-.182.763-.182v.658h-.168c-.714 0-1.071.38733-1.071 1.162V8h-.637V4.164h.637v.623zm3.5563-.686c.3313 0 .6207.07233.868.217.252.14467.4387.32667.56.546v-.7h.644v3.92c0 .35-.0747.66033-.224.931-.1493.27533-.364.49-.644.644-.2753.154-.5973.231-.966.231-.504 0-.924-.119-1.26-.357-.336-.238-.5343-.56233-.595-.973h.63c.07.23333.2147.42.434.56.2193.14467.483.217.791.217.35 0 .6347-.10967.854-.329.224-.21933.336-.52733.336-.924v-.805c-.126.224-.3127.41067-.56.56-.2473.14933-.5367.224-.868.224-.3407 0-.651-.084-.931-.252-.2753-.168-.4923-.40367-.651-.707s-.238-.64867-.238-1.036c0-.392.0793-.735.238-1.029.1587-.29867.3757-.52967.651-.693.28-.16333.5903-.245.931-.245zm1.428 1.974c0-.28933-.0583-.54133-.175-.756-.1167-.21467-.2753-.378-.476-.49-.196-.11667-.413-.175-.651-.175-.238 0-.455.056-.651.168-.196.112-.3523.27533-.469.49-.1167.21467-.175.46667-.175.756 0 .294.0583.55067.175.77.1167.21467.273.38033.469.497.196.112.413.168.651.168.238 0 .455-.056.651-.168.2007-.11667.3593-.28233.476-.497.1167-.21933.175-.47367.175-.763zm2.0495-2.534c-.1213 0-.224-.042-.308-.126-.084-.084-.126-.18667-.126-.308s.042-.224.126-.308c.084-.084.1867-.126.308-.126.1167 0 .2147.042.294.126.084.084.126.18667.126.308s-.042.224-.126.308c-.0793.084-.1773.126-.294.126zm.308.623V8h-.637V4.164h.637zm2.9546-.07c.4667 0 .8447.14233 1.134.427.2894.28.434.686.434 1.218V8h-.63V5.83c0-.38267-.0956-.67433-.287-.875-.1913-.20533-.4526-.308-.784-.308-.336 0-.6043.105-.805.315-.196.21-.294.51567-.294.917V8h-.637V4.164h.637v.546c.126-.196.2964-.34767.511-.455.2194-.10733.4597-.161.721-.161zm4.8038-.553c-.1213 0-.224-.042-.308-.126-.084-.084-.126-.18667-.126-.308s.042-.224.126-.308c.084-.084.1867-.126.308-.126.1167 0 .2147.042.294.126.084.084.126.18667.126.308s-.042.224-.126.308c-.0793.084-.1773.126-.294.126zm.308.623V8h-.637V4.164h.637zm2.4436 3.899c-.294 0-.5576-.049-.791-.147-.2333-.10267-.4176-.24267-.553-.42-.1353-.182-.21-.38967-.224-.623h.658c.0187.19133.1074.34767.266.469.1634.12133.3757.182.637.182.2427 0 .434-.05367.574-.161.14-.10733.21-.24267.21-.406 0-.168-.0746-.29167-.224-.371-.1493-.084-.3803-.16567-.693-.245-.2846-.07467-.518-.14933-.7-.224-.1773-.07933-.3313-.19367-.462-.343-.126-.154-.189-.35467-.189-.602 0-.196.0584-.37567.175-.539.1167-.16333.2824-.29167.497-.385.2147-.098.4597-.147.735-.147.4247 0 .7677.10733 1.029.322.2614.21467.4014.50867.42.882h-.637c-.014-.20067-.0956-.36167-.245-.483-.1446-.12133-.3406-.182-.588-.182-.2286 0-.4106.049-.546.147-.1353.098-.203.22633-.203.385 0 .126.0397.231.119.315.084.07933.1867.14467.308.196.126.04667.2987.10033.518.161.2754.07467.4994.14933.672.224.1727.07.3197.17733.441.322.126.14467.1914.33367.196.567 0 .21-.0583.399-.175.567-.1166.168-.2823.301-.497.399-.21.09333-.4526.14-.728.14zm6.0695-3.969c.2893 0 .5507.063.784.189.2333.12133.4153.30567.546.553.1353.24733.203.54833.203.903V8h-.63V5.83c0-.38267-.0957-.67433-.287-.875-.1913-.20533-.4527-.308-.784-.308-.336 0-.6043.105-.805.315-.196.21-.294.51567-.294.917V8h-.637V2.82h.637v1.89c.126-.196.2987-.34767.518-.455.224-.10733.4737-.161.749-.161zm2.9025-.553c-.1213 0-.224-.042-.308-.126-.084-.084-.126-.18667-.126-.308s.042-.224.126-.308c.084-.084.1867-.126.308-.126.1167 0 .2147.042.294.126.084.084.126.18667.126.308s-.042.224-.126.308c-.0793.084-.1773.126-.294.126zm.308.623V8h-.637V4.164h.637zm2.6677-.063c.3313 0 .6206.07233.868.217.252.14467.4386.32667.56.546v-.7h.644v3.92c0 .35-.0747.66033-.224.931-.1494.27533-.364.49-.644.644-.2754.154-.5974.231-.966.231-.504 0-.924-.119-1.26-.357-.336-.238-.5344-.56233-.595-.973h.63c.07.23333.2146.42.434.56.2193.14467.483.217.791.217.35 0 .6346-.10967.854-.329.224-.21933.336-.52733.336-.924v-.805c-.126.224-.3127.41067-.56.56-.2474.14933-.5367.224-.868.224-.3407 0-.651-.084-.931-.252-.2754-.168-.4924-.40367-.651-.707-.1587-.30333-.238-.64867-.238-1.036 0-.392.0793-.735.238-1.029.1586-.29867.3756-.52967.651-.693.28-.16333.5903-.245.931-.245zm1.428 1.974c0-.28933-.0584-.54133-.175-.756-.1167-.21467-.2754-.378-.476-.49-.196-.11667-.413-.175-.651-.175-.238 0-.455.056-.651.168-.196.112-.3524.27533-.469.49-.1167.21467-.175.46667-.175.756 0 .294.0583.55067.175.77.1166.21467.273.38033.469.497.196.112.413.168.651.168.238 0 .455-.056.651-.168.2006-.11667.3593-.28233.476-.497.1166-.21933.175-.47367.175-.763zm3.6244-1.981c.2894 0 .5507.063.784.189.2334.12133.4154.30567.546.553.1354.24733.203.54833.203.903V8h-.63V5.83c0-.38267-.0956-.67433-.287-.875-.1913-.20533-.4526-.308-.784-.308-.336 0-.6043.105-.805.315-.196.21-.294.51567-.294.917V8h-.637V2.82h.637v1.89c.126-.196.2987-.34767.518-.455.224-.10733.4737-.161.749-.161zm5.0768.693c.112-.21933.2707-.38967.476-.511.21-.12133.4643-.182.763-.182v.658h-.168c-.714 0-1.071.38733-1.071 1.162V8h-.637V4.164h.637v.623zm2.3033-1.246c-.1213 0-.224-.042-.308-.126-.084-.084-.126-.18667-.126-.308s.042-.224.126-.308c.084-.084.1867-.126.308-.126.1167 0 .2147.042.294.126.084.084.126.18667.126.308s-.042.224-.126.308c-.0793.084-.1773.126-.294.126zm.308.623V8h-.637V4.164h.637zm2.4437 3.899c-.294 0-.5577-.049-.791-.147-.2333-.10267-.4177-.24267-.553-.42-.1353-.182-.21-.38967-.224-.623h.658c.0187.19133.1073.34767.266.469.1633.12133.3757.182.637.182.2427 0 .434-.05367.574-.161.14-.10733.21-.24267.21-.406 0-.168-.0747-.29167-.224-.371-.1493-.084-.3803-.16567-.693-.245-.2847-.07467-.518-.14933-.7-.224-.1773-.07933-.3313-.19367-.462-.343-.126-.154-.189-.35467-.189-.602 0-.196.0583-.37567.175-.539.1167-.16333.2823-.29167.497-.385.2147-.098.4597-.147.735-.147.4247 0 .7677.10733 1.029.322.2613.21467.4013.50867.42.882h-.637c-.014-.20067-.0957-.36167-.245-.483-.1447-.12133-.3407-.182-.588-.182-.2287 0-.4107.049-.546.147-.1353.098-.203.22633-.203.385 0 .126.0397.231.119.315.084.07933.1867.14467.308.196.126.04667.2987.10033.518.161.2753.07467.4993.14933.672.224.1727.07.3197.17733.441.322.126.14467.1913.33367.196.567 0 .21-.0583.399-.175.567-.1167.168-.2823.301-.497.399-.21.09333-.4527.14-.728.14zM102.351 8l-1.505-1.694V8h-.637V2.82h.637v3.045l1.477-1.701h.889l-1.806 1.911L103.219 8h-.868zm1.664.042c-.121 0-.224-.042-.308-.126-.084-.084-.126-.18667-.126-.308s.042-.224.126-.308c.084-.084.187-.126.308-.126.117 0 .215.042.294.126.084.084.126.18667.126.308s-.042.224-.126.308c-.079.084-.177.126-.294.126zm6.017-1.127h-2.128L107.512 8h-.672l1.764-4.851h.735L111.096 8h-.672l-.392-1.085zm-.182-.518l-.882-2.464-.882 2.464h1.764zm4.773-3.276v.518h-2.121v1.645h1.722v.518h-1.722V8h-.637V3.121h2.758zm2.316 4.928c-.322 0-.611-.056-.868-.168-.252-.11667-.45-.27533-.595-.476-.145-.20533-.219-.441-.224-.707h.679c.023.22867.117.42233.28.581.168.154.411.231.728.231.303 0 .541-.07467.714-.224.177-.154.266-.35.266-.588 0-.18667-.051-.33833-.154-.455-.103-.11667-.231-.20533-.385-.266s-.362-.126-.623-.196c-.322-.084-.581-.168-.777-.252-.191-.084-.357-.21467-.497-.392-.135-.182-.203-.42467-.203-.728 0-.266.068-.50167.203-.707s.324-.364.567-.476c.247-.112.53-.168.847-.168.457 0 .831.11433 1.12.343.294.22867.46.532.497.91h-.7c-.023-.18667-.121-.35-.294-.49-.173-.14467-.401-.217-.686-.217-.266 0-.483.07-.651.21-.168.13533-.252.32667-.252.574 0 .17733.049.322.147.434.103.112.226.19833.371.259.149.056.357.12133.623.196.322.08867.581.17733.777.266.196.084.364.217.504.399.14.17733.21.42.21.728 0 .238-.063.462-.189.672-.126.21-.313.38033-.56.511-.247.13067-.539.196-.875.196zm3.198-.567h1.708V8H119.5V3.121h.637v4.361zm4.132-3.269c.033-.42933.198-.76533.497-1.008.299-.24267.686-.364 1.162-.364.317 0 .59.05833.819.175.233.112.408.266.525.462.121.196.182.41767.182.665 0 .28933-.084.539-.252.749-.163.21-.378.34533-.644.406v.035c.303.07467.544.22167.721.441.177.21933.266.50633.266.861 0 .266-.061.50633-.182.721-.121.21-.303.37567-.546.497-.243.12133-.534.182-.875.182-.495 0-.901-.12833-1.218-.385-.317-.26133-.495-.63-.532-1.106h.616c.033.28.147.50867.343.686.196.17733.457.266.784.266s.574-.084.742-.252c.173-.17267.259-.39433.259-.665 0-.35-.117-.602-.35-.756-.233-.154-.586-.231-1.057-.231h-.161V5.06h.168c.429-.00467.754-.07467.973-.21.219-.14.329-.35467.329-.644 0-.24733-.082-.44567-.245-.595-.159-.14933-.387-.224-.686-.224-.289 0-.523.07467-.7.224-.177.14933-.282.35-.315.602h-.623zm4.955 2.429c.047.266.154.47133.322.616.173.14467.404.217.693.217.388 0 .672-.15167.854-.455.187-.30333.276-.81433.266-1.533-.098.21-.261.37567-.49.497-.228.11667-.483.175-.763.175-.312 0-.592-.063-.84-.189-.242-.13067-.434-.31967-.574-.567-.14-.24733-.21-.546-.21-.896 0-.49933.145-.90067.434-1.204.29-.308.7-.462 1.232-.462.654 0 1.111.21233 1.372.637.266.42467.399 1.057.399 1.897 0 .588-.053 1.07333-.161 1.456-.102.38267-.28.67433-.532.875-.247.20067-.588.301-1.022.301-.476 0-.847-.12833-1.113-.385s-.417-.58333-.455-.98h.588zm.987-1.022c.313 0 .57-.09567.77-.287.201-.196.301-.45967.301-.791 0-.35-.098-.63233-.294-.847-.196-.21467-.471-.322-.826-.322-.326 0-.588.10267-.784.308-.191.20533-.287.476-.287.812 0 .34067.096.61367.287.819.192.20533.469.308.833.308zm2.435-2.1v-.581h1.316V8h-.644V3.52h-.672zm2.257 3.353V6.39l2.457-3.402h.763V6.32h.7v.553h-.7V8h-.63V6.873h-2.59zm2.618-3.22l-1.883 2.667h1.883V3.653zm1.784 3.22V6.39l2.457-3.402h.763V6.32h.7v.553h-.7V8h-.63V6.873h-2.59zm2.618-3.22L140.04 6.32h1.883V3.653zm1.77-.133v-.581h1.316V8h-.644V3.52h-.672z" fill="#fff"/></svg>